/* XPM */
static char *annotateIcon[]={
"32 32 4 1",
"a c #0000c0",
"# c #404000",
"b c #ffffc0",
". c #ffffff",
"..#.......#.....................",
"..#......#.#....................",
".........#......................",
"..#.####.##.############a.......",
"..#.#..#.#..#bb#........a.......",
"..#.#..#.#..#bb#........a.......",
"..#.#..#.#..####........a.......",
".........#..............a.......",
".........#..............a.......",
".........#..............a.......",
".........#..............a.......",
"........................a.......",
"........................a.......",
"........................a..a....",
"........................a..a....",
"........................a..a....",
"....a...................a..a....",
"....a...................a..a....",
"....a...................a..a....",
"....a...................a..a....",
"....a..............a....a..a....",
"....a..............a....a..a....",
"....a..............a....a..a....",
"....a.a............a....a..a....",
"....a.a............a....a..a....",
".a..a.a.......a....a....a..a....",
".a..a.a..a....a....a.a..a..a....",
".a..a.a..a....a....a.a..a..a....",
".a..a.a..a....a....a.a..a.aa...a",
".aa.a.aa.a.a..aaa..a.a.aa.aa...a",
".aa.a.aa.a.a..aaa.aaaa.aa.aa..aa",
"aaaaaaaaaaaaaaaaaaaaaaaaaaaaaaaa"};
