/* XPM */
static char *dbami[]={
"32 32 4 1",
"# c None",
". c None",
"b c #000000",
"a c #0000c0",
"................................",
"........#....................aaa",
"........##........#####.aaaaaaaa",
".........##.......###aaaaaaa....",
"....###############aaaa#########",
"....###b###b######aa############",
"....###b###b#####aa#############",
"....###b###b####aa##############",
"....###b###b###aa#bbbb#b###b####",
"....###b###b###aa#b####b###b####",
"....###bbbbb###aa#b####b###b####",
"....###b###b###aa#b####b###b####",
"....###b###b##aa##b####b###b####",
"....###b###b##aa##b####bbbbb####",
"....###b###b##a###b####b###b####",
"....###b###b#aa###b####b###b#bb#",
"....#########aa###b####b###b##b#",
"....#########aa###b####b###b#bb#",
"....#########aa###bbbb#b###b##b#",
"....#########aa##############bb#",
"....#########aa#################",
"....#########aa#################",
"....#########aa#################",
"....#########a##################",
"....########aa##################",
"....#######aa###################",
"....######aa####################",
".........aa.......#####.........",
".......aaa........#####.........",
".....aaaa.........#####.........",
"...aaa............#####.........",
".aaa............................"};
