/* XPM */
static char *dbenz[]={
"32 32 6 1",
"a c None",
". c None",
"# c #0000c0",
"b c #008000",
"c c #00c0c0",
"d c #ff0000",
"............................##..",
"....aaaaaaaaaaaaaaaaaaaaaa.###a.",
"....aaaaaaaaaaaaaaaaaaaaaa###aa.",
"....aaaaaaaaaaaaaaaaaaaaaa##a...",
"aaaaaaaaaaaaaaaaaaaaaaaaa###....",
"aaaaaaaaaaaaaaaaaaaaaaaaa##.....",
"aaaaaaaaaaaaabbbbbaaaaaa##......",
"aaaaaaaaaaabbcccccbaaaaa##......",
"aaaaaaaaabbccccccccbaaa.##......",
"aaaaaaaabcccccccccccba.##.......",
"aaaaaaaabccccccccccccb.##.......",
"aaaaaaabcccccccccccccd##........",
"aaaaaaabccccccccccccd.##........",
"aaaaaabccccccccccccd..##........",
"aaaaaabcccccccccccd..##.........",
"aaaaaabccccccccccd#####.........",
"aaaaaabcccccccccccd###a.........",
"aaaaaabccccccccccccd............",
"aaaa###bccccccccccccda..........",
"aaa####bcccccccccccccda.........",
"aaa###aabccccccccccccbaa........",
"aaa##aaabcccccccccccbaaaa.......",
"aa###aaaabbcccccccccbaaaaa......",
"aa##aaaaaaabbcccccbbaaaaaa......",
"aa##aaaaaaaaabbbbbaaaaaaa.......",
"aa##aaaaaaaaaaaaaaaaaaaaaaaaaaa.",
"..###aaaaaaaaaaaaaaaaaaaaaaaaaa.",
"...##aaaaaaaaaaaaaaaaaaaaaaaaaa.",
"...##aaaaaaaaaaaaaaaaaaaaaaaaaa.",
"...##...........................",
"...##...........................",
"...##..........................."};
