/* XPM */
static char *dbmod[]={
"32 32 6 1",
". c None",
"b c None",
"# c #0000c0",
"c c #808000",
"d c #c0c000",
"a c #ffff00",
"...............................#",
"..............................##",
"............................####",
".........aaa...............###bb",
"........aaaaa.............##bbbb",
"........aaaaa............##bbbbb",
"........aaaaa............#bbbbbb",
".........aaa............##bbbbbb",
"..........ccc...........#bbbbbbb",
".........ccccc.........##bbbbbbb",
".........ccccc........##bbbbbbbb",
".........ccccc.......###dddbbbbb",
"..........cccddd.....##dddddbbbb",
"............ddddd...##.dddddbbbb",
"............ddddd..##b.dddddbbbb",
"............ddddd..##bb.ddddaaab",
".............ddd####bbb.cccaaaaa",
"...........#######bbbbbccccaaaaa",
".........######bbbbbbbbccccaaaaa",
".......#####bbbbbbbbbbbcccccaaa.",
"......##dddbbbbbbbbbbbb.cccddd..",
".....##dddddbaaabbbbbbb...ddddd.",
"....##bdddddaaaaa.........ddddd.",
"...###bdddddaaaaa.........ddddd.",
"..###bbbddccaaaaa..........ddd..",
"..##bbbbbccccaaa.......bbbbbbbbb",
".##bbbbbbccccc.........bbbbbbbbb",
".##bbbbbbccccc.........bbbbbbbbb",
".##bbbbbb.ccc..........bbbbbbbbb",
".##bbbbbb..............bbbbbbbbb",
"##bbbbbbb..............bbbbbbbbb",
"##bbbbbbbbbbbbbbbbbbbbbbbbbbbbbb"};
