/* XPM */
static char *dbprot[]={
"32 32 6 1",
"a c None",
". c None",
"b c #000000",
"# c #0000c0",
"d c #008000",
"c c #c00000",
"................................",
"................................",
"...............#######..........",
".............###.....##.........",
"...........###aaaaaaa.##........",
"........####.......aa..#........",
".....#####.a.....aaa...#........",
"...####....aa..aaa.....#........",
".###........aaaa......##........",
".#..............bbb..##.........",
"...............bcccb##..........",
"..............bcccccb...........",
".............bccccccb...........",
"............bcccccccb...........",
"...........bcccccccb............",
"..........bcccccccb.............",
".........bcccccccb..............",
"........bcccccccb...............",
".......bbbcccccb.........b......",
"......bcccbcccb..........bb.....",
"......bc#ccbcb...........bdb....",
".......##ccbb......bbbbbbbddb...",
"....####bbb........bdddddddddb..",
"..####............#bddddddddddb.",
"..##.............##bdddddddddb..",
"..##...........###.bbbbbbbddb...",
"...##.........##.........bdb....",
"....#####..####..........bb.....",
".......#####.............b......",
"................................",
"................................",
"................................"};
