<?xml version="1.0" encoding="UTF-8" standalone="no"?>
<!DOCTYPE svg PUBLIC "-//W3C//DTD SVG 1.1//EN"
 "http://www.w3.org/Graphics/SVG/1.1/DTD/svg11.dtd">
<!-- Generated by graphviz version 2.43.0 (0)
 -->
<!-- Title: TargetedWorkflow Pages: 1 -->
<svg width="578pt" height="710pt"
 viewBox="0.00 0.00 578.00 709.74" xmlns="http://www.w3.org/2000/svg" xmlns:xlink="http://www.w3.org/1999/xlink">
<g id="graph0" class="graph" transform="scale(1 1) rotate(0) translate(4 705.74)">
<title>TargetedWorkflow</title>
<polygon fill="white" stroke="transparent" points="-4,4 -4,-705.74 574,-705.74 574,4 -4,4"/>
<g id="clust1" class="cluster">
<title>cluster_input</title>
<polygon fill="lightgray" stroke="black" points="108,-616.74 108,-693.74 562,-693.74 562,-616.74 108,-616.74"/>
<text text-anchor="middle" x="335" y="-678.54" font-family="Times,serif" font-size="14.00">Input Data</text>
</g>
<g id="clust2" class="cluster">
<title>cluster_picking</title>
<polygon fill="lightblue" stroke="black" points="60,-385.74 60,-608.74 294,-608.74 294,-385.74 60,-385.74"/>
<text text-anchor="middle" x="177" y="-593.54" font-family="Times,serif" font-size="14.00">1. Peak Picking &amp; Integration</text>
</g>
<g id="clust3" class="cluster">
<title>cluster_qc</title>
<polygon fill="lightyellow" stroke="black" points="302,-313.74 302,-461.74 470,-461.74 470,-313.74 302,-313.74"/>
<text text-anchor="middle" x="386" y="-446.54" font-family="Times,serif" font-size="14.00">2. Quality Control</text>
</g>
<g id="clust4" class="cluster">
<title>cluster_selection</title>
<polygon fill="lightgreen" stroke="black" points="8,-153.74 8,-305.74 236,-305.74 236,-153.74 8,-153.74"/>
<text text-anchor="middle" x="122" y="-290.54" font-family="Times,serif" font-size="14.00">3. Feature Selection</text>
</g>
<g id="clust5" class="cluster">
<title>cluster_quant</title>
<polygon fill="lightpink" stroke="black" points="276,-81.74 276,-228.74 516,-228.74 516,-81.74 276,-81.74"/>
<text text-anchor="middle" x="396" y="-213.54" font-family="Times,serif" font-size="14.00">4. Absolute Quantitation</text>
</g>
<!-- raw -->
<g id="node1" class="node">
<title>raw</title>
<polygon fill="white" stroke="black" points="352,-661.74 256,-661.74 256,-625.74 352,-625.74 352,-661.74"/>
<text text-anchor="middle" x="304" y="-640.04" font-family="Times,serif" font-size="14.00">Raw mzML</text>
</g>
<!-- picker -->
<g id="node4" class="node">
<title>picker</title>
<polygon fill="white" stroke="black" points="286,-577.74 68,-577.74 68,-541.74 286,-541.74 286,-577.74"/>
<text text-anchor="middle" x="177" y="-556.04" font-family="Times,serif" font-size="14.00">MRMTransitionGroupPicker</text>
</g>
<!-- raw&#45;&gt;picker -->
<g id="edge1" class="edge">
<title>raw&#45;&gt;picker</title>
<path fill="none" stroke="black" d="M277.38,-625.55C258.41,-613.3 232.73,-596.72 212.09,-583.4"/>
<polygon fill="black" stroke="black" points="213.89,-580.39 203.59,-577.91 210.09,-586.27 213.89,-580.39"/>
</g>
<!-- traml -->
<g id="node2" class="node">
<title>traml</title>
<polygon fill="white" stroke="black" points="237.5,-662.74 116.5,-662.74 116.5,-624.74 237.5,-624.74 237.5,-662.74"/>
<text text-anchor="middle" x="177" y="-647.54" font-family="Times,serif" font-size="14.00">Transition List</text>
<text text-anchor="middle" x="177" y="-632.54" font-family="Times,serif" font-size="14.00">(TraML/TSV)</text>
</g>
<!-- traml&#45;&gt;picker -->
<g id="edge2" class="edge">
<title>traml&#45;&gt;picker</title>
<path fill="none" stroke="black" d="M177,-624.54C177,-613.74 177,-599.84 177,-587.78"/>
<polygon fill="black" stroke="black" points="180.5,-587.77 177,-577.77 173.5,-587.77 180.5,-587.77"/>
</g>
<!-- stds -->
<g id="node3" class="node">
<title>stds</title>
<polygon fill="white" stroke="black" points="554,-662.74 370,-662.74 370,-624.74 554,-624.74 554,-662.74"/>
<text text-anchor="middle" x="462" y="-647.54" font-family="Times,serif" font-size="14.00">Standards</text>
<text text-anchor="middle" x="462" y="-632.54" font-family="Times,serif" font-size="14.00">(known concentrations)</text>
</g>
<!-- quant -->
<g id="node12" class="node">
<title>quant</title>
<polygon fill="white" stroke="black" points="466.5,-125.74 297.5,-125.74 297.5,-89.74 466.5,-89.74 466.5,-125.74"/>
<text text-anchor="middle" x="382" y="-104.04" font-family="Times,serif" font-size="14.00">AbsoluteQuantitation</text>
</g>
<!-- stds&#45;&gt;quant -->
<g id="edge12" class="edge">
<title>stds&#45;&gt;quant</title>
<path fill="none" stroke="black" d="M477.33,-624.66C499.01,-597.18 536,-542.43 536,-488.74 536,-488.74 536,-488.74 536,-254.74 536,-209.06 547.03,-188.16 517,-153.74 506.1,-141.25 491.65,-132.22 476.25,-125.69"/>
<polygon fill="black" stroke="black" points="477.15,-122.29 466.56,-121.94 474.62,-128.81 477.15,-122.29"/>
</g>
<!-- integrator -->
<g id="node5" class="node">
<title>integrator</title>
<polygon fill="white" stroke="black" points="244,-505.74 120,-505.74 120,-469.74 244,-469.74 244,-505.74"/>
<text text-anchor="middle" x="182" y="-484.04" font-family="Times,serif" font-size="14.00">PeakIntegrator</text>
</g>
<!-- picker&#45;&gt;integrator -->
<g id="edge3" class="edge">
<title>picker&#45;&gt;integrator</title>
<path fill="none" stroke="black" d="M178.24,-541.44C178.79,-533.72 179.45,-524.45 180.06,-515.85"/>
<polygon fill="black" stroke="black" points="183.56,-516.07 180.78,-505.84 176.57,-515.57 183.56,-516.07"/>
</g>
<!-- emg -->
<g id="node6" class="node">
<title>emg</title>
<polygon fill="white" stroke="black" points="267,-431.74 97,-431.74 97,-393.74 267,-393.74 267,-431.74"/>
<text text-anchor="middle" x="182" y="-416.54" font-family="Times,serif" font-size="14.00">EmgGradientDescent</text>
<text text-anchor="middle" x="182" y="-401.54" font-family="Times,serif" font-size="14.00">(optional)</text>
</g>
<!-- integrator&#45;&gt;emg -->
<g id="edge4" class="edge">
<title>integrator&#45;&gt;emg</title>
<path fill="none" stroke="black" stroke-dasharray="5,2" d="M182,-469.44C182,-461.23 182,-451.21 182,-441.94"/>
<polygon fill="black" stroke="black" points="185.5,-441.93 182,-431.93 178.5,-441.93 185.5,-441.93"/>
</g>
<!-- filter -->
<g id="node8" class="node">
<title>filter</title>
<polygon fill="white" stroke="black" points="461.5,-357.74 310.5,-357.74 310.5,-321.74 461.5,-321.74 461.5,-357.74"/>
<text text-anchor="middle" x="386" y="-336.04" font-family="Times,serif" font-size="14.00">MRMFeatureFilter</text>
</g>
<!-- integrator&#45;&gt;filter -->
<g id="edge6" class="edge">
<title>integrator&#45;&gt;filter</title>
<path fill="none" stroke="black" d="M244.18,-478.07C255.6,-474.39 266.8,-469.16 276,-461.74 305.56,-437.92 289.4,-413.78 315,-385.74 322.84,-377.15 332.68,-369.56 342.51,-363.16"/>
<polygon fill="black" stroke="black" points="344.43,-366.09 351.09,-357.85 340.75,-360.13 344.43,-366.09"/>
</g>
<!-- emg&#45;&gt;filter -->
<g id="edge5" class="edge">
<title>emg&#45;&gt;filter</title>
<path fill="none" stroke="black" d="M233.74,-393.73C262.27,-383.8 297.79,-371.44 327.35,-361.15"/>
<polygon fill="black" stroke="black" points="328.83,-364.34 337.12,-357.75 326.53,-357.73 328.83,-364.34"/>
</g>
<!-- qc -->
<g id="node7" class="node">
<title>qc</title>
<polygon fill="white" stroke="black" points="456.5,-430.74 323.5,-430.74 323.5,-394.74 456.5,-394.74 456.5,-430.74"/>
<text text-anchor="middle" x="390" y="-409.04" font-family="Times,serif" font-size="14.00">MRMFeatureQC</text>
</g>
<!-- qc&#45;&gt;filter -->
<g id="edge7" class="edge">
<title>qc&#45;&gt;filter</title>
<path fill="none" stroke="black" d="M389.03,-394.55C388.58,-386.53 388.03,-376.79 387.53,-367.81"/>
<polygon fill="black" stroke="black" points="391.02,-367.56 386.96,-357.77 384.03,-367.95 391.02,-367.56"/>
</g>
<!-- selector -->
<g id="node9" class="node">
<title>selector</title>
<polygon fill="white" stroke="black" points="228,-274.74 58,-274.74 58,-236.74 228,-236.74 228,-274.74"/>
<text text-anchor="middle" x="143" y="-259.54" font-family="Times,serif" font-size="14.00">MRMFeatureSelector</text>
<text text-anchor="middle" x="143" y="-244.54" font-family="Times,serif" font-size="14.00">(QMIP or Score)</text>
</g>
<!-- filter&#45;&gt;selector -->
<g id="edge8" class="edge">
<title>filter&#45;&gt;selector</title>
<path fill="none" stroke="black" d="M335.36,-321.65C297.83,-308.99 246.45,-291.65 206.23,-278.08"/>
<polygon fill="black" stroke="black" points="207.12,-274.68 196.53,-274.8 204.88,-281.32 207.12,-274.68"/>
</g>
<!-- batch -->
<g id="node10" class="node">
<title>batch</title>
<polygon fill="white" stroke="black" points="228,-197.74 16,-197.74 16,-161.74 228,-161.74 228,-197.74"/>
<text text-anchor="middle" x="122" y="-176.04" font-family="Times,serif" font-size="14.00">MRMBatchFeatureSelector</text>
</g>
<!-- selector&#45;&gt;batch -->
<g id="edge9" class="edge">
<title>selector&#45;&gt;batch</title>
<path fill="none" stroke="black" stroke-dasharray="5,2" d="M137.81,-236.45C135.35,-227.77 132.36,-217.24 129.64,-207.67"/>
<polygon fill="black" stroke="black" points="132.94,-206.47 126.84,-197.81 126.21,-208.38 132.94,-206.47"/>
</g>
<!-- selector&#45;&gt;quant -->
<g id="edge11" class="edge">
<title>selector&#45;&gt;quant</title>
<path fill="none" stroke="black" d="M225.59,-236.5C229.62,-234.21 233.46,-231.64 237,-228.74 265.92,-205.07 247.66,-179.21 275,-153.74 285.54,-143.92 298.54,-136.07 311.81,-129.87"/>
<polygon fill="black" stroke="black" points="313.26,-133.05 321,-125.83 310.44,-126.64 313.26,-133.05"/>
</g>
<!-- batch&#45;&gt;quant -->
<g id="edge10" class="edge">
<title>batch&#45;&gt;quant</title>
<path fill="none" stroke="black" d="M185.27,-161.71C222.55,-151.67 269.86,-138.93 308.75,-128.46"/>
<polygon fill="black" stroke="black" points="309.7,-131.83 318.45,-125.85 307.88,-125.07 309.7,-131.83"/>
</g>
<!-- method -->
<g id="node11" class="node">
<title>method</title>
<polygon fill="white" stroke="black" points="508,-197.74 284,-197.74 284,-161.74 508,-161.74 508,-197.74"/>
<text text-anchor="middle" x="396" y="-176.04" font-family="Times,serif" font-size="14.00">AbsoluteQuantitationMethod</text>
</g>
<!-- method&#45;&gt;quant -->
<g id="edge13" class="edge">
<title>method&#45;&gt;quant</title>
<path fill="none" stroke="black" d="M392.54,-161.44C391,-153.72 389.14,-144.45 387.42,-135.85"/>
<polygon fill="black" stroke="black" points="390.81,-134.96 385.42,-125.84 383.95,-136.34 390.81,-134.96"/>
</g>
<!-- results -->
<g id="node13" class="node">
<title>results</title>
<ellipse fill="white" stroke="black" cx="382" cy="-26.87" rx="105.22" ry="26.74"/>
<text text-anchor="middle" x="382" y="-30.67" font-family="Times,serif" font-size="14.00">Quantified Results</text>
<text text-anchor="middle" x="382" y="-15.67" font-family="Times,serif" font-size="14.00">(FeatureMap)</text>
</g>
<!-- quant&#45;&gt;results -->
<g id="edge14" class="edge">
<title>quant&#45;&gt;results</title>
<path fill="none" stroke="black" d="M382,-89.63C382,-82.14 382,-73.05 382,-64.17"/>
<polygon fill="black" stroke="black" points="385.5,-63.95 382,-53.95 378.5,-63.95 385.5,-63.95"/>
</g>
</g>
</svg>
