/* XPM */
static const char *precursors[]={
"32 32 3 1",
". c None",
"# c #000000",
"a c #808080",
"................................",
"................................",
"................................",
"...#...#..##.....#.#...#..##....",
"...##.##.#..#...#..##.##.#..#...",
"...#.#.#.#......#..#.#.#.#......",
"...#...#..##...#...#...#..##....",
"...#...#....#..#...#...#....#...",
"...#...#.#..#.#....#...#.#..#...",
"...#...#..##..#....#...#..##....",
"................................",
"................................",
"................................",
".......#........................",
".aaaaa###aaaaaaaaaaaaaaaaaaaaaa.",
".......#........................",
"................................",
"................................",
".......................#........",
".aaaaaaaaaaaaaaaaaaaaa###aaaaaa.",
".......................#........",
"................................",
"................................",
"......#.......#.................",
".aaaa###aaaaa###aaaaaaaaaaaaaaa.",
"......#.......#.................",
"................................",
"................................",
"...................#............",
".aaaaaaaaaaaaaaaaa###aaaaaaaaaa.",
"...................#............",
"................................"};
