/* XPM */
static const char *projections[]={
"32 32 5 1",
"# c None",
". c None",
"b c #000000",
"a c #000080",
"c c #800000",
".....#..........................",
".....a..........................",
".....a........#.................",
".....a........#.................",
".....a........#.................",
".....a......a.#..###............",
".....a......a.#.##a#............",
".....a...a..a#a##.a.............",
".....a...a..a#a#..a######.......",
"..aaaaaaaaaaaaaaaaaaaaa.##......",
".....##.###########......##.....",
".b#####################.c.##....",
".b...................##.c...#...",
".b....................#.c...#...",
".b...b................#.c...#...",
".b..bbb...............##ccc##...",
".b...b......b##.##....#.c...#...",
".b.........bbb######..##ccccc...",
".b..........b#######..##c######.",
".b............#######.##c.......",
".b......#b#...........#.c.......",
".b......bbb...........#.ccc.....",
".b......#b#...b.......#.c.......",
".b...........bbb......##cccc#...",
".b............b.......##c.......",
".b....................##c.......",
".b..#b##..........b...##c.......",
".b.#bbb#.........bbb.###ccccccc#",
".b.##b##..........b..###c####...",
".b.####..............##.c.......",
".bbbbbbbbbbbbbbbbbbbbbb.........",
"................................"};
