/* XPM */
static char const *toppview[] = {
/* columns rows colors chars-per-pixel */
"32 32 115 2",
"   c black",
".  c #0202525280800000",
"X  c #0505555581810000",
"o  c #0909575783830000",
"O  c #0A0A585883830000",
"+  c #171760608A8A0000",
"@  c #181861618A8A0000",
"#  c #1A1A63638B8B0000",
"$  c #1A1A63638C8C0000",
"%  c #2A2A6E6E94940000",
"&  c #2E2E707095950000",
"*  c #3131727297970000",
"=  c #3B3B79799C9C0000",
"-  c #47478181A2A20000",
";  c #4C4C8484A4A40000",
":  c #4E4E8686A5A50000",
">  c #70709D9DB7B70000",
",  c #CCCC404000000000",
"<  c #CCCC424201010000",
"1  c #CCCC444404040000",
"2  c #CDCD474709090000",
"3  c #CECE48480A0A0000",
"4  c #CECE49490C0C0000",
"5  c #CECE4B4B0E0E0000",
"6  c #CFCF4D4D10100000",
"7  c #CFCF4D4D11110000",
"8  c #CFCF4E4E12120000",
"9  c #D0D0525216160000",
"0  c #D0D0535318180000",
"q  c #D0D0535319190000",
"w  c #D1D1545419190000",
"e  c #D2D25A5A22220000",
"r  c #D3D35C5C24240000",
"t  c #D4D461612C2C0000",
"y  c #D5D564642F2F0000",
"u  c #D6D6666632320000",
"i  c #D7D76A6A37370000",
"p  c #D7D76C6C3A3A0000",
"a  c #D8D86F6F3E3E0000",
"s  c #D8D8707040400000",
"d  c #DCDC7E7E52520000",
"f  c #DCDC7E7E53530000",
"g  c #DCDC7F7F53530000",
"h  c #DDDD818156560000",
"j  c #DEDE84845A5A0000",
"k  c #DEDE86865C5C0000",
"l  c #DFDF888860600000",
"z  c #E0E08C8C64640000",
"x  c #E2E2959571710000",
"c  c #E3E39A9A77770000",
"v  c #9B9BBBBBCCCC0000",
"b  c #B4B4CCCCD9D90000",
"n  c #B6B6CDCDDADA0000",
"m  c #E6E6A3A383830000",
"M  c #E7E7A8A88B8B0000",
"N  c #E8E8ABAB8E8E0000",
"B  c #E8E8ACAC90900000",
"V  c #E9E9AEAE93930000",
"C  c #EAEAB2B299990000",
"Z  c #EBEBB6B69D9D0000",
"A  c #EDEDBCBCA5A50000",
"S  c #EDEDBFBFA9A90000",
"D  c #EEEEC2C2ADAD0000",
"F  c #EFEFC4C4AFAF0000",
"G  c #F0F0CACAB8B80000",
"H  c #F1F1CACAB9B90000",
"J  c #F1F1CDCDBBBB0000",
"K  c #F2F2CECEBEBE0000",
"L  c #F2F2CFCFBFBF0000",
"P  c #C4C4D7D7E1E10000",
"I  c #C8C8D9D9E3E30000",
"U  c #D4D4E1E1E9E90000",
"Y  c #D7D7E4E4EBEB0000",
"T  c #DADAE6E6ECEC0000",
"R  c #DBDBE6E6ECEC0000",
"E  c #DEDEE9E9EEEE0000",
"W  c #F2F2D0D0C0C00000",
"Q  c #F2F2D1D1C1C10000",
"!  c #F3F3D2D2C3C30000",
"~  c #F3F3D5D5C7C70000",
"^  c #F6F6DDDDD2D20000",
"/  c #F6F6E0E0D5D50000",
"(  c #F6F6E0E0D6D60000",
")  c #F7F7E3E3D9D90000",
"_  c #F7F7E3E3DADA0000",
"`  c #F8F8E4E4DCDC0000",
"'  c #F8F8E6E6DDDD0000",
"]  c #F8F8E6E6DEDE0000",
"[  c #E5E5EDEDF2F20000",
"{  c #F8F8E7E7E0E00000",
"}  c #F9F9EAEAE4E40000",
"|  c #F9F9EBEBE4E40000",
" . c #FAFAECECE6E60000",
".. c #FBFBF2F2EEEE0000",
"X. c #FBFBF3F3EFEF0000",
"o. c #F0F0F4F4F7F70000",
"O. c #FCFCF4F4F1F10000",
"+. c #FCFCF5F5F2F20000",
"@. c #FCFCF6F6F3F30000",
"#. c #FCFCF6F6F4F40000",
"$. c #FDFDF7F7F5F50000",
"%. c #FDFDF8F8F6F60000",
"&. c #FDFDF9F9F7F70000",
"*. c #FBFBFCFCFDFD0000",
"=. c #FDFDFAFAF9F90000",
"-. c #FEFEFBFBFAFA0000",
";. c #FEFEFCFCFBFB0000",
":. c #FCFCFCFCFDFD0000",
">. c #FEFEFCFCFCFC0000",
",. c #FEFEFDFDFCFC0000",
"<. c #FEFEFDFDFDFD0000",
"1. c #FEFEFEFEFDFD0000",
"2. c #FEFEFEFEFEFE0000",
"3. c gray100",
"4. c None",
/* pixels */
"4.3.3.3.3.3.3.3.3.3.3.3.3.3.3.3.3.3.3.3.3.3.3.3.3.3.3.3.3.3.4.4.",
"3.3.3.3.3.3.3.3.3.3.3.3.3.3.3.3.3.3.3.3.3.3.3.3.3.3.3.3.3.3.4.4.",
"3.3.3.3.3.3.3.3.3.3.3.3.3.3.3.3.3.3.3.3.3.3.3.3.3.3.3.3.3.3.3.4.",
"3.3.3.3.3.3.3.3.3.3.3.3.3.3.3.3.3.3.3.3.3.3.3.3.3.3.3.3.3.3.3.3.",
"3.3.3.3.3.3.3.3.3.3.3.3.3.3.3.3.3.3.3.3.3.3.3.3.3.3.3.3.3.3.3.3.",
"3.3.3.[ o . . . . . . . . . . . . : 3.3.3.3.3.3.3.3.3.3.3.3.3.3.",
"3.3.3.R o . & = = O . . $ = = @ . : 3.3.3.3.3.3.3.3.3.3.3.3.3.3.",
"3.3.3.R o X Y 3.3.% . . > 3.3.v . : 3.3.3.3.3.3.3.3.3.3.3.3.3.3.",
"3.3.3.R o @ E 3.3.% . . > 3.3.b . : 3.3.3.3.3.3.3.3.3.3.3.3.3.3.",
"3.3.3.R o * *.3.3.% . . > 3.3.U . : 3.3.3.3.3.3.3.3.3.3.3.3.3.3.",
"3.3.3.3.*.3.3.3.3.% . . > 3.3.3.*.*.3.3.3.3.3.3.3.3.3.3.3.3.3.3.",
"3.3.3.3.3.3.3.3.3.% . . > 3.3.3.3.3.3.3.3.3.3.3.3.3.;.&.3.3.3.3.",
"3.3.3.3.3.3.3.3.3.% . . > a , , , , , a 3.3.3.#.0 , , , , F 3.3.",
"3.3.3.3.3.3.3.3.3.% . . > ( V , , , K ` 3.3.3.3.H j , 9 A @.3.3.",
"3.3.3.3.3.3.3.3.3.% . . > 3.@.5 , , _ 3.3.3.3.3.O.r , S ;.3.3.3.",
"3.3.3.3.3.3.3.3.3.% . . > 3.;.y , , H 3.3.3.3.3.Z , i @.3.3.3.3.",
"3.3.3.3.3.3.3.3.3.% . . > 3.3.j , , M 3.3.3.3...9 , Q 3.3.3.3.3.",
"3.3.3.3.3.3.3.3.3.% . . > 3.3.V , , f 3.3.3.3.M , f =.3.3.3.3.3.",
"3.3.3.3.3.3.3.3.3.% . . > 3.3.W , , t =.3.3. .7 , ( 3.3.3.3.3.3.",
"3.3.3.3.3.3.3.3.3.% . . > 3.3.{ , , 5 O.3.3.c , x *.3.3.3.3.3.3.",
"3.3.3.3.3.3.3.R P + . . - I o.#.7 , , ` 3.` 2 7 | 3.3.3.3.3.3.3.",
"3.3.3.3.3.3.3.; . . . . . . b >.u , , J 3.l , N 3.3.3.3.3.3.3.3.",
"3.3.3.3.3.3.3.3.3.3.3.3.3.3.3.3.l , , N ^ , e ..3.3.3.3.3.3.3.3.",
"3.3.3.3.3.3.3.3.3.3.3.3.3.3.3.3.C , , f i , F 3.3.3.3.3.3.3.3.3.",
"3.3.3.3.3.3.3.3.3.3.3.3.3.3.3.3.Q , , 2 , p #.3.3.3.3.3.3.3.3.3.",
"3.3.3.3.3.3.3.3.3.3.3.3.3.3.3.3.} q , , , ~ 3.3.3.3.3.3.3.3.3.3.",
"3.3.3.3.3.3.3.3.3.3.3.3.3.3.3.3.#.f , , h =.3.3.3.3.3.3.3.3.3.4.",
"3.3.3.3.3.3.3.3.3.3.3.3.3.3.3.3.3.m , 1 _ 3.3.3.3.3.3.3.3.3.3.4.",
"4.3.3.3.3.3.3.3.3.3.3.3.3.3.3.3.3.G k K 3.3.3.3.3.3.3.3.3.3.4.4.",
"4.3.3.3.3.3.3.3.3.3.3.3.3.3.3.3.3.3.>.3.3.3.3.3.3.3.3.3.3.4.4.4.",
"4.4.4.3.3.3.3.3.3.3.3.3.3.3.3.3.3.3.3.3.3.3.3.3.3.3.3.3.4.4.4.4.",
"4.4.4.4.4.3.3.3.3.3.3.3.3.3.3.3.3.3.3.3.3.3.3.3.3.3.4.4.4.4.4.4."
};
