/* XPM */ 
static char * XPM_colors[] = {
"32 32 351 2",
"  	c None",
"xx c black",
"# 	c #D8D8D8",
"$ 	c #9F9F9F",
"% 	c #4000FF",
"& 	c #A5A5A5",
"' 	c #5A5A5A",
"( 	c #4100FF",
") 	c #3F00FF",
"* 	c #3E00FF",
"+ 	c #3D00FF",
", 	c #3D07F9",
"- 	c #3B10F2",
". 	c #391AEB",
"0 	c #3821E5",
"1 	c #391BEA",
"2 	c #3C11F1",
"3 	c #3E08F8",
"4 	c #4001FE",
"5 	c #4600F7",
"6 	c #4D00EE",
"7 	c #5400E5",
"8 	c #5900DD",
"9 	c #5A02DC",
": 	c #5A04DC",
"; 	c #5A07DC",
"< 	c #5908DD",
"= 	c #5307E5",
"> 	c #4D04EF",
"? 	c #4501F8",
"@ 	c #4202FD",
"A 	c #4809F5",
"B 	c #4F13EB",
"C 	c #561CE2",
"D 	c #5921DC",
"E 	c #5521DC",
"F 	c #3901FE",
"G 	c #331CE9",
"H 	c #2C41CB",
"I 	c #2468AD",
"J 	c #1F8696",
"K 	c #256DA9",
"L 	c #2E46C7",
"M 	c #3722E5",
"N 	c #4003FB",
"O 	c #5800E0",
"P 	c #7400B9",
"Q 	c #900094",
"R 	c #A60077",
"S 	c #A90773",
"T 	c #A81074",
"U 	c #A91A73",
"V 	c #A52177",
"W 	c #8E1997",
"X 	c #7210BC",
"Y 	c #5405E4",
"Z 	c #4707F6",
"[ 	c #5F27D5",
"] 	c #7C4BAF",
"^ 	c #996F89",
"_ 	c #A58373",
"` 	c #958574",
"a 	c #3402FD",
"b 	c #2B2FDA",
"c 	c #1E6DA9",
"d 	c #11AE78",
"e 	c #07DF51",
"f 	c #12B770",
"g 	c #2276A3",
"h 	c #3138D5",
"i 	c #4105F8",
"j 	c #6800CB",
"k 	c #96028C",
"l 	c #C3024F",
"m 	c #E7041E",
"n 	c #EB1118",
"o 	c #EB2019",
"p 	c #EB3018",
"q 	c #E63A1F",
"r 	c #BF2D54",
"s 	c #921D91",
"t 	c #610AD2",
"u 	c #4B0DF1",
"v 	c #7342BA",
"w 	c #A27E7B",
"x 	c #D2BA3D",
"y 	c #E5DD18",
"z 	c #CAE019",
"{ 	c #3602FE",
"| 	c #2B29E2",
"} 	c #1C60BD",
"~ 	c #0C9996",
" !	c #01C478",
"!!	c #0CA090",
"#!	c #1F67B8",
"$!	c #2F31DE",
"%!	c #4005FA",
"&!	c #5B10D7",
"'!	c #7926A5",
"(!	c #973A76",
")!	c #AF4B50",
"*!	c #B2544B",
"+!	c #B15C4C",
",!	c #B2654B",
"-!	c #AF6951",
".!	c #95507A",
"0!	c #7733A9",
"1!	c #5614DC",
"2!	c #470DF4",
"3!	c #6243C9",
"4!	c #817F98",
"5!	c #A1BB68",
"6!	c #ADDE4B",
"7!	c #98DD4C",
"8!	c #3C01FF",
"9!	c #301AF4",
":!	c #1F3CE5",
";!	c #0E5FD6",
"<!	c #017ACB",
"=!	c #0C64D4",
">!	c #1F40E3",
"?!	c #301EF2",
"@!	c #3E05FD",
"A!	c #4128F0",
"B!	c #425ADC",
"C!	c #438ACA",
"D!	c #44B0BB",
"E!	c #44B1B9",
"F!	c #44ADB9",
"G!	c #44AAB9",
"H!	c #44A2BB",
"I!	c #437CCC",
"J!	c #4250DE",
"K!	c #4120F1",
"L!	c #400CFB",
"M!	c #4138EA",
"N!	c #426CD7",
"O!	c #44A0C5",
"P!	c #42BCB9",
"Q!	c #3AB7B9",
"R!	c #3F01FF",
"S!	c #340FFF",
"T!	c #2421FF",
"U!	c #1335FF",
"V!	c #0744FF",
"W!	c #1138FF",
"X!	c #2224FF",
"Y!	c #3210FF",
"Z!	c #3E04FF",
"[!	c #3333FF",
"]!	c #2270FF",
"^!	c #12ACFF",
"_!	c #06DBFF",
"`!	c #05D8FF",
"a!	c #05CCFF",
"b!	c #05C3FF",
"c!	c #06B5FF",
"d!	c #148AFF",
"e!	c #2359FF",
"f!	c #3424FF",
"g!	c #3C0AFF",
"h!	c #2F2EFF",
"i!	c #1E58FF",
"j!	c #0D81FF",
"k!	c #0598FF",
"l!	c #0591FF",
"m!	c #3908FF",
"n!	c #2F14FF",
"o!	c #251FFF",
"p!	c #1E28FF",
"q!	c #2E15FF",
"r!	c #370AFF",
"s!	c #3F02FF",
"t!	c #381EFF",
"u!	c #2E43FF",
"v!	c #2468FF",
"w!	c #1C84FF",
"x!	c #1B82FF",
"y!	c #1B7BFF",
"z!	c #1B75FF",
"{!	c #1C6DFF",
"|!	c #2553FF",
"}!	c #2E35FF",
"~!	c #3916FF",
" #	c #3E06FF",
"!#	c #351BFF",
"##	c #2B35FF",
"$#	c #214DFF",
"%#	c #1B5BFF",
"&#	c #1B56FF",
"'#	c #3E02FF",
"(#	c #3C05FF",
")#	c #3909FF",
"*#	c #3B05FF",
"+#	c #3E03FF",
",#	c #3E08FF",
"-#	c #3C10FF",
".#	c #3919FF",
"0#	c #3721FF",
"1#	c #3720FF",
"2#	c #371EFF",
"3#	c #371DFF",
"4#	c #371BFF",
"5#	c #3914FF",
"6#	c #3B0DFF",
"7#	c #3E05FF",
"8#	c #3D07FF",
"9#	c #3913FF",
":#	c #3717FF",
";#	c #3715FF",
"<#	c #3400FF",
"=#	c #2300FF",
">#	c #1300FF",
"?#	c #1000FF",
"@#	c #1F00FF",
"A#	c #3000FF",
"B#	c #4200FF",
"C#	c #3C04FF",
"D#	c #3906FF",
"E#	c #3907FF",
"F#	c #3107FE",
"G#	c #1D11FC",
"H#	c #091AF9",
"I#	c #041FF9",
"J#	c #141FFB",
"K#	c #261FFD",
"L#	c #361FFF",
"M#	c #3B18FF",
"N#	c #2F11FF",
"O#	c #251BFF",
"P#	c #231CFF",
"Q#	c #2C13FF",
"R#	c #3709FF",
"S#	c #311DF9",
"T#	c #1D44F1",
"U#	c #0A69EA",
"V#	c #027FE8",
"W#	c #0C7EF0",
"X#	c #167EF8",
"Y#	c #1E7EFE",
"Z#	c #2762FF",
"[#	c #330CFF",
"]#	c #221DFF",
"^#	c #102EFF",
"_#	c #0D32FF",
"`#	c #1E21FF",
"a#	c #2F10FF",
"b#	c #3D04FF",
"c#	c #3132F5",
"d#	c #1C78E8",
"e#	c #08BCDB",
"f#	c #00E1D8",
"g#	c #00E1E5",
"h#	c #03E2F4",
"i#	c #05E1FF",
"j#	c #12B0FF",
"k#	c #3B03FF",
"l#	c #3119FA",
"m#	c #1C39F3",
"n#	c #085BEC",
"o#	c #0461EB",
"p#	c #1841F1",
"q#	c #2C20F9",
"r#	c #3D06FD",
"s#	c #3F32E9",
"t#	c #3B79CC",
"u#	c #38BCAE",
"v#	c #36E1A2",
"w#	c #36D9AF",
"x#	c #36D3BB",
"y#	c #35CDC7",
"z#	c #38A0D5",
"{#	c #3B06FE",
"|#	c #312AF0",
"}#	c #1D61DD",
"~#	c #099CC9",
" $	c #05A7C5",
"!$	c #196FD9",
"#$	c #2C38EC",
"$$	c #3E09FB",
"%$	c #5522D7",
"&$	c #7155A0",
"'$	c #8D856B",
"($	c #9C9B4F",
")$	c #9C8856",
"*$	c #9C775C",
"+$	c #9C6762",
",$	c #884E85",
"-$	c #3B09FE",
".$	c #3237E8",
"0$	c #1E80CC",
"1$	c #0ACDAE",
"2$	c #06DBA9",
"3$	c #1A92C5",
"4$	c #2C4AE2",
"5$	c #3E0BF9",
"6$	c #6815CA",
"7$	c #9D367F",
"8$	c #D05538",
"9$	c #ED5E10",
":$	c #EC4412",
";$	c #ED2912",
"<$	c #EC1214",
"=$	c #C70B47",
">$	c #3D06FE",
"?$	c #3628EE",
"@$	c #295ED9",
"A$	c #1B96C3",
"B$	c #18A1BE",
"C$	c #256BD4",
"D$	c #3236EA",
"E$	c #3F08FB",
"F$	c #5E0CD8",
"G$	c #8721A1",
"H$	c #AF346D",
"I$	c #C4384F",
"J$	c #C32550",
"K$	c #C4114F",
"L$	c #C30050",
"M$	c #A70076",
"N$	c #3C11F8",
"O$	c #3627EF",
"P$	c #313EE6",
"Q$	c #2F42E4",
"R$	c #342CED",
"S$	c #3A16F6",
"T$	c #4004FD",
"U$	c #4C06EF",
"V$	c #5D0ED8",
"W$	c #6D16C2",
"X$	c #7618B6",
"Y$	c #7610B7",
"Z$	c #7608B7",
"[$	c #7601B7",
"]$	c #6A00C7",
"^$	c #4001FF",
"_$	c #3F02FE",
"`$	c #3F01FE",
"a$	c #4101FE",
"b$	c #4201FD",
"c$	c #4201FC",
"d$	c #4200FC",
"e$	c #4100FD",
"f$	c #BABABA",
"g$	c #242424",
"h$	c #666666",
"i$	c #6F6F6F",
"j$	c #E4E4E4",
"k$	c #CFCFCF",
"l$	c #999999",
"m$	c #B7B7B7",
"                                                                ",
"  xx                                                            ",
"  xx    % % % % % % % % % % % % % % % % % % % % % % % % % %     ",
"  xx    % % % % % % % % % % % % % % % % % % % % % % % % % %     ",
"  xx    % % % % % % % % % % % % % % % % % % % % % % % % % %     ",
"  xx    % % ( ( ( ( ( % % ) * + + + + + + * * ) % ) * + + +     ",
"  xx    * , - . 0 1 2 3 4 5 6 7 8 9 : ; < = > ? @ A B C D E     ",
"  xx    F G H I J K L M N O P Q R S T U V W X Y Z [ ] ^ _ `     ",
"  xx    a b c d e f g h i j k l m n o p q r s t u v w x y z     ",
"  xx    { | } ~     # $ % & ' ( ) * + , - . 0 1 2 3 4 5 6 7     ",
"  xx    8 9 : ; < = > ? @ A B C D E F G H I J K L M N O P Q     ",
"  xx    R S T U V W X Y Z [ ] ^ _ ` a b c d e f g h i j k l     ",
"  xx    % m n o p T q r s t u v w x y z { | } ~  # ###$#%#&#    ",
"  xx    % '#(#m r )#*#+#R ,#-#.#0#1#2#3#4#5#6#7#R 8#6#9#:#;#    ",
"  xx    % % ( ( ( ( % % % % ( ( ( ( ( ( ( ( % % % % ( ( ( (     ",
"  xx    % % % % % % % % % % % % % % % % % % % % % % % % % %     ",
"  xx    % % % % % % % % % % % % % % % % % % % % % % % % % %     ",
"  xx    % % % % % % % % % % % % ( ( ( ( % % <#=#>#?#@#A#* B#    ",
"  xx    % % % % % % % % % % ) '#C#D#E#*#'#) F#G#H#I#J#K#L#M#    ",
"  xx    % % % % % % % % % % * E#N#O#P#Q#R#'#S#T#U#V#W#X#Y#Z#    ",
"  xx    % % % % % % % % % % 8 [#]#^#_#`#a#b#c#d#e#f#g#h#i#j#    ",
"  xx    % % % % % % % % % % k#l#m#n#o#p#q#r#s#t#u#v#w#x#y#z#    ",
"  xx    % % % % % % % % % % {#|#}#~# $ $#$$$%$&$'$($)$*$+$,$    ",
"  xx    % % % % % % % % % % -$.$0$1$2$3$4$5$6$7$8$9$:$;$<$=$    ",
"  xx    % % % % % % % % % % >$?$@$A$B$C$D$E$F$G$H$I$J$K$L$M$    ",
"  xx    % % % % % % % % % % s N$O$P$Q$R$S$T$U$V$W$X$Y$Z$[$]$    ",
"  xx    % % % % % % % % % % % ^$^$_$_$`$^$% % a$b$b$c$d$d$e$    ",
"  xx    % % % % % % % % % % % % % % % % % % % ) ) ) ) ) ) )     ",
"  xx                                                            ",
"  xx                                                            ",
"  xxxxxxxxxxxxxxxxxxxxxxxxxxxxxxxxxxxxxxxxxxxxxxxxxxxxxxxxxxxx  ",
"                                                                "
};
