/* XPM */ 
static char * XPM_contours[] = {
"32 32 15 1",
" 	c None",
"!	c white",
"#	c #D8D8D8",
"$	c #9F9F9F",
"%	c black",
"&	c #A5A5A5",
"'	c #5A5A5A",
"(	c #BABABA",
")	c #242424",
"*	c #666666",
"+	c #6F6F6F",
",	c #E4E4E4",
"-	c #CFCFCF",
".	c #999999",
"0	c #B7B7B7",
"!!!!!!!!!!!!!!!!!!!!!!!!!!!!!!!!",
"!!!!!!!!!!!!!!!!!!!!!!!!!!!!!!!!",
"!#$!!!!!!%!!!!%!!!!%!!!!!!%!!!!!",
"!&'!!!!!%!!!!!%!!!!%!!!!!!!%!%!!",
"!&'!!!!%!!!!!!!%!!%!!!!!!!!!%!!!",
"!&'!!!!!%!!!!!!!%%!!!!!!!%%!!!!!",
"!&'!!!!!!%!!!!!!!!!!!!!!%!!%!!!!",
"!&'!!!!!!!%!!!!!!!!!!!!%!!!!%!!!",
"!&'!!!%%!!!%%%%%%%%%!!!%!!!!%!!!",
"!&'!!%!!%!!!!!!!!!!!%!!!%!!%!!!!",
"!&'!%!!!!%!!!!!!!!!!!%!!!%%!!%!!",
"!&'!%!!!!%!!!!!!!!!!!!%!!!!!%!!!",
"!&'!%!!!!%!!!!%%!!!!!!!%%%%%!!!!",
"!&'!!%!!%!!!!%!!%!!!!!!!!!!!!!!!",
"!&'!!!%%!!!!%!!!!%!!!!!!!!!!!!!!",
"!&'!!!!!!!!%!!%!!!%!!!!!!!!!!!!!",
"!&'!!!!!!!%!!%!%!!%!!!!!!!!!!%!!",
"!&'!!!!!!%!!%!!!%!%!!!!!!!!!%!!!",
"!&'!!!!!!%!!!%!%!!%!!!!!!!!%!!!!",
"!&'!!!!!!%!!!!%!!%!!!!!!!!!%%!!!",
"!&'!!!!!!%!!!!!!%!!!!!!!!!%!!%!!",
"!&'!!!!!!%!!!!!%!!!!!!!!!%!!!!!!",
"!&'!!!!!!%!!!!!%!!!!!!!!%!!!!!!!",
"!&'!!!!!!%!!!!!%!!!!!!!!%!!!!!!!",
"!&'!!!!!!%!!!!!%!!!!!!!!!%!!!!!!",
"!&'!!!!!!!%!!!%!!!!!!!!!!!%!!%!!",
"!&'!!!!!!!!%!%!!!!!!!!!!!!!%%!!!",
"!&'!!!!!!!!!%!!!!!!!!!!!!!!!!!!!",
"!&'!!!!!!!!!!!!!!!!!!!!!!!!!!!!!",
"!()**************************+,!",
"!!-..........................0!!",
"!!!!!!!!!!!!!!!!!!!!!!!!!!!!!!!!"};
