/* XPM */ 
static char * XPM_contours[] = {
"32 32 3 1",
" 	c None",
"x	c black",
"%	c #444444",
"                                ",
" x        %   %     %   %       ",
" x       %    %    %      %     ",
" x      %     %    %       % %  ",
" x     %       %  %         %   ",
" x      %       %%       %%     ",
" x       %              %  %    ",
" x        %            %    %   ",
" x    %%   %%%%%%%%%   %    %   ",
" x   %  %           %   %  %    ",
" x  %    %           %   %%  %  ",
" x  %    %            %     %   ",
" x  %    %    %%       %%%%%    ",
" x   %  %    %  %               ",
" x    %%    %    %              ",
" x         %  %   %             ",
" x        %  % %  %          %  ",
" x       %  %   % %         %   ",
" x       %   % %  %        %    ",
" x       %    %  %         %%   ",
" x       %      %         %  %  ",
" x       %     %         %      ",
" x       %     %        %       ",
" x       %     %        %       ",
" x       %     %         %      ",
" x        %   %           %  %  ",
" x         % %             %%   ",
" x          %                   ",
" x                              ",
" x                              ",
" xxxxxxxxxxxxxxxxxxxxxxxxxxxxxx ",
"                                "
};
