/* XPM */
static const char *cursor_zoom[] = {
/* columns rows colors chars-per-pixel */
"32 32 5 1",
"  c black",
". c #929292",
"X c #E1E1E1",
"o c gray100",
"O c None",
/* pixels */
" XOOOOOOOOOOOOOOOOOOOOOOOOOOOOOO",
"  XOOOOOOOOOOOOOOOOOOOOOOOOOOOOO",
" . XOOOOOOOOOOOOOOOOOOOOOOOOOOOO",
" o. XOOOOOOOOOOOOOOOOOOOOOOOOOOO",
" oo. XOOOOOOOOOOOOOOOOOOOOOOOOOO",
" ooo. XOOOOOOOOOOOOOOOOOOOOOOOOO",
" oooo. XOOOOOOOOOOOOOOOOOOOOOOOO",
" ooXXX. XOOOOOOOOOOOOOOOOOOOOOOO",
" oX      OOOOOOOOOOOOOOOOOOOOOOO",
" X   XOOOOOOOOOOOOOOOOOOOOOOOOOO",
"  X  .OOOOOOOOOOOOOOOOOOOOOOOOOO",
" XO.  OOOOOOOOOOOOOOOOOOOOOOOOOO",
"OOOO  .OOOOOOOOOOOOOOOOOOOOOOOOO",
"OOOO.  OOOOOOOOOOOOOOOOOOOOOOOOO",
"OOOOO  OOOOOOOOOOOOOOOOOOOOOOOOO",
"OOOOOOOOOOoooooooooooooooooOOOOO",
"OOOOOOOOOOo   o   o   o   oOOOOO",
"OOOOOOOOOOooooooooooooooo oOOOOO",
"OOOOOOOOOOo oOOOOOOOOOOOoooOOOOO",
"OOOOOOOOOOo oOOOOOOOOOOOo oOOOOO",
"OOOOOOOOOOo oOOOOOOOOOOOo oOOOOO",
"OOOOOOOOOOoooOOOOOOOOOOOo oOOOOO",
"OOOOOOOOOOo oooooooooooooooOOOOO",
"OOOOOOOOOOo   o   o   o   oOOOOO",
"OOOOOOOOOOoooooooooooooooooOOOOO",
"OOOOOOOOOOOOOOOOOOOOOOOOOOOOOOOO",
"OOOOOOOOOOOOOOOOOOOOOOOOOOOOOOOO",
"OOOOOOOOOOOOOOOOOOOOOOOOOOOOOOOO",
"OOOOOOOOOOOOOOOOOOOOOOOOOOOOOOOO",
"OOOOOOOOOOOOOOOOOOOOOOOOOOOOOOOO",
"OOOOOOOOOOOOOOOOOOOOOOOOOOOOOOOO",
"OOOOOOOOOOOOOOOOOOOOOOOOOOOOOOOO"
};
