/* XPM */
static const char *cursor_move[] = {
/* columns rows colors chars-per-pixel */
"32 32 7 1",
"  c black",
". c #929292",
"X c gray73",
"# c white",
"o c #E1E1E1",
"O c gray100",
"+ c None",
/* pixels */
" o++++++++++++++++++++++++++++++",
"  o+++++++++++++++++++++++++++++",
" . o++++++++++++++++++++++++++++",
" O. o+++++++++++++++++++++++++++",
" OO. o++++++++++++++++++++++++++",
" OOO. o+++++++++++++++++++++++++",
" OOOO. o++++++++++++++++++++++++",
" OOooo. o+++++++++++++++++++++++",
" Oo      +++++++++++++++++++++++",
" o   o++++++++++++++++++++++++++",
"  o  .++++++++++++++++++++++++++",
" o+.  +++++++++#++++++++++++++++",
"++++  .+++++++#X#+++++++++++++++",
"++++.  ++++++#. .#++++++++++++++",
"+++++  +++++#o   o#+++++++++++++",
"+++++++++++#### ####++++++++++++",
"++++++++++#o### ###o#+++++++++++",
"+++++++++#. ### ### .#++++++++++",
"++++++++#X           X#+++++++++",
"+++++++++#. ### ### .#++++++++++",
"++++++++++#o### ###o#+++++++++++",
"+++++++++++#### ####++++++++++++",
"++++++++++++#o   o#+++++++++++++",
"+++++++++++++#. .#++++++++++++++",
"++++++++++++++#X#+++++++++++++++",
"+++++++++++++++#++++++++++++++++",
"++++++++++++++++++++++++++++++++",
"++++++++++++++++++++++++++++++++",
"++++++++++++++++++++++++++++++++",
"++++++++++++++++++++++++++++++++",
"++++++++++++++++++++++++++++++++",
"++++++++++++++++++++++++++++++++"
};
