/* XPM */
static const char *elements[] = {
/* columns rows colors chars-per-pixel */
"32 32 4 1",
"  c black",
". c #7F807F807F80",
"X c gray100",
"o c None",
/* pixels */
"oooooooooooooooooooooooooooooooo",
"oooooooooooooooooooooooooooooooo",
"oooooooooooooooooooooooooo..oooo",
"oooooooooooooooooooooooooo..oooo",
"oooooooooooooooooooooooo......oo",
"oooooooooooooooooooooooo......oo",
"oooooooooooooooooooooooooo..oooo",
"oooooooooooooooooooooooooo..oooo",
"ooo..ooooooooooooooooooooooooooo",
"ooo..ooooooooooooooooo.ooooooooo",
"o......oooooooooooooo.oooooooooo",
"o......ooooooooooooo.ooooooooooo",
"ooo..ooooooooooooooooooooooooooo",
"ooo..ooo.ooooooo  oooooooooooooo",
"ooooooooo..ooooo  oooooooooooooo",
"ooooooooooo.oo      oooooooooooo",
"oooooooooooooo      oooooooooooo",
"oooooooooooooooo  oooooooooooooo",
"oooooooooooooooo  oooooooooooooo",
"oooooooooooooooooooooooooooooooo",
"oooooooooooooooooooo.ooooooooooo",
"oooooooooooooooooooo.ooooooooooo",
"ooooooooooooooooooooo.oooooooooo",
"ooooooooooooooooooooo.oooooooooo",
"oooooooooooooooooooooo.ooooooooo",
"ooooooooooooooooooooooooo..ooooo",
"ooooooooooooooooooooooooo..ooooo",
"ooooooooooooooooooooooo......ooo",
"ooooooooooooooooooooooo......ooo",
"ooooooooooooooooooooooooo..ooooo",
"ooooooooooooooooooooooooo..ooooo",
"oooooooooooooooooooooooooooooooo"
};
