/* XPM */
static const char *XPM_grid[] = {
/* columns rows colors chars-per-pixel */
"32 32 3 1",
"  c None",    
"x c black", 
". c #888888",
/* pixels */
"                                ",
" x    .      .      .      .    ",
" x    .      .      .      .    ",
" x............................. ",
" x    .      .      .      .    ",
" x    .      .      .      .    ",
" x    .      .      .      .    ",
" x    .      .      .      .    ",
" x    .      .      .      .    ",
" x    .      .      .      .    ",
" x............................. ",
" x    .      .      .      .    ",
" x    .      .      .      .    ",
" x    .      .      .      .    ",
" x    .      .      .      .    ",
" x    .      .      .      .    ",
" x    .      .      .      .    ",
" x............................. ",
" x    .      .      .      .    ",
" x    .      .      .      .    ",
" x    .      .      .      .    ",
" x    .      .      .      .    ",
" x    .      .      .      .    ",
" x    .      .      .      .    ",
" x............................. ",
" x    .      .      .      .    ",
" x    .      .      .      .    ",
" x    .      .      .      .    ",
" x    .      .      .      .    ",
" x    .      .      .      .    ",
" xxxxxxxxxxxxxxxxxxxxxxxxxxxxxx ",
"                                "
};

