/* XPM */
static const char *XPM_grid[] = {
/* columns rows colors chars-per-pixel */
"32 32 2 1",
"  c white",
". c black",
/* pixels */
"    .       .       .       .   ",
"    .       .       .       .   ",
"    .       .       .       .   ",
"    .       .       .       .   ",
"    .       .       .       .   ",
"................................",
"    .       .       .       .   ",
"    .       .       .       .   ",
"    .       .       .       .   ",
"    .       .       .       .   ",
"    .       .       .       .   ",
"    .       .       .       .   ",
"    .       .       .       .   ",
"................................",
"    .       .       .       .   ",
"    .       .       .       .   ",
"    .       .       .       .   ",
"    .       .       .       .   ",
"    .       .       .       .   ",
"    .       .       .       .   ",
"    .       .       .       .   ",
"................................",
"    .       .       .       .   ",
"    .       .       .       .   ",
"    .       .       .       .   ",
"    .       .       .       .   ",
"    .       .       .       .   ",
"    .       .       .       .   ",
"................................",
"    .       .       .       .   ",
"    .       .       .       .   ",
"    .       .       .       .   "
};

