/* XPM */
static const char *handclosed[] = {
/* columns rows colors chars-per-pixel */
"32 32 2 1",
"  c opaque",
". c white",
/* pixels */
"................................",
"................................",
"................................",
"................................",
"................................",
"................................",
"................................",
"................................",
"................................",
"................................",
"................................",
"............  .  ...............",
"........... .. ..   ............",
"........... .. .. ..  ..........",
"............ ....... . .........",
"..........   ......... .........",
"......... .. ......... .........",
"......... ............ .........",
".......... ........... .........",
".......... .......... ..........",
"........... ......... ..........",
"............ ....... ...........",
"............. ...... ...........",
".............        ...........",
"................................",
"................................",
"................................",
"................................",
"................................",
"................................",
"................................",
"................................"
};
