/* XPM */
static char *XPM_handclosed[]={
"32 32 3 1",
". c None",
"# c #000000",
"a c #ffffff",
"................................",
"................................",
"................................",
"................................",
"................................",
"................................",
"................................",
"................................",
"................................",
"................................",
"................................",
"............##.##...............",
"...........#aa#aa###............",
"...........#aa#aa#aa##..........",
"............#aaaaaaa#a#.........",
"..........###aaaaaaaaa#.........",
".........#aa#aaaaaaaaa#.........",
".........#aaaaaaaaaaaa#.........",
"..........#aaaaaaaaaaa#.........",
"..........#aaaaaaaaaa#..........",
"...........#aaaaaaaaa#..........",
"............#aaaaaaa#...........",
".............#aaaaaa#...........",
".............########...........",
"................................",
"................................",
"................................",
"................................",
"................................",
"................................",
"................................",
"................................"
};
