/* XPM */
static char *XPM_handopen[]={
"32 32 3 1",
". c None",
"# c #000000",
"a c #ffffff",
"................................",
"................................",
"................................",
"................................",
"................................",
"................................",
"................................",
"................................",
"...............##...............",
"...........##.#aa###............",
"..........#aa##aa#aa#...........",
"..........#aa##aa#aa#.#.........",
"...........#aa#aa#aa##a#........",
"...........#aa#aa#aa#aa#........",
".........##a#aaaaaaa#aa#........",
"........#aa##aaaaaaaaaa#........",
"........#aaa#aaaaaaaaa#.........",
".........#aaaaaaaaaaaa#.........",
"..........#aaaaaaaaaaa#.........",
"..........#aaaaaaaaaa#..........",
"...........#aaaaaaaaa#..........",
"............#aaaaaaa#...........",
".............#aaaaaa#...........",
".............########...........",
"................................",
"................................",
"................................",
"................................",
"................................",
"................................",
"................................",
"................................"
};
