/* XPM */
static const char *handopen[] = {
/* columns rows colors chars-per-pixel */
"32 32 2 1",
"  c opaque",
". c white",
/* pixels */
"................................",
"................................",
"................................",
"................................",
"................................",
"................................",
"................................",
"................................",
"...............  ...............",
"...........  . ..   ............",
".......... ..  .. .. ...........",
".......... ..  .. .. . .........",
"........... .. .. ..  . ........",
"........... .. .. .. .. ........",
".........  . ....... .. ........",
"........ ..  .......... ........",
"........ ... ......... .........",
"......... ............ .........",
".......... ........... .........",
".......... .......... ..........",
"........... ......... ..........",
"............ ....... ...........",
"............. ...... ...........",
".............        ...........",
"................................",
"................................",
"................................",
"................................",
"................................",
"................................",
"................................",
"................................"
};
