/* XPM */
static char *XPM_info[]={
"32 32 2 1",
"      c #FFFFFF",
"0     c #FF0000",
"                                ",
"                                ",
"                                ",
"             000000             ",
"            00000000            ",
"            00000000            ",
"            00000000            ",
"            00000000            ",
"             000000             ",
"                                ",
"                                ",
"                                ",
"          0000000000            ",
"            00000000            ",
"            00000000            ",
"            00000000            ",
"            00000000            ",
"            00000000            ",
"            00000000            ",
"            00000000            ",
"            00000000            ",
"            00000000            ",
"            00000000            ",
"            00000000            ",
"            00000000            ",
"            00000000            ",
"            00000000            ",
"            00000000            ",
"            00000000            ",
"          000000000000          ",
"                                ",
"                                "};
