/* XPM */
static char *inifileeditor[] = {
/* columns rows colors chars-per-pixel */
"64 64 181 2",
"   c #000000",
".  c #0E0E0E",
"X  c #100E03",
"o  c #151104",
"O  c #1C1705",
"+  c #1D1906",
"@  c #1E1C15",
"#  c #221D07",
"$  c #201D13",
"%  c #2E2609",
"&  c #2F2809",
"*  c #32290A",
"=  c #382F0B",
"-  c #3C320C",
";  c #232013",
":  c #23211A",
">  c #352E12",
",  c #312D1B",
"<  c #302E23",
"1  c #353227",
"2  c #3F3A26",
"3  c #3A372B",
"4  c #3F3A28",
"5  c #40360D",
"6  c #453A0E",
"7  c #4B3F0F",
"8  c #403A25",
"9  c #4C400F",
"0  c #4F4310",
"q  c #524510",
"w  c #574A17",
"e  c #5A4C12",
"r  c #584C1A",
"t  c #5F5013",
"y  c #635313",
"u  c #6B5B16",
"i  c #756217",
"p  c #796517",
"a  c #796618",
"s  c #7F6A19",
"d  c #574C20",
"f  c #524B2D",
"g  c #524C32",
"h  c #524D3C",
"j  c #76682E",
"k  c #766A39",
"l  c #575240",
"z  c #585341",
"x  c #6F6641",
"c  c #6B664F",
"v  c #7E744A",
"b  c #767057",
"n  c #7F7650",
"m  c #7C755A",
"M  c #826E1A",
"N  c #87711A",
"B  c #8C751B",
"V  c #8F791D",
"C  c #947C1D",
"Z  c #807548",
"A  c #9B821E",
"S  c #A0861F",
"D  c #9C8420",
"F  c #9C8528",
"G  c #A18720",
"H  c #A58A20",
"J  c #A98E21",
"K  c #AD9222",
"L  c #B29623",
"P  c #B79924",
"I  c #BA9C24",
"U  c #B09529",
"Y  c #B59929",
"T  c #BB9E2D",
"R  c #A48D30",
"E  c #B09837",
"W  c #BFA025",
"Q  c #C3A426",
"!  c #C9A927",
"~  c #C4A62F",
"^  c #CCAC28",
"/  c #D0AF29",
"(  c #D4B22A",
")  c #D8B52A",
"_  c #DDB92B",
"`  c #C2A635",
"'  c #CEAF35",
"]  c #CBAD39",
"[  c #D4B430",
"{  c #D2B43A",
"}  c #DAB93B",
"|  c #E2BE2C",
" . c #E0BE39",
".. c #E6C12D",
"X. c #EAC52E",
"o. c #EFC92F",
"O. c #F1CA2F",
"+. c #EDC837",
"@. c #E4C23B",
"#. c #E9C63A",
"$. c #EDC93E",
"%. c #F5CE30",
"&. c #F1CD3C",
"*. c #FED532",
"=. c #FFD739",
"-. c #FFD83C",
";. c #A49040",
":. c #B4A050",
">. c #B4A25C",
",. c #8F886A",
"<. c #9C9373",
"1. c #A29665",
"2. c #AF9F61",
"3. c #A29768",
"4. c #A29975",
"5. c #A49B78",
"6. c #A89F7D",
"7. c #AFA062",
"8. c #CAAF41",
"9. c #CEB346",
"0. c #D1B544",
"q. c #D9BD4A",
"w. c #D9BE53",
"e. c #C2B47E",
"r. c #DFC24E",
"t. c #DFC55B",
"y. c #E3C64F",
"u. c #ECCC4C",
"i. c #F6D240",
"p. c #FBD742",
"a. c #FFD943",
"s. c #F3D24C",
"d. c #F8D64C",
"f. c #FFDB4B",
"g. c #ECCD50",
"h. c #E3C85C",
"j. c #F5D450",
"k. c #F8D750",
"l. c #FFDD54",
"z. c #F2D45E",
"x. c #F7D85D",
"c. c #FFDE5B",
"v. c #DFCA78",
"b. c #E3C961",
"n. c #EACF62",
"m. c #EED262",
"M. c #EAD16E",
"N. c #F0D462",
"B. c #FDDE62",
"V. c #EED673",
"C. c #EED87F",
"Z. c #F4DB72",
"A. c #FADF70",
"S. c #F0D97D",
"D. c #FFE065",
"F. c #FFE26C",
"G. c #FFE375",
"H. c #FFE57C",
"J. c #B0A781",
"K. c #B4AA84",
"L. c #C2B580",
"P. c #C2B78B",
"I. c #DCCD94",
"U. c #D4C99C",
"Y. c #DCCF9D",
"T. c #F4DE85",
"R. c #F7E085",
"E. c #FFE686",
"W. c #FFE788",
"Q. c #FFE88C",
"!. c #FFEA94",
"~. c #FFEB9C",
"^. c #EFE0A4",
"/. c #EFE1AC",
"(. c #FFEDA4",
"). c #FFEEAC",
"_. c #FFEFB0",
"`. c #FCEFB9",
"'. c #FFF0B5",
"]. c #FFF1BA",
"[. c None",
/* pixels */
"[.[.[.[.[.[.[.[.[.[.[.[.[.[.[.[.[.[.[.[.[.[.[.[.[.[.[.[.[.[.[.[.[.[.[.[.[.[.[.[.[.[.[.[.[.[.[.[.[.[.[.[.[.[.[.[.[.[.[.[.[.[.[.[.",
"[.[.[.[.[.[.[.[.[.[.[.[.[.[.[.[.[.[.[.[.[.[.[.[.[.[.[.[.[.[.[.[.[.[.[.[.[.[.[.[.[.[.[.[.[.[.[.[.[.[.[.[.[.[.[.[.[.[.[.[.[.[.[.[.",
"[.[.[.[.[.[.[.[.[.[.[.[.[.[.[.[.[.[.[.[.[.[.[.[.[.                            [.[.[.[.[.[.[.[.[.[.[.[.[.[.[.[.[.[.[.[.[.[.[.[.[.",
"[.[.[.[.[.[.[.[.[.[.[.[.[.[.[.[.[.[.[.[.[.[.                                        [.[.[.[.[.[.[.[.[.[.[.[.[.[.[.[.[.[.[.[.[.[.",
"[.[.[.[.[.[.[.[.[.[.[.[.[.[.[.[.[.[.[.            : h m 4.P.Y.^.^.I.e.1.v f ;             [.[.[.[.[.[.[.[.[.[.[.[.[.[.[.[.[.[.[.",
"[.[.[.[.[.[.[.[.[.[.[.[.[.[.[.[.[.          1 b K./.'.'.'.'.'.).).(.(.~.!.W.V.:.j >           [.[.[.[.[.[.[.[.[.[.[.[.[.[.[.[.[.",
"[.[.[.[.[.[.[.[.[.[.[.[.[.[.[.[.        l 5./.].'.'.'.'._.).).).(.(.~.!.W.H.G.F.c.g.R w         [.[.[.[.[.[.[.[.[.[.[.[.[.[.[.[.",
"[.[.[.[.[.[.[.[.[.[.[.[.[.[.        z J.].].'.'.'.).).).).(.(.(.~.~.!.W.E.G.F.D.c.f.a.a.U e         [.[.[.[.[.[.[.[.[.[.[.[.[.[.",
"[.[.[.[.[.[.[.[.[.[.[.[.[.      3 <.`.].'.'.'.).).(.(.(.~.~.~.!.!.Q.E.H.G.F.D.c.l.f.a.-.=.*.D -       [.[.[.[.[.[.[.[.[.[.[.[.[.",
"[.[.[.[.[.[.[.[.[.[.[.[.      c U.].].'.'.).).(.(.~.~.~.~.~.!.!.Q.W.E.H.G.F.B.l.f.a.-.-.=.=.*.( u       [.[.[.[.[.[.[.[.[.[.[.[.",
"[.[.[.[.[.[.[.[.[.[.[..   @ ,.].].].'._.).(.(.~.~.~.~.~.~.!.!.Q.W.E.E.H.G.F.D.c.f.a.-.=.=.*.*.*.*.V +     [.[.[.[.[.[.[.[.[.[.[.",
"[.[.[.[.[.[.[.[.[.[..   < 6.].].].'.).).(.~.!.!.!.!.!.!.!.!.!.Q.W.E.E.H.H.G.F.D.c.a.=.=.*.*.*.*.*.*.J &     [.[.[.[.[.[.[.[.[.[.",
"[.[.[.[.[.[.[.[.[.    < K.].].].'.).(.~.!.Q.W.Q.Q.!.!.!.!.!.!.Q.Q.W.W.E.E.H.G.F.c.f.-.*.*.*.*.*.*.*.*.L &     [.[.[.[.[.[.[.[.[.",
"[.[.[.[.[.[.[.[.    @ 6.].].'.'.).(.~.!.Q.E.H.E.W.Q.!.~.~.~.!.!.!.!.!.Q.Q.Q.E.G.B.f.-.*.*.*.*.*.*.*.*.*.H O     [.[.[.[.[.[.[.[.",
"[.[.[.[.[.[.[.      ,.].].].'.).(.~.!.W.H.G.G.H.E.Q.!.n @ @ 4 2 2 2 2 2 2 2 W.G.D.l.a.*.*.*.*.*.*.*.*.*.%.N       [.[.[.[.[.[.[.",
"[.[.[.[.[.[.[.    c ].].].'.).(.~.!.W.H.G.D.F.G.H.W.!.                      W.G.D.l.a.*.*.*.*.*.*.*.*.*.%.O.y     [.[.[.[.[.[.[.",
"[.[.[.[.[.[.    3 U.].].'._.(.~.!.W.H.F.D.c.c.D.G.H.W.v x ,           , x v E.G.B.l.a.*.*.*.*.*.*.*.*.*.%.o.Q *     [.[.[.[.[.[.",
"[.[.[.[.[.      <.].].'._.).(.!.W.H.F.D.c.l.l.c.D.G.H.E.E.7.          2.E.H.H.F.c.f.-.*.*.*.*.*.*.*.*.*.%.o...N       [.[.[.[.[.",
"[.[.[.[.[.    z `.].].'.).(.~.Q.H.G.D.c.l.f.a.f.c.D.F.G.G.W.          W.G.F.F.B.l.a.*.*.*.*.*.*.*.*.*.*.%.o...) 6     [.[.[.[.[.",
"[.[.[.[.      J.].].'.).(.~.Q.E.G.D.c.l.f.a.-.a.f.l.c.D.G.W.          W.G.D.c.l.f.=.*.*.*.*.*.*.*.*.*.*.%.X.| ) B       [.[.[.[.",
"[.[.[.[.    l ].].'.'.).~.!.E.G.F.c.l.f.a.-.=.=.-.a.l.D.G.W.          W.G.D.l.a.=.*.*.*.*.*.*.*.*.*.*.%.%.X.| ) ! 5     [.[.[.[.",
"[.[.[.[.    5.].].'.).(.!.W.H.F.B.l.f.a.-.=.=.*.*.a.l.D.G.W.          W.G.D.l.a.*.*.*.*.*.*.*.*.*.*.*.%.O.X.| ) ! p     [.[.[.[.",
"[.[.[.    1 /.].'._.(.~.Q.E.G.D.c.f.a.-.=.=.*.*.*.a.l.D.G.W.          W.G.D.l.a.*.*.*.*.*.*.*.*.*.*.*.%.O.X.| ( ! K #     [.[.[.",
"[.[.[.    b ].'.'.).(.!.W.H.F.c.l.f.a.=.=.*.*.*.*.a.l.D.G.W.          W.G.D.l.a.*.*.*.*.*.*.*.*.*.*.*.%.O..._ ( Q P 0     [.[.[.",
"[.[.[.    K.].'.).(.~.Q.H.F.D.l.f.a.-.=.*.*.*.*.*.a.l.D.G.W.          W.G.D.l.a.*.*.*.*.*.*.*.*.*.*.*.%.o..._ / Q P p     [.[.[.",
"[.[.    : /.'._.).~.!.E.G.D.c.l.a.a.=.=.*.*.*.*.*.a.l.D.G.W.          W.G.D.l.a.*.*.*.*.*.*.*.*.*.*.*.%.o...) ^ Q L A o     [.[.",
"[.[.    h ].'.).(.~.W.H.F.B.l.f.a.-.=.*.*.*.*.*.*.a.l.D.G.W.          W.G.D.l.a.*.*.*.*.*.*.*.*.*.*.%.%.X.| ) ^ I L H *     [.[.",
"[.[.    m '._.).~.!.E.G.D.c.f.a.-.=.=.*.*.*.*.*.*.a.l.D.G.W.          W.G.D.l.a.*.*.*.*.*.*.*.*.*.*.%.O.X.| ( ! I K H 7     [.[.",
"[.[.    4.'.).(.~.W.H.F.c.l.f.a.=.=.*.*.*.*.*.*.*.a.l.D.G.W.          W.G.D.l.a.*.*.*.*.*.*.*.*.*.*.%.O..._ ( Q P K G y     [.[.",
"[.[.    P.'.).~.!.E.G.D.c.f.a.-.=.*.*.*.*.*.*.*.*.a.l.D.G.W.          W.G.D.l.a.*.*.*.*.*.*.*.*.*.*.%.o..._ ^ Q L J S i     [.[.",
"[.[.    Y.).(.~.Q.H.F.c.l.f.a.=.=.*.*.*.*.*.*.*.*.a.l.D.G.W.          W.G.D.l.a.*.*.*.*.*.*.*.*.*.%.%.X.| ) ^ W L H A M     [.[.",
"[.[.    ^.).(.!.E.G.D.c.f.a.-.=.=.*.*.*.*.*.*.*.*.a.l.D.G.W.          W.G.D.l.a.*.*.*.*.*.*.*.*.*.%.O.X.| ( ! I K H A B     [.[.",
"[.[.    ^.(.~.Q.H.G.B.l.f.a.=.=.*.*.*.*.*.*.*.*.*.a.l.D.G.W.          W.G.D.l.a.*.*.*.*.*.*.*.*.*.%.o..._ / Q P K G A B     [.[.",
"[.[.    I.(.!.W.H.F.c.f.a.-.=.=.*.*.*.*.*.*.*.*.*.a.l.D.G.W.          W.G.D.l.a.*.*.*.*.*.*.*.*.*.O.X.| ) ^ Q L J A C s     [.[.",
"[.[.    L.~.!.E.G.D.l.f.a.-.=.*.*.*.*.*.*.*.*.*.*.a.l.D.G.W.          W.G.D.l.a.*.*.*.*.*.*.*.*.%.o.X.| ( ! I K H A C u     [.[.",
"[.[.    3.~.Q.H.F.c.l.f.a.=.=.*.*.*.*.*.*.*.*.*.*.a.l.D.G.W.          W.G.D.l.a.*.*.*.*.*.*.*.*.%.o..._ ^ Q P J S A C e     [.[.",
"[.[.    v !.E.G.D.c.f.a.-.=.*.*.*.*.*.*.*.*.*.*.*.a.l.D.G.W.          W.G.D.l.a.*.*.*.*.*.*.*.%.O.X.| ) ^ I L H A C C 6     [.[.",
"[.[.    g Q.E.G.D.l.f.a.-.=.*.*.*.*.*.*.*.*.*.*.*.a.l.D.G.W.          W.G.D.l.a.*.*.*.*.*.*.*.%.o..._ ( Q I K H A C C &     [.[.",
"[.[.    ; C.H.F.c.l.f.-.=.=.*.*.*.*.*.*.*.*.*.*.*.a.l.D.G.W.          W.G.D.l.a.*.*.*.*.*.*.%.O.X.| ) ^ Q L J A A C N o     [.[.",
"[.[.[.    >.G.D.c.f.a.-.=.*.*.*.*.*.*.*.*.*.*.*.*.a.l.D.G.W.          W.G.D.l.a.*.*.*.*.*.*.%.o..._ ( ! I K H A C C y     [.[.[.",
"[.[.[.    k F.B.l.f.a.-.=.*.*.*.*.*.*.*.*.*.*.*.*.a.l.D.G.W.          W.G.D.l.a.*.*.*.*.*.%.o.X.| ) ^ Q L J S A C C 6     [.[.[.",
"[.[.[.    , m.c.l.f.a.-.=.*.*.*.*.*.*.*.*.*.*.*.*.a.l.D.G.W.          W.G.D.l.a.*.*.*.*.%.%.X.| _ / Q I K H A C C N +     [.[.[.",
"[.[.[.[.    ;.c.f.a.-.=.=.*.*.*.*.*.*.*.*.*.*.*.*.a.l.D.G.W.          W.G.D.l.a.*.*.*.%.%.o..._ ( ! W L J S A C C e     [.[.[.[.",
"[.[.[.[.    d l.f.a.-.=.*.*.*.*.*.*.*.*.*.*.*.*.*.a.l.D.G.W.          W.G.D.l.a.*.*.*.%.o.X.| ) ^ Q P K H A C C C *     [.[.[.[.",
"[.[.[.[.      E f.a.-.=.*.*.*.*.*.*.*.*.*.*.*.=.a.f.l.D.G.W.          W.G.D.l.f.p.*.%.O.X.| _ / Q I L H A A C C y       [.[.[.[.",
"[.[.[.[.[.    r p.-.=.=.*.*.*.*.*.*.*.*.*.*.*.a.f.c.c.D.G.W.          E.G.B.B.c.d.i.%.X..._ ( ! W L J S A C C V *     [.[.[.[.[.",
"[.[.[.[.[.      F -.=.=.*.*.*.*.*.*.*.*.*.*.=.f.c.D.G.G.G.v.          v.G.G.G.B.x.s.+..._ ( ! W P K G A C C C e       [.[.[.[.[.",
"[.[.[.[.[.[.    - [ =.*.*.*.*.*.*.*.*.*.*.*.-.f.c.G.H.E.E.Z           v E.E.H.A.z.u.#._ ( ^ Q P K H A A C C p #     [.[.[.[.[.[.",
"[.[.[.[.[.[.[.    u =.*.*.*.*.*.*.*.*.*.*.*.a.l.D.G.E.$ ,                   R.Z.N.g.@.( ^ Q P K H A A C C C -     [.[.[.[.[.[.[.",
"[.[.[.[.[.[.[.      V *.*.*.*.*.*.*.*.*.*.*.a.l.D.G.E.$ 8 $ $ 8 2 2 2       T.Z.n.y.} ^ Q I K J A A C C C q       [.[.[.[.[.[.[.",
"[.[.[.[.[.[.[.[.    + J *.*.*.*.*.*.*.*.*.*.-.f.c.G.H.E.E.E.E.E.E.R.R.R.R.T.S.M.h.q.' Q P K J G A C C C y X     [.[.[.[.[.[.[.[.",
"[.[.[.[.[.[.[.[.[.    * L *.*.*.*.*.*.*.*.*.=.f.c.B.G.G.G.G.G.A.A.A.Z.Z.Z.V.M.b.w.0.~ P K J S A C C C y O     [.[.[.[.[.[.[.[.[.",
"[.[.[.[.[.[.[.[.[.[.    * J *.*.*.*.*.*.*.*.*.-.f.l.c.B.B.B.B.x.x.z.z.m.n.b.t.w.9.` P K H S A C C C y O     [.[.[.[.[.[.[.[.[.[.",
"[.[.[.[.[.[.[.[.[.[.[.    + V *.*.*.*.*.*.*.*.*.-.d.d.k.d.j.j.s.u.u.u.y.r.q.0.8.` Y K H A A C C C q X     [.[.[.[.[.[.[.[.[.[.[.",
"[.[.[.[.[.[.[.[.[.[.[.[.      u / *.*.*.%.%.%.%.%.&.&.&.&.$.$.#.@. .} } { ] ` T L J H A A C C a -       [.[.[.[.[.[.[.[.[.[.[.[.",
"[.[.[.[.[.[.[.[.[.[.[.[.[.      = C O.O.O.O.o.o.X.X.X.X.....| _ ) ( ^ ! Q I L K J G A C C C e #       [.[.[.[.[.[.[.[.[.[.[.[.[.",
"[.[.[.[.[.[.[.[.[.[.[.[.[.[.        q G X.X.....| | | _ _ ) ) ( ^ ! Q I P L J H A A C C y *         [.[.[.[.[.[.[.[.[.[.[.[.[.[.",
"[.[.[.[.[.[.[.[.[.[.[.[.[.[.[.[.        9 V ^ _ ) ) ( ( / ^ ! Q Q I P L K H S A A B t *         [.[.[.[.[.[.[.[.[.[.[.[.[.[.[.[.",
"[.[.[.[.[.[.[.[.[.[.[.[.[.[.[.[.[.          % t C I ! Q Q Q I I L L K J G A V u 6 +           [.[.[.[.[.[.[.[.[.[.[.[.[.[.[.[.[.",
"[.[.[.[.[.[.[.[.[.[.[.[.[.[.[.[.[.[.[.            O - e i N A G A V a y 7 * o             [.[.[.[.[.[.[.[.[.[.[.[.[.[.[.[.[.[.[.",
"[.[.[.[.[.[.[.[.[.[.[.[.[.[.[.[.[.[.[.[.[.[.                                        [.[.[.[.[.[.[.[.[.[.[.[.[.[.[.[.[.[.[.[.[.[.",
"[.[.[.[.[.[.[.[.[.[.[.[.[.[.[.[.[.[.[.[.[.[.[.[.[.                            [.[.[.[.[.[.[.[.[.[.[.[.[.[.[.[.[.[.[.[.[.[.[.[.[.",
"[.[.[.[.[.[.[.[.[.[.[.[.[.[.[.[.[.[.[.[.[.[.[.[.[.[.[.[.[.[.[.[.[.[.[.[.[.[.[.[.[.[.[.[.[.[.[.[.[.[.[.[.[.[.[.[.[.[.[.[.[.[.[.[.",
"[.[.[.[.[.[.[.[.[.[.[.[.[.[.[.[.[.[.[.[.[.[.[.[.[.[.[.[.[.[.[.[.[.[.[.[.[.[.[.[.[.[.[.[.[.[.[.[.[.[.[.[.[.[.[.[.[.[.[.[.[.[.[.[."
};
