/* XPM */
static char *inifileeditor[] = {
/* columns rows colors chars-per-pixel */
"64 64 130 2",
"   c black",
".  c #010100",
"X  c #050501",
"o  c #060501",
"O  c #070601",
"+  c #040404",
"@  c #080601",
"#  c gray4",
"$  c #0B0B0B",
"%  c #1D1806",
"&  c #1F1A06",
"*  c gray8",
"=  c #1E1E1E",
"-  c #201B06",
";  c #201B07",
":  c #231D07",
">  c #302809",
",  c #30290D",
"<  c #30290F",
"1  c #352C0A",
"2  c #302B1B",
"3  c #3A310B",
"4  c #3F350C",
"5  c #272727",
"6  c gray18",
"7  c #313131",
"8  c gray20",
"9  c #373737",
"0  c gray23",
"q  c #40360D",
"w  c #40381B",
"e  c #403C2D",
"r  c #403E36",
"t  c #524510",
"y  c #574911",
"u  c #584A11",
"i  c #4A4638",
"p  c #6B5A15",
"a  c #6F5E18",
"s  c #766317",
"d  c #7C6818",
"f  c #7F6B19",
"g  c #6F6023",
"h  c #7F6E28",
"j  c gray38",
"k  c #656565",
"l  c #806B19",
"z  c #8F781C",
"x  c #807C6B",
"c  c #9C831F",
"v  c #A28820",
"b  c #A48A20",
"n  c #A88D21",
"m  c #B09423",
"M  c #B49723",
"N  c #898573",
"B  c #A59349",
"V  c #AF9C52",
"C  c #B69F45",
"Z  c #B9A44D",
"A  c #AFA169",
"S  c #C2A326",
"D  c #D4B22A",
"F  c #DCB92B",
"G  c #DFBB2C",
"H  c #EEC82F",
"J  c #EFC92F",
"K  c #FCD331",
"L  c #FFD632",
"P  c #FFD735",
"I  c #FFD737",
"U  c #FFD83A",
"Y  c #FFD942",
"T  c #FFDA47",
"R  c #FFDB49",
"E  c #FFDB4C",
"W  c #FFDC51",
"Q  c #FFDC52",
"!  c #FFDD54",
"~  c #FFDD55",
"^  c #FFDD56",
"/  c #FFDD57",
"(  c #FFDE59",
")  c #FFDE5A",
"_  c #FFDE5B",
"`  c #FFDF61",
"'  c #FFE167",
"]  c #FFE371",
"[  c #FFE57E",
"{  c #FFE57F",
"}  c gray60",
"|  c #9F9F9F",
" . c #A3A092",
".. c #ACA99D",
"X. c gray63",
"o. c #DFD3A1",
"O. c #DCD1A6",
"+. c #DFD8BB",
"@. c #E1D5A7",
"#. c #FFE88E",
"$. c #FFE991",
"%. c #FFE993",
"&. c #FFEA97",
"*. c #FFEA98",
"=. c #FFEB99",
"-. c #FFEB9B",
";. c #FFEC9E",
":. c #FFEC9F",
">. c #FFECA0",
",. c #FFEDA7",
"<. c #FFEEA9",
"1. c #FFEFAD",
"2. c #FFEFB0",
"3. c #FFF0B2",
"4. c #FFF1B7",
"5. c #FFF1BB",
"6. c #FFF2BF",
"7. c gray81",
"8. c gray86",
"9. c #FFF3C3",
"0. c #FFF3C4",
"q. c #FFF4C9",
"w. c #FFF4CA",
"e. c #FFF5CB",
"r. c #FFF5CC",
"t. c #FFF5CD",
"y. c #FFF7D6",
"u. c #F3F3F3",
"i. c gray100",
"p. c None",
/* pixels */
"p.p.p.p.p.p.p.p.p.p.p.p.p.p.p.p.p.p.p.p.p.p.p.p.p.p.p.p.p.p.p.p.p.p.p.p.p.p.p.p.p.p.p.p.p.p.p.p.p.p.p.p.p.p.p.p.p.p.p.p.p.p.p.p.",
"p.p.p.p.p.p.p.p.p.p.p.p.p.p.p.p.p.p.p.p.p.p.p.p.p.p.p.p.p.p.p.p.p.p.p.p.p.p.p.p.p.p.p.p.p.p.p.p.p.p.p.p.p.p.p.p.p.p.p.p.p.p.p.p.",
"p.p.p.p.p.p.p.p.p.p.p.p.p.p.p.p.p.p.p.p.p.p.p.p.                                p.p.p.p.p.p.p.p.p.p.p.p.p.p.p.p.p.p.p.p.p.p.p.p.",
"p.p.p.p.p.p.p.p.p.p.p.p.p.p.p.p.p.p.p.p.p.                                            p.p.p.p.p.p.p.p.p.p.p.p.p.p.p.p.p.p.p.p.p.",
"p.p.p.p.p.p.p.p.p.p.p.p.p.p.p.p.p.p.              : t d v S F J J F S v d t :               p.p.p.p.p.p.p.p.p.p.p.p.p.p.p.p.p.p.",
"p.p.p.p.p.p.p.p.p.p.p.p.p.p.p.p.p.          1 s M J L L L L L L L L L L L L J M s 1           p.p.p.p.p.p.p.p.p.p.p.p.p.p.p.p.p.",
"p.p.p.p.p.p.p.p.p.p.p.p.p.p.p.        O y b J L L L L L L L L L L L L L L L L L L J b y O         p.p.p.p.p.p.p.p.p.p.p.p.p.p.p.",
"p.p.p.p.p.p.p.p.p.p.p.p.p.          u m L L L L L L L L L L L L L L L L L L L L L L L L m u           p.p.p.p.p.p.p.p.p.p.p.p.p.",
"p.p.p.p.p.p.p.p.p.p.p.p.        3 c L L L L L L L L L L L L L L L L L L L L L L L L L L L K c 3         p.p.p.p.p.p.p.p.p.p.p.p.",
"p.p.p.p.p.p.p.p.p.p.p.        p D L L L L L L L L L L L L L L L L L L L L L L L L L L L L L L D p         p.p.p.p.p.p.p.p.p.p.p.",
"p.p.p.p.p.p.p.p.p.p.      % z L L L L L L L L L L L L L L L L L L L L L L L L L L L L L L L L L L z %       p.p.p.p.p.p.p.p.p.p.",
"p.p.p.p.p.p.p.p.p.      > n L L L L L L L L L L L L L L L L L L L L L L L L L L L L L L L L L L L L n >       p.p.p.p.p.p.p.p.p.",
"p.p.p.p.p.p.p.p.      > M L L L L L L L L L L L L L L L L L L L L L L L L L L L L L L L L L L L L L L M >       p.p.p.p.p.p.p.p.",
"p.p.p.p.p.p.p.      % n L L L L L L L L L L L L L L L L L L L L L L L L L L L L L L L L L L L L L L L L n %       p.p.p.p.p.p.p.",
"p.p.p.p.p.p.p.      z L L L L L L L L L L L L L L L L f % : 4 4 4 4 4 4 4 4 L L L L L L L L L L L L L L L z       p.p.p.p.p.p.p.",
"p.p.p.p.p.p.      p L L L L L L L L L L L L L L L L L                       L L L L L L L L L L L L L L L L p       p.p.p.p.p.p.",
"p.p.p.p.p.p.    3 D L L L L L L L L L L L L L L L L L d a ,           , g h Q R U L L L L L L L L L L L L L D 3     p.p.p.p.p.p.",
"p.p.p.p.p.      c L L L L L L L L L L L L L L L L L L L T V           A =.=.=.[ E L L L L L L L L L L L L L L c       p.p.p.p.p.",
"p.p.p.p.      u K L L L L L L L L L L L L L L L L L L L Q %.          t.w.0.5.&.! L L L L L L L L L L L L L L L u       p.p.p.p.",
"p.p.p.p.    O m L L L L L L L L L L L L L L L L L L L L T ]           y.w.1.#.] T L L L L L L L L L L L L L L L m O     p.p.p.p.",
"p.p.p.p.    y L L L L L L L L L L L L L L L L L L L L L I Y           y.5.[ Q Y I L L L L L L L L L L L L L L L L y     p.p.p.p.",
"p.p.p.      b L L L L L L L L L L L L L L L L L L L L L L L           y.2.` I L L L L L L L L L L L L L L L L L L b       p.p.p.",
"p.p.p.    1 J L L L L L L L L L L L L L L L L L L L L L L L           y.1._ L L L L L L L L L L L L L L L L L L L J 1     p.p.p.",
"p.p.p.    s L L L L L L L L L L L L L L L L L L L L L L L L           y.1._ L L L L L L L L L L L L L L L L L L L L s     p.p.p.",
"p.p.      M L L L L L L L L L L L L L L L L L L L L L L L L           y.1._ L L L L L L L L L L L L L L L L L L L L M       p.p.",
"p.p.    : J L L L L L L L L L L L L L L L L L L L L L L L L           y.1._ L L L L L L L L L L L L L L L L L L L L J :     p.p.",
"p.p.    t L L L L L L L L L L L L L L L L L L L L L L L L L           y.1._ L L L L L L L L L L L L L L L L L L L L L t     p.p.",
"p.p.    d L L L L L L L L L L L L L L L L L L L L L L L L L           y.1._ L L L L L L L L L L L L L L L L L L L L L d     p.p.",
"p.p.    v L L L L L L L L L L L L L L L L L L L L L L L L L           y.1._ L L L L L L L L L L L L L L L L L L L L L v     p.p.",
"p.p.    S L L L L L L L L L L L L L L L L L L L L L L L L L           y.1._ L L L L L L L L L L L L L L L L L L L L L S     p.p.",
"p.p.    F L L L L L L L L L L L L L L L L L L L L L L L L L           y.1._ L L L L L L L L L L L L L L L L L L L L L F     p.p.",
"p.p.    J L L L L L L L L L L L L L L L L L L L L L L L L L           y.1._ L L L L L L L L L L L L L L L L L L L L L J     p.p.",
"p.p.    J L L L L L L L L L L L L L L L L L L L L L L L L L           y.1._ L L L L L L L L L L L L L L L L L L L L L J     p.p.",
"p.p.    F L L L L L L L L L L L L L L L L L L L L L L L L L           y.1._ L L L L L L L L L L L L L L L L L L L L L F     p.p.",
"p.p.    S L L L L L L L L L L L L L L L L L L L L L L L L L           y.1._ L L L L L L L L L L L L L L L L L L L L L S     p.p.",
"p.p.    v L L L L L L L L L L L L L L L L L L L L L L L L L           y.1._ L L L L L L L L L L L L L L L L L L L L L v     p.p.",
"p.p.    d L L L L L L L L L L L L L L L L L L L L L L L L L           y.1._ L L L L L L L L L L L L L L L L L L L L L d     p.p.",
"p.p.    t L L L L L L L L L L L L L L L L L L L L L L L L L           y.1._ L L L L L L L L L L L L L L L L L L L L L t     p.p.",
"p.p.    : J L L L L L L L L L L L L L L L L L L L L L L L L           y.1._ L L L L L L L L L L L L L L L L L L L L J :     p.p.",
"p.p.      M L L L L L L L L L L L L L L L L L L L L L L L L           y.1._ L L L L L L L L L L L L L L L L L L L L M       p.p.",
"p.p.p.    s L L L L L L L L L L L L L L L L L L L L L L L L           y.1._ L L L L L L L L L L L L L L L L L L L L s     p.p.p.",
"p.p.p.    1 J L L L L L L L L L L L L L L L L L L L L L L L           y.1._ L L L L L L L L L L L L L L L L L L L J 1     p.p.p.",
"p.p.p.      b L L L L L L L L L L L L L L L L L L L L L L L           y.1._ L L L L L L L L L L L L L L L L L L L b       p.p.p.",
"p.p.p.p.    y L L L L L L L L L L L L L L L L L L L L L L L           y.1._ L L L L L L L L L L L L L L L L L L L y     p.p.p.p.",
"p.p.p.p.    O m L L L L L L L L L L L L L L L L L L L L L L           y.1._ L L L L L L L L L L L L L L L L L L m O     p.p.p.p.",
"p.p.p.p.      u L L L L L L L L L L L L L L L L L L L L L L           y.1._ L L L L L L L L L L L L L L L L L K u       p.p.p.p.",
"p.p.p.p.p.      c L L L L L L L L L L L L L L L L L L L L G           +.1._ L L L L L L L L L L L L L L L L L c       p.p.p.p.p.",
"p.p.p.p.p.p.    3 D L L L L L L L L L L L L L L L L L L L l           x 1._ L L L L L L L L L L L L L L L L D 3     p.p.p.p.p.p.",
"p.p.p.p.p.p.      @                                   - >                                                   O       p.p.p.p.p.p.",
"p.p.p.p.p.p.p.                                        - q ; ; w e r r                                     O       p.p.p.p.p.p.p.",
"p.p.p.p.p.p.p.    + 2 C _ _ _ _ _ _ _ _ _ _ _ _ _ _ _ _ _ ! _ #.9.y.y.y.9.%.' _ _ _ _ _ _ _ _ _ _ _ _ _ Z i 8 0 u.i.i.p.p.p.p.p.",
"p.p.p.p.p.p.p.p.  # 8 N o.1.1.1.1.1.1.1.1.1.1.1.1.1.1.1.<.>.>.5.w.t.t.w.w.6.3.1.1.1.1.1.1.1.1.1.1.1.1.@...} X.8.i.i.i.p.p.p.p.p.",
"p.p.p.p.p.p.p.p.p.# 5 j  .O.1.1.1.1.1.1.1.1.1.1.1.1.1.1.<.;.&.>.>.;.&.&.;.,.1.1.1.1.1.1.1.1.1.1.1.1.O...} | 7.i.i.i.i.p.p.p.p.p.",
"p.p.p.p.p.p.p.p.p.p.* = 6 i B _ _ _ _ _ _ _ _ _ _ _ _ _ _ ! ! ! ! Q Q Q Q _ _ _ _ _ _ _ _ _ _ _ _ B i 8 9 k i.i.i.i.p.p.p.p.p.p.",
"p.p.p.p.p.p.p.p.p.p.p.        p D L L L L L L L L L L L L L L L L L L L L L L L L L L L L L L D p         p.p.p.p.p.p.p.p.p.p.p.",
"p.p.p.p.p.p.p.p.p.p.p.p.        3 c K L L L L L L L L L L L L L L L L L L L L L L L L L L K c 3         p.p.p.p.p.p.p.p.p.p.p.p.",
"p.p.p.p.p.p.p.p.p.p.p.p.p.          u m L L L L L L L L L L L L L L L L L L L L L L L L m u           p.p.p.p.p.p.p.p.p.p.p.p.p.",
"p.p.p.p.p.p.p.p.p.p.p.p.p.p.p.        O y b J L L L L L L L L L L L L L L L L L L J b y O         p.p.p.p.p.p.p.p.p.p.p.p.p.p.p.",
"p.p.p.p.p.p.p.p.p.p.p.p.p.p.p.p.p.          1 s M J L L L L L L L L L L L L J M s 1           p.p.p.p.p.p.p.p.p.p.p.p.p.p.p.p.p.",
"p.p.p.p.p.p.p.p.p.p.p.p.p.p.p.p.p.p.              : t d v S F J J F S v d t :               p.p.p.p.p.p.p.p.p.p.p.p.p.p.p.p.p.p.",
"p.p.p.p.p.p.p.p.p.p.p.p.p.p.p.p.p.p.p.p.p.                                            p.p.p.p.p.p.p.p.p.p.p.p.p.p.p.p.p.p.p.p.p.",
"p.p.p.p.p.p.p.p.p.p.p.p.p.p.p.p.p.p.p.p.p.p.p.p.                                p.p.p.p.p.p.p.p.p.p.p.p.p.p.p.p.p.p.p.p.p.p.p.p.",
"p.p.p.p.p.p.p.p.p.p.p.p.p.p.p.p.p.p.p.p.p.p.p.p.p.p.p.p.p.p.p.p.p.p.p.p.p.p.p.p.p.p.p.p.p.p.p.p.p.p.p.p.p.p.p.p.p.p.p.p.p.p.p.p.",
"p.p.p.p.p.p.p.p.p.p.p.p.p.p.p.p.p.p.p.p.p.p.p.p.p.p.p.p.p.p.p.p.p.p.p.p.p.p.p.p.p.p.p.p.p.p.p.p.p.p.p.p.p.p.p.p.p.p.p.p.p.p.p.p."
};
