/* XPM */
static char *inifileeditor[] = {
/* columns rows colors chars-per-pixel */
"32 32 94 2",
"   c black",
".  c #AE9222",
"X  c #B09423",
"o  c #B49723",
"O  c #B69924",
"+  c #B89A24",
"@  c #BA9C24",
"#  c #BB9D25",
"$  c #BC9E25",
"%  c #BFA025",
"&  c #C1A226",
"*  c #C3A426",
"=  c #CBAA28",
"-  c #CDAC28",
";  c #CEAD28",
":  c #CFAE29",
">  c #D1AF29",
",  c #D2B029",
"<  c #D4B22A",
"1  c #D7B42A",
"2  c #D8B52A",
"3  c #DAB72B",
"4  c #DBB82B",
"5  c #DCB92B",
"6  c #DFBB2C",
"7  c #E0BC2C",
"8  c #E1BD2C",
"9  c #E2BE2C",
"0  c #E3BF2D",
"q  c #E5C02D",
"w  c #E7C22D",
"e  c #E8C32D",
"r  c #EAC42E",
"t  c #ECC62E",
"y  c #EEC82F",
"u  c #EFC92F",
"i  c #F1CA2F",
"p  c #F3CC30",
"a  c #F4CD30",
"s  c #F5CE30",
"d  c #F6CE30",
"f  c #F7CF30",
"g  c #FAD231",
"h  c #FBD331",
"j  c #FCD331",
"k  c #FDD432",
"l  c #FED532",
"z  c #FFD632",
"x  c #AEAEAE",
"c  c gray69",
"v  c #B4B4B4",
"b  c #B6B6B6",
"n  c gray72",
"m  c gray73",
"M  c #BBBBBB",
"N  c #BCBCBC",
"B  c #C1C1C1",
"V  c #C5C5C5",
"C  c #CBCBCB",
"Z  c gray80",
"A  c #CDCDCD",
"S  c #CECECE",
"D  c gray81",
"F  c gray82",
"G  c #D2D2D2",
"H  c gray83",
"J  c gray86",
"K  c #DFDFDF",
"L  c #FFF7D6",
"P  c gray88",
"I  c #E1E1E1",
"U  c #E2E2E2",
"Y  c gray89",
"T  c gray90",
"R  c gray91",
"E  c #EAEAEA",
"W  c #ECECEC",
"Q  c #EEEEEE",
"!  c #EFEFEF",
"~  c #F1F1F1",
"^  c gray95",
"/  c #F3F3F3",
"(  c #F4F4F4",
")  c gray96",
"_  c #F6F6F6",
"`  c gray97",
"'  c #F8F8F8",
"]  c #F9F9F9",
"[  c gray98",
"{  c #FBFBFB",
"}  c gray99",
"|  c #FDFDFD",
" . c #FEFEFE",
".. c gray100",
/* pixels */
"                                                                ",
"  ............................................................  ",
"  ......................                ......................  ",
"  ..................                        ..................  ",
"  ..............          . O . o O ;           ..............  ",
"  ............        . O O , ; > 5 3 1 =         ............  ",
"  ..........      . O O , , 3 q q q 9 6 3 1 ;       ..........  ",
"  ........      . $ > , 5 r s l l l i t 6 6 6 q       ....] ..  ",
"  ......      . $ , 5 r s l l l z z l h i y y r 6       / ` ]   ",
"  ......    $ & , 6 p l z z         z z l l i i i l     Q ] ]   ",
"  ....      * 2 6 s l l z z         z z z l l l l l       ` `   ",
"  ....    $ & 2 y l l l   z z     L L   z z l l z s l     Q ]   ",
"  ..      * 1 6 s l z     z z     L L     z z l z z l       Q   ",
"  ..    $ & 2 y l l     z L z     L z z     z l z z i l     D   ",
"  ..    ; 3 6 s l     z L L z     L z z L     z l z l z     D   ",
"  ..    ; 6 i l     z L L z z     L z z z L     l z l l     D   ",
"  ..    , q i l z     L z z z     L z z z     L z z z z     D   ",
"  ..    1 i i l z L     z z z     L z z     z L L z z z     D   ",
"  ..    y g g l z z L     z z     L z     z L L z z z z     D   ",
"  ..      i i l z z z L   z z     L z   z L L z z z z       V   ",
"  ` ..    y g s l l z z L L z     L z z L L z z l l l     N B   ",
"                        z L         z z                         ",
"                        z z         z z                         ",
"  ......C C D L L L L L L z z L L L L z z L L L L D C D / _ ] D ",
"  ....] ] D C D L L L L L z z L L L L z z L L L C C D Q / ` { D ",
"  ..] Q R Y       l l z z z z z z z z z z l l       c N G P /   ",
"  ....` / R P         l z z z z z z z z z         c N G K / ..  ",
"  ....] ` / R Y           z z z z z z           c N G P / ....  ",
"  ......] ` / P G D                         x b m G K / ......  ",
"  ........] / Y P K G D                 x m m D G K / ........  ",
"  ............/ R P K K D c b b c b b b m D G J R ` ..........  ",
"                                                                "
};
