/* XPM */
static const char *XPM_lines[] = {
/* columns rows colors chars-per-pixel */
"32 32 46 1",
"  c #FF0003",
". c #FF0004",
"X c #FF0005",
"o c #FF0006",
"O c #FF0007",
"+ c #FF1212",
"@ c #FF1818",
"# c #FF1B1B",
"$ c #FF2424",
"% c #FF2727",
"& c #FF3636",
"* c #FF3939",
"= c #FF4242",
"- c #FF4545",
"; c #FF5151",
": c #FF5454",
"> c #FF5A5A",
", c #FF6666",
"< c #FF6969",
"1 c #FF6F6F",
"2 c #FF7272",
"3 c #FF7E7E",
"4 c #FF8181",
"5 c #FF8A8A",
"6 c #FF8D8D",
"7 c #FF9999",
"8 c #FF9F9F",
"9 c #FFA2A2",
"0 c #FFA5A5",
"q c #FFABAB",
"w c #FFAEAE",
"e c #FFB7B7",
"r c #FFBABA",
"t c #FFBDBD",
"y c #FFC0C0",
"u c #FFCFCF",
"i c #FFD8D8",
"p c #FFDBDB",
"a c #FFE1E1",
"s c #FFE4E4",
"d c #FFE7E7",
"f c #FFF3F3",
"g c #FFF6F6",
"h c #FFF9F9",
"j c #FFFCFC",
"k c gray100",
/* pixels */
"kkkkkkkkkkkkkkkkkkkkkkkkkkkkkkkk",
"kkkkkkkkkkkkkkkkkkkkkkkkkkkkkkkk",
"ki8kkkkkkkkkkkkkkkkkkkkkkkkkkkkk",
"k0>kkkkkkkkkkkkkkkkkkkkkkkkkkkkk",
"k0>kkkkkkkkkkkkkkkkkkkkkkkkkkkkk",
"k0>kkOkkkkkkkkkkkkkkkkkkkkkkkkkk",
"k0>kOOOkkkkkkkkkkkkkkkkkkkkkkkkk",
"k0>kkO%,hkkkkkkkkkkkkkkkkkOkkkkk",
"k0>kkkf:&akkkkkkkkkkkkkku OOkkkk",
"k0>kkkkk6@tkkkkkkkkkkg9*$6Okkkkk",
"k0>kkkkkky#5kkkkkkki2+;rkkkkkkkk",
"k0>kkkkkkks*;fkkkq=@3dkkkkkkkkkk",
"k0>kkkkkkkkh<%O4@-wkkkkkkkkkkkkk",
"k0>kkkkkkkkkkO  ikkkkkkkkkkkkkkk",
"k0>kkkkkkkkkkkOkkkkkkkkkkkkkkkkk",
"k0>kkkkkkkkkkkkkkkkkkkkkkkkkkkkk",
"k0>kkkkkkkkkkkkkkkkkkkkkkkkkkkkk",
"k0>kkkkkkkkkkkkkkkkkkkkkkkkkkkkk",
"k0>kkkkkkkkkkkkkkkkkkkkkkkkkkkkk",
"k0>kkkkkkkkkkkkkkkkkkkkkkkkkkkkk",
"k0>kkkkkkkkkkkkkkkkkkkkkkkkkkkkk",
"k0>kkkkkkkkkkkkkkkkkkkkkkkkkkkkk",
"k0>kkkkkkkkkkkkkkkkkkkkkkkkkkkkk",
"k0>kkkkkkkkkkkkkkkkkkkkkkkkkkkkk",
"k0>kkkkkkkkkkkkkkkkkkkkkkkkkkkkk",
"k0>kkkkkkkkkkkkkkkkkkkkkkkkkkkkk",
"k0>kkkkkkkkkkkkkkkkkkkkkkkkkkkkk",
"k0>kkkkkkkkkkkkkkkkkkkkkkkkkkkkk",
"k0>kkkkkkkkkkkkkkkkkkkkkkkkkkkkk",
"kr%,,,,,,,,,,,,,,,,,,,,,,,,,,1ak",
"kku77777777777777777777777777ekk",
"kkkkkkkkkkkkkkkkkkkkkkkkkkkkkkkk"
};
