/* XPM */
static const char *XPM_log[] = {
/* columns rows colors chars-per-pixel */
"32 32 3 1",
"x c black",
". c red",
"  c None",
/* pixels */
"                                ",
" x                              ",
" x                              ",
" x                              ",
" x                              ",
" x                              ",
" x                              ",
" x                              ",
" x                              ",
" x                              ",
" x                              ",
" x                              ",
" x                              ",
" x                              ",
" x                              ",
" x                              ",
" x                              ",
" x                              ",
" x                      ......  ",
" x                ......        ",
" x            ....              ",
" x         ...                  ",
" x      ...                     ",
" x    ..                        ",
" x   .                          ",
" x  .                           ",
" x .                            ",
" x .                            ",
" x.                             ",
" x.                             ",
" xxxxxxxxxxxxxxxxxxxxxxxxxxxxxx ",
"                                "
};
