/* XPM */
static const char *XPM_noAction[] = {
/* columns rows colors chars-per-pixel */
"32 32 2 1",
"  c black",
". c gray100",
/* pixels */
"................................",
"................................",
"................................",
"................................",
"................................",
"......... ......................",
".........  .....................",
"......... . ....................",
"......... .. ...................",
"......... ... ..................",
"......... .... .................",
"......... ..... ................",
"......... ...... ...............",
"......... ....... ..............",
"......... ........ .............",
"......... ......... ............",
"......... ......     ...........",
"......... ... .. ...............",
"......... ..  .. ...............",
"......... . .. .. ..............",
".........  ... .. ..............",
"......... ..... .. .............",
"............... .. .............",
"................ .. ............",
"................ .. ............",
".................  .............",
"................................",
"................................",
"................................",
"................................",
"................................",
"................................"
};
