/* XPM */
static const char *numbers[]={
"32 32 2 1",
". c None",
"# c #000000",
"................................",
"................................",
"................................",
"................................",
"............#...................",
"...........##...................",
"..........#.#...................",
".......#....#...................",
"......###...#...................",
".......#....#...................",
"............#...................",
"................................",
"................................",
"................................",
"................................",
"................................",
"................................",
"................................",
"................................",
".........##.............##......",
"........#..#...........#..#.....",
".....#.....#........#.....#.....",
"....###..##........###...#......",
".....#.....#........#....#......",
"........#..#............#.......",
".........##............####.....",
"................................",
"................................",
"................................",
"................................",
"................................",
"................................"};
