/* XPM */
static char * open_xpm[] = {
"32 32 5 1",
" 	c None",
".	c #58A8FF",
"+	c #0080FF",
"@	c #FFFFFF",
"#	c #000000",
"                                ",
"   ........++++++++++++++++     ",
"   ........+..............+     ",
"   ........+..............+     ",
"   ........+..............+     ",
"   ........+.....+....+...+     ",
"   ........+.....++++++...+     ",
"   ........+..............+     ",
"   ........+.......@@@@@@@@@@@@ ",
"   ........+......@@@@@@@@@@@@@ ",
"   ........+......@@@@@@@@@@@@@ ",
"   ........+.....@@@@@@@@@@@@@@ ",
"   ........+#####@@@@@@@@@@@@@  ",
"   ........+#####@@@@@@@@@@@@@  ",
"   ........+####@@@@@@@@@@@@@   ",
"   ........+####@@@@@@@@@@@@@   ",
"   ........+####@@@@@@@@@@@@@   ",
"   ........+....................",
"   ........+....................",
"   ........+....................",
"   ........+....................",
"   ........+....................",
"   ........+.......+....+.......",
"   ........+.......++++++.......",
"   ........+....................",
"   ........+....................",
"   ........+....................",
"   ........+....................",
"    .......+....................",
"        ...+....................",
"           +..                  ",
"                                "};
