/* XPM */
static const char *XPM_peaks[] = {
/* columns rows colors chars-per-pixel */
"32 32 27 1",
"  c gray14",
". c #5A5A5A",
"X c gray40",
"o c #686565",
"O c #6D6162",
"+ c #6F6F6F",
"@ c #FF0007",
"# c #FF0F16",
"$ c #FF1E24",
"% c #FF3F44",
"& c #FF575C",
"* c #FF7579",
"= c gray60",
"- c #9F9F9F",
"; c #A5A5A5",
": c #B7B7B7",
"> c gray73",
", c gray81",
"< c #D8D8D8",
"1 c #E4E4E4",
"2 c #FFE1E2",
"3 c #FFEDED",
"4 c #FFF0F0",
"5 c #FFF6F6",
"6 c #FFF9F9",
"7 c #FFFCFC",
"8 c gray100",
/* pixels */
"88888888888888888888888888888888",
"88888888888888888888888888888888",
"8<-88888888888888888888888888888",
"8;.88888888888888888888888888888",
"8;.88888888888888888888888888888",
"8;.88@88888888888888888888888888",
"8;.8@@@8888888888888888888888888",
"8;.88@58888888888888888888@88888",
"8;.88#4888888888888888888@@@8888",
"8;.88#48888888888888888885@88888",
"8;.88#48888888888888888884#88888",
"8;.88#48888888888888888884#88888",
"8;.88#48888888@88888888884#88888",
"8;.88#4888888@@@8888888884#88888",
"8;.88#48888888@38888888884#88888",
"8;.88#48888888$28888888884#88888",
"8;.88#48888888$28888888884#88888",
"8;.88#48888888$28888888884#88888",
"8;.88#48888888$28888888884#88888",
"8;.88#48888888$28888888884#88888",
"8;.88#48888888$28888888884#88888",
"8;.88#48888888$28888888884#88888",
"8;.88#38888888$28888888884#88888",
"8;.88#48888888$28888888884#88888",
"8;.88#48888888$28888888884#88888",
"8;.88#48888888$28888888884#88888",
"8;.88#48888888$28888888884#88888",
"8;.88#48888888$28888888884#88888",
"8;.88#48888888*68888888888&88888",
"8> XXOXXXXXXXXXXXXXXXXXXXXoXX+18",
"88,==========================:88",
"88888888888888888888888888888888"
};
