/* XPM */
static const char *XPM_percentage[] = {
/* columns rows colors chars-per-pixel */
"32 32 3 1",
"x c black",
". c red",
"  c None",
/* pixels */
"                                ",
" x                            . ",
" x                           .  ",
" x                          .   ",
" x                         .    ",
" x                        .     ",
" x   xxxxx            xx .      ",
" x  xxx xxx          xx .       ",
" x xxx   xxx        xx .        ",
" xxxxx   xxxx       xx.         ",
" xxxxx   xxxx      xx.          ",
" xxxxx   xxxx     xx.           ",
" xxxxx   xxxx     xx            ",
" xxxxx   xxxx    xx             ",
" x xxx   xxx    xxx             ",
" x  xxx xxx     xx     xxxxx    ",
" x   xxxxx     xx     xxx xxx   ",
" x            .xx    xxx   xxx  ",
" x           .xx    xxxx   xxxx ",
" x          .xx     xxxx   xxxx ",
" x         . xx     xxxx   xxxx ",
" x        . xx      xxxx   xxxx ",
" x       . xx       xxxx   xxxx ",
" x      .  xx        xxx   xxx  ",
" x     .  xx          xxx xxx   ",
" x    .  xx            xxxxx    ",
" x   .                          ",
" x  .                           ",
" x .                            ",
" x.                             ",
" xxxxxxxxxxxxxxxxxxxxxxxxxxxxxx ",
"                                "
};
