/* XPM */
static const char *XPM_percentage[] = {
/* columns rows colors chars-per-pixel */
"32 32 2 1",
"x c black",
"  c None",
/* pixels */
"                                ",
"                                ",
"                                ",
"                                ",
"                                ",
"                                ",
"     xxxxx            xx        ",
"    xxx xxx          xx         ",
"   xxx   xxx        xx          ",
"  xxxx   xxxx       xx          ",
"  xxxx   xxxx      xx           ",
"  xxxx   xxxx     xx            ",
"  xxxx   xxxx     xx            ",
"  xxxx   xxxx    xx             ",
"   xxx   xxx    xxx             ",
"    xxx xxx     xx     xxxxx    ",
"     xxxxx     xx     xxx xxx   ",
"               xx    xxx   xxx  ",
"              xx    xxxx   xxxx ",
"             xx     xxxx   xxxx ",
"             xx     xxxx   xxxx ",
"            xx      xxxx   xxxx ",
"           xx       xxxx   xxxx ",
"           xx        xxx   xxx  ",
"          xx          xxx xxx   ",
"         xx            xxxxx    ",
"                                ",
"                                ",
"                                ",
"                                ",
"                                ",
"                                "
};
