/* XPM */
static char *XPM_points[]={
"32 32 3 1",
"x c black",                                   
". c red",                                   
"  c None",                                   
/* pixels */                                   
"                                ",                                   
" x                              ",                                   
" x                              ",                                   
" x                              ",                                   
" x                              ",                                   
" x   .                          ",                                   
" x  ...                         ",                                   
" x   .                    .     ",                                   
" x                       ...    ",                                   
" x                        .     ",                                   
" x                              ",                                   
" x                              ",                                   
" x            .                 ",                                   
" x           ...                ",                                   
" x            .                 ",                                   
" x                              ",                                   
" x                              ",                                   
" x                              ",                                   
" x                              ",                                   
" x                              ",                                   
" x                              ",                                   
" x                              ",                                   
" x                              ",                                   
" x                              ",                                   
" x                              ",                                   
" x                              ",                                   
" x                              ",                                   
" x                              ",                                   
" x                              ",                                   
" x                              ",                                   
" xxxxxxxxxxxxxxxxxxxxxxxxxxtuv  ",                                   
"                                "                      
};
