/* XPM */
static const char *XPM_points[] = {
/* columns rows colors chars-per-pixel */
"32 32 14 1",
"  c gray14",
". c #5A5A5A",
"X c gray40",
"o c #6F6F6F",
"O c #FF0007",
"+ c gray60",
"@ c #9F9F9F",
"# c #A5A5A5",
"$ c #B7B7B7",
"% c gray73",
"& c gray81",
"* c #D8D8D8",
"= c #E4E4E4",
"- c gray100",
/* pixels */
"--------------------------------",
"--------------------------------",
"-*@-----------------------------",
"-#.-----------------------------",
"-#.-----------------------------",
"-#.--O--------------------------",
"-#.-OOO-------------------------",
"-#.--O--------------------O-----",
"-#.----------------------OOO----",
"-#.-----------------------O-----",
"-#.-----------------------------",
"-#.-----------------------------",
"-#.-----------O-----------------",
"-#.----------OOO----------------",
"-#.-----------O-----------------",
"-#.-----------------------------",
"-#.-----------------------------",
"-#.-----------------------------",
"-#.-----------------------------",
"-#.-----------------------------",
"-#.-----------------------------",
"-#.-----------------------------",
"-#.-----------------------------",
"-#.-----------------------------",
"-#.-----------------------------",
"-#.-----------------------------",
"-#.-----------------------------",
"-#.-----------------------------",
"-#.-----------------------------",
"-% XXXXXXXXXXXXXXXXXXXXXXXXXXo=-",
"--&++++++++++++++++++++++++++$--",
"--------------------------------"
};

