/* XPM */
static char *XPM_print[]={
"32 32 8 1",
". c None",
"# c #000000",
"c c #0000ff",
"b c #303030",
"d c #808080",
"e c #c0c0c0",
"f c #ff0000",
"a c #ffffff",
"................................",
"................................",
"................................",
".............################...",
".............#aaaaaaaaaaaaaa#...",
".............#aaaaaaaaaaaaaa#...",
".............baccccccccccaab....",
"............#aaaaaaaaaaaaaa#....",
"...........#aaccccccccccaa#.....",
"..........#aaaaaaaaaaaaaa#......",
"..........badcccccccccdab.......",
".........#aaaaaaaaaaaaaa#.......",
".........#aaccccccccccaa#.......",
".....#####aaaaaaaaaaaaaa########",
"....#eeee################deeead#",
"...#eeeeeeeeeeeeeeeeeeeeeeeeadd#",
"..#aaaaaaaaaaaaaaaaaaaaaaaaaddd#",
"..#aeeeeeeeeeeeeeeeeeeeeeeeeddd#",
"..#aeeeeeeeeeeeeeeeeeeffffeeddd#",
"..#aeeeeeeeeeeeeeeeeeeeeeeeeddd#",
"..#aeeeeeeeeeeeeeeeeeeeeeeeeddd#",
"..#aeeeeeeeeeeeeeeeeeeeeeeeeddd#",
"..#aeeeeeeeeeeeeeeeeeeeeeeeedd#.",
"..#deeeeeeeeeeeeeeeeeeeeeeeed#..",
"...#dddddddddddddddddddddddd##..",
"....########################d#..",
".....#ddddddddddddddddddddddd#..",
".....#aeeeeeeeeeeeeeeeeeeeedd#..",
".....#aeeeeeeeeeeeeeeeeeeeedd#..",
".....#aeeeeeeeeeeeeeeeeeeeed#...",
".....#ddddddddddddddddddddd#....",
".....######################....."};
