/* XPM */
static const char *XPM_print[] = {
/* columns rows colors chars-per-pixel */
"32 32 6 1",
"  c black",
". c blue",
"X c red",
"o c #808080",
"O c #C0C0C0",
"+ c gray100",
/* pixels */
"oooooooooooooooooooooooooooooooo",
"oooooooooooooooooooooooooooooooo",
"oooooooooooooooooooooooooooooooo",
"ooooooooooooo                ooo",
"ooooooooooooo ++++++++++++++ ooo",
"ooooooooooooo ++++++++++++++ ooo",
"oooooooooooooo+..........++ooooo",
"oooooooooooo ++++++++++++++ oooo",
"ooooooooooo ++..........++ ooooo",
"oooooooooo ++++++++++++++ oooooo",
"ooooooooooo+o.........o+oooooooo",
"ooooooooo ++++++++++++++ ooooooo",
"ooooooooo ++..........++ ooooooo",
"ooooo     ++++++++++++++        ",
"oooo OOOO                oOOO+o ",
"ooo OOOOOOOOOOOOOOOOOOOOOOOO+oo ",
"oo +++++++++++++++++++++++++ooo ",
"oo +OOOOOOOOOOOOOOOOOOOOOOOOooo ",
"oo +OOOOOOOOOOOOOOOOOOXXXXOOooo ",
"oo +OOOOOOOOOOOOOOOOOOOOOOOOooo ",
"oo +OOOOOOOOOOOOOOOOOOOOOOOOooo ",
"oo +OOOOOOOOOOOOOOOOOOOOOOOOooo ",
"oo +OOOOOOOOOOOOOOOOOOOOOOOOoo o",
"oo oOOOOOOOOOOOOOOOOOOOOOOOOo oo",
"ooo oooooooooooooooooooooooo  oo",
"oooo                        o oo",
"ooooo ooooooooooooooooooooooo oo",
"ooooo +OOOOOOOOOOOOOOOOOOOOoo oo",
"ooooo +OOOOOOOOOOOOOOOOOOOOoo oo",
"ooooo +OOOOOOOOOOOOOOOOOOOOo ooo",
"ooooo ooooooooooooooooooooo oooo",
"ooooo                      ooooo"
};

