/* XPM */ 
static char* XPM_reset_zoom[] = {
"32 32 8 1",
" 	c None",
"!	c white",
"#	c #D0D0D0",
"$	c #A0A0A0",
"%	c black",
"&	c #E8E8E8",
"'	c #A0FFA0",
"(	c #A0D0A0",
"                                ",
"                                ",
"        #$$$$#            %     ",
"      $$&&&&&&$$         %%%    ",
"     $&&&$$$$&&&$       %%%%%   ",
"    $&&$$    $$&&$     %%%%%%%  ",
"   $&&$        $&&$       %     ",
"   $#$   $      $&$       %     ",
"  ###$  $ $     $&&$      %     ",
"  $#$  $  $      $&$      %     ",
"  $#$ $  $       $&$      %     ",
"  $#$ $ $        $&$      %     ",
"  $#$  $         $&$      %     ",
"  $#$            $&$      %     ",
"  ###$          $&&$      %     ",
"   $#$          $#$       %     ",
"   $##$        $##$    %%%%%%%  ",
"    $##$$    $$##$$     %%%%%   ",
"     $###$$$$###$#&$#    %%%    ",
"      $$######$$$##&'#    %     ",
"        #$$$$#   $((''#         ",
"                 $(((''#        ",
"                  $(((''#       ",
"                   $(((''#      ",
"     %          %   $(((''#     ",
"    %%          %%   $(((''#    ",
"   %%%          %%%   $(((''    ",
"  %%%%%%%%%%%%%%%%%%   $((($    ",
"   %%%          %%%     $$$     ",
"    %%          %%              ",
"     %          %               ",
"                                "};
