/* XPM */
static char *XPM_reset_zoom[]={
"32 32 12 1",
"b c None",
". c None",
"c c #000000",
"j c #00c000",
"i c #00ff00",
"a c #303030",
"g c #808080",
"# c #a0a0a0",
"d c #c3c3c3",
"h c #dcdcdc",
"e c #e8e8e8",
"f c #ffffff",
"................................",
"................................",
"........#aaaa#b...........c.....",
"......aadeeeeeaa.........ccc....",
".....adddaaaaeeea.......ccccc...",
"....addaaffffaaeea.....ccccccc..",
"...addaffffffffaeea.......c.....",
"...adafff#ffffffaea.......c.....",
"..gggaff#.#fffffaeha......c.....",
"..agaff#..#ffffffada......c.....",
"..agaf#..#fffffffada......c.....",
"..agaf#.#ffffffffada......c.....",
"..agaff#fffffffffada......c.....",
"..agaffffffffffffada......c.....",
"..gggaffffffffffadda......c.....",
"...agaffffffffffaga.......c.....",
"...aggaffffffffagga....ccccccc..",
"....aggaaffffaaggaa.....ccccc...",
".....agggaaaagggage#g....ccc....",
"......aaggggggaaaggeig....c.....",
"........gaaaag...ajjiig.........",
".................ajjjiig........",
"..................ajjjiig.......",
"...................ajjjiig......",
".....c..........c...ajjjiig.....",
"....cc..........cc...ajjjiig....",
"...ccc..........ccc...ajjjii....",
"..cccccccccccccccccc...ajjja....",
"...ccc..........ccc.....aaa.....",
"....cc..........cc..............",
".....c..........c...............",
"................................"};
