/* XPM */
static char * saveas_xpm[] = {
"32 32 7 1",
" 	c None",
".	c #FF0000",
"+	c #FFFFFF",
"@	c #000000",
"#	c #0000C0",
"$	c #C0FFC0",
"%	c #808080",
"................................",
"....++++++++++++++++++++++.+....",
"...++++++++++++++++++++++++++...",
"...+++++++++++++++++++++++++++..",
"..+++@@+++++++++++++++++++++++..",
"..+@@@++@++@@+#+++++++++++++++..",
"..+@@+++@@@@+++$++++@+++++@+++..",
"..++@@+++@@++++$$$++++++++++++..",
"..+@@@@@+@++++++$$#@@+@@@@@+++..",
"..+@+++@+@++@+++$##+@+@+@+@+++..",
"..+++++++++++++++###++@+@+@+++..",
"..++++++++++++++++###+++++++++..",
"..+++++++++++++++++###++++++++..",
"..+++++++++++++++++####+++++++..",
"...+++++++++++++++++####++++....",
".....................####.......",
".......................###......",
"........................####....",
".........................####...",
"..........................###...",
".......%%%%%%%%%%%%%%%%%%..##...",
".......%%%%%%%%%%%%%%%%%%.......",
".......%%%%%%%%%%%%%%%%%%.......",
".......%%%%..........%%%%.......",
".......%%%%..........%%%%.......",
".......%%%%..........%%%%.......",
".......%%%%..........%%%%.......",
".......%%%%..........%%%%.......",
".......%%%%..........%%%%.......",
".......%%%%..........%%%%.......",
".......%%%%..........%%%%.......",
".......%%%%%%%%%%%%%%%%%%......."};
