/* XPM */
static char *XPM_select[]={
"32 32 3 1",
". c None",
"# c #000000",
"a c #ffffff",
"................................",
"................................",
"................................",
"................................",
"................................",
".........#......................",
".........##.....................",
".........#a#....................",
".........#aa#...................",
".........#aaa#..................",
".........#aaaa#.................",
".........#aaaaa#................",
".........#aaaaaa#...............",
".........#aaaaaaa#..............",
".........#aaaaaaaa#.............",
".........#aaaaaaaaa#............",
".........#aaaaaa#####...........",
".........#aaa#aa#...............",
".........#aa##aa#...............",
".........#a#..#aa#..............",
".........##...#aa#..............",
".........#.....#aa#.............",
"...............#aa#.............",
"................#aa#............",
"................#aa#............",
".................##.............",
"................................",
"................................",
"................................",
"................................",
"................................",
"................................"};
