/* XPM */
static char *XPM_snap[]={
"32 32 24 1",
"  c None", 
". c red", 
"x c black", 
"g c #000000",
"p c #008000",
"o c #00ff00",
"u c #242424",
"v c #585858",
"c c #5a5a5a",
"f c #808080",
"a c #9f9f9f",
"b c #a5a5a5",
"t c #bababa",
"j c #c0c0c0",
"w c #cfcfcf",
"# c #d8d8d8",
"d c #ff0007",
"h c #ff0f16",
"q c #ff3f44",
"s c #ff7579",
"l c #ffe1e2",
"n c #ffeded",
"r c #fff9f9",
"k c #ffffff",
"                                ",
" x                              ",
" x                              ",
" x                              ",
" x                              ",
" x   .                          ",
" x  ...                         ",
" x   .       fggggf       .     ",
" x   .     ggjkkkkkgg    ...    ",
" x   .    gjjjggggkkkg    .     ",
" x   .   gjjggkkkkggkkg   .     ",
" x   .  gjjgkkkkkkkkgkkg  .     ",
" x   .  gfgkkkgkkkkkkgkg  .     ",
" x   . fffgkkgdgkkkkkgkkg .     ",
" x   . gfgkkgkdgkkkkkkgjg .     ",
" x   . gfgkgkkgikkkkkkgjg .     ",
" x   . gfgkgkgmikkkkkkgjg .     ",
" x   . gfgkkgkmikkkkkkgjg .     ",
" x   . gfgkkkkmikkkkkkgjg .     ",
" x   . fffgkkkmikkkkkgjjg .     ",
" x   .  gfgkkkmikkkkkgfg  .     ",
" x   .  gffgkkmikkkkgffg  .     ",
" x   .   gffggmikkggffgg  .     ",
" x   .    gfffggggfffgfjgf.     ",
" x   .     ggffffffgggffjof     ",
" x   .       fggggf   gppoof    ",
" x   .        .       gpppoof   ",
" x   .        .        gpppoof  ",
" x   .        .         gpppoof ",
" x   .        .          gpppoof",
" xxxxxxxxxxxxxxxxxxxxxxxxxgpppoo",
"                           gpppo"
};
