/* XPM */ 
static const char * XPM_snap[] = {
"32 32 27 1",
" 	c white",
"!	c none",	 
"#	c #D8D8D8",	 
"$	c #9F9F9F",	 
"%	c #A5A5A5",	 
"&	c #5A5A5A",	 
"'	c #FF0007",	 
"(	c #FFF6F6",	 
")	c #808080",	 
"*	c black",	 
"+	c #FF0F16",	 
",	c #FFF0F0",	 
"-	c #C0C0C0",	 
".	c #FFE1E2",	 
"0	c #FF1E24",	 
"1	c #FFEDED",	 
"2	c #00FF00",	 
"3	c #008000",	 
"4	c #FF3F44",	 
"5	c #FFF9F9",	 
"6	c #FF7579",	 
"7	c #BABABA",	 
"8	c #242424",	 
"9	c #666666",	 
":	c #6D6162",	 
";	c #CFCFCF",	 
"<	c #999999",	 
"!!!!!!!!!!!!!!!!!!!!!!!!!!!!!!!!",
"!!!!!!!!!!!!!!!!!!!!!!!!!!!!!!!!",
"!#$!!!!!!!!!!!!!!!!!!!!!!!!!!!!!",
"!%&!!!!!!!!!!!!!!!!!!!!!!!!!!!!!",
"!%&!!!!!!!!!!!!!!!!!!!!!!!!!!!!!",
"!%&!!'!!!!!!!!!!!!!!!!!!!!!!!!!!",
"!%&!'''!!!!!!!!!!!!!!!!!!!!!!!!!",
"!%&!!'(!!!!!!)****)!!!!!!!'!!!!!",
"!%&!!+,!!!!**-     **!!!!'''!!!!",
"!%&!!+,!!!*---****   *!!!('!!!!!",
"!%&!!+,!!*--**!!!!**  *!!,+!!!!!",
"!%&!!+,!*--*!!!!!!!!*  *!,+!!!!!",
"!%&!!+,!*)*!!!*!!!!!!* *!,+!!!!!",
"!%&!!+,)))*!!*'*!!!!!*  *,+!!!!!",
"!%&!!+,*)*!!*!'*!!!!!!*-*,+!!!!!",
"!%&!!+,*)*!*!!*.!!!!!!*-*,+!!!!!",
"!%&!!+,*)*!*!*0.!!!!!!*-*,+!!!!!",
"!%&!!+,*)*!!*!0.!!!!!!*-*,+!!!!!",
"!%&!!+,*)*!!!!0.!!!!!!*-*,+!!!!!",
"!%&!!+,)))*!!!0.!!!!!*--*,+!!!!!",
"!%&!!+,!*)*!!!0.!!!!!*)*!,+!!!!!",
"!%&!!+,!*))*!!0.!!!!*))*!,+!!!!!",
"!%&!!+1!!*))**0.!!**))**!,+!!!!!",
"!%&!!+,!!!*)))****)))*)-*)+!!!!!",
"!%&!!+,!!!!**))))))***))-2)!!!!!",
"!%&!!+,!!!!!!)****)!!!*3322)!!!!",
"!%&!!+,!!!!!!!0.!!!!!!*33322)!!!",
"!%&!!+,!!!!!!!0.!!!!!!!*33322)!!",
"!%&!!45!!!!!!!65!!!!!!!!*33322)!",
"!7899:9999999999999999999*33322)",
"!!;<<<<<<<<<<<<<<<<<<<<<<<*33322",
"!!!!!!!!!!!!!!!!!!!!!!!!!!!*3332"};
