<?xml version="1.0" encoding="UTF-8" standalone="no"?>
<!-- Created with Inkscape (http://www.inkscape.org/) -->
<svg
   xmlns:svg="http://www.w3.org/2000/svg"
   xmlns="http://www.w3.org/2000/svg"
   version="1.0"
   width="600"
   height="600"
   id="svg1931">
  <defs
     id="defs1933" />
  <g
     id="layer1">
    <g
       transform="matrix(1.024827,0,0,1.024827,2.800107,-162.1289)"
       id="g3715">
      <path
         d="M 181.10184,743.44678 L 179.34895,743.44678 L 176.2814,743.00855 L 172.77562,742.13211 L 169.70807,741.25567 L 166.64052,739.941 L 164.01118,738.18811 L 161.38185,735.997 L 4.9366117,579.55176 L 2.7455019,576.92243 L 0.99261404,574.2931 L -0.32205186,571.22554 L -2.0749397,565.09044 L -2.5131617,561.58466 L -2.5131617,340.28257 L -2.0749397,337.21501 L -1.1984958,333.70924 L -0.32205186,330.64168 L 0.99261404,328.01235 L 2.7455019,324.9448 L 4.9366117,322.31547 L 6.2512776,321.44633 L 160.50541,167.19219 L 161.38185,165.87753 L 166.64052,162.37175 L 169.70807,160.61886 L 172.77562,159.74242 L 176.2814,158.86598 L 179.34895,158.42775 L 400.65105,158.42775 L 403.7186,158.86598 L 407.22438,159.74242 L 410.29193,160.61886 L 412.92126,162.37175 L 415.98881,164.12464 L 418.61815,165.87753 L 419.49459,167.19219 L 573.74872,321.44633 L 575.06339,322.31547 L 577.2545,324.9448 L 579.00739,328.01235 L 580.32205,330.64168 L 581.1985,333.70924 L 582.06764,337.21501 L 582.50586,340.28257 L 582.50586,561.58466 L 582.06764,565.09044 L 580.32205,571.22554 L 579.00739,574.2931 L 577.2545,576.92243 L 575.06339,579.55176 L 418.61815,735.997 L 415.98881,738.18811 L 412.92126,739.941 L 410.29193,741.25567 L 407.22438,742.13211 L 403.7186,743.00855 L 400.65105,743.44678 L 181.10184,743.44678"
         style="fill:#fffefe;fill-rule:evenodd;stroke:none"
         id="path32" />
      <path
         d="M 181.10184,743.44678 L 179.34895,743.44678 M 179.34895,743.44678 L 176.2814,743.00855 M 176.2814,743.00855 L 172.77562,742.13211 M 172.77562,742.13211 L 169.70807,741.25567 M 169.70807,741.25567 L 166.64052,739.941 M 166.64052,739.941 L 164.01118,738.18811 M 164.01118,738.18811 L 161.38185,735.997 M 161.38185,735.997 L 160.50541,735.12056 L 6.2512776,580.86643 L 4.9366117,579.55176 M 4.9366117,579.55176 L 2.7455019,576.92243 M 2.7455019,576.92243 L 0.99261404,574.2931 M 0.99261404,574.2931 L -0.32205186,571.22554 M -0.32205186,571.22554 L -1.1984958,568.15799 L -2.0749397,565.09044 M -2.0749397,565.09044 L -2.5131617,561.58466 M -2.5131617,561.58466 L -2.5131617,559.83177 L -2.5131617,342.03545 L -2.5131617,340.28257 M -2.5131617,340.28257 L -2.0749397,337.21501 M -2.0749397,337.21501 L -1.1984958,333.70924 M -1.1984958,333.70924 L -0.32205186,330.64168 M -0.32205186,330.64168 L 0.99261404,328.01235 M 0.99261404,328.01235 L 2.7455019,324.9448 M 2.7455019,324.9448 L 4.9366117,322.31547 M 4.9366117,322.31547 L 6.2512776,321.43902 M 6.2512776,321.43902 L 160.50541,167.18489 M 160.50541,167.18489 L 161.38185,165.87022 M 161.38185,165.87022 L 164.01118,164.11734 L 166.64052,162.36445 M 166.64052,162.36445 L 169.70807,160.61156 M 169.70807,160.61156 L 172.77562,159.73512 M 172.77562,159.73512 L 176.2814,158.85867 M 176.2814,158.85867 L 179.34895,158.42045 M 179.34895,158.42045 L 181.10184,158.42045 L 398.89816,158.42045 L 400.65105,158.42045 M 400.65105,158.42045 L 403.7186,158.85867 M 403.7186,158.85867 L 407.22438,159.73512 M 407.22438,159.73512 L 410.29193,160.61156 M 410.29193,160.61156 L 412.92126,162.36445 M 412.92126,162.36445 L 415.98881,164.11734 M 415.98881,164.11734 L 418.61815,165.87022 M 418.61815,165.87022 L 419.49459,167.18489 M 419.49459,167.18489 L 573.74872,321.43902 M 573.74872,321.43902 L 575.06339,322.31547 M 575.06339,322.31547 L 577.2545,324.9448 M 577.2545,324.9448 L 579.00739,328.01235 M 579.00739,328.01235 L 580.32205,330.64168 M 580.32205,330.64168 L 581.1985,333.70924 M 581.1985,333.70924 L 582.07494,337.21501 M 582.07494,337.21501 L 582.51316,340.28257 M 582.51316,340.28257 L 582.51316,342.03545 L 582.51316,559.83177 L 582.51316,561.58466 M 582.51316,561.58466 L 582.07494,565.09044 M 582.07494,565.09044 L 581.1985,568.15799 L 580.32205,571.22554 M 580.32205,571.22554 L 579.00739,574.2931 M 579.00739,574.2931 L 577.2545,576.92243 M 577.2545,576.92243 L 575.06339,579.55176 M 575.06339,579.55176 L 573.74872,580.86643 L 419.49459,735.12056 L 418.61815,735.997 M 418.61815,735.997 L 415.98881,738.18811 M 415.98881,738.18811 L 412.92126,739.941 M 412.92126,739.941 L 410.29193,741.25567 M 410.29193,741.25567 L 407.22438,742.13211 M 407.22438,742.13211 L 403.7186,743.00855 M 403.7186,743.00855 L 400.65105,743.44678 M 400.65105,743.44678 L 398.89816,743.44678 M 398.89816,743.44678 L 181.10184,743.44678"
         style="stroke:black;stroke-width:0.43822196;stroke-miterlimit:4;stroke-dasharray:none;stroke-opacity:1"
         id="path34" />
      <path
         d="M 181.10184,714.0859 L 26.84771,559.83177 L 26.84771,342.03545 L 181.10184,187.78132 L 398.89816,187.78132 L 553.15229,342.03545 L 553.15229,559.83177 L 398.89816,714.0859 L 181.10184,714.0859"
         style="fill:#c00;fill-opacity:1;fill-rule:evenodd;stroke:none"
         id="path36" />
      <path
         d="M 66.287687,494.97492 L 95.210336,494.97492 C 91.711865,515.23538 104.70515,531.59567 125.44765,524.33579 C 132.74405,520.88845 137.84325,514.47418 138.09887,506.47663 C 137.63834,506.99726 142.74281,475.21111 125.88587,465.61405 C 101.82749,456.17037 78.492169,450.72911 70.231685,423.54474 C 65.520798,407.48391 66.309598,377.99887 78.996124,364.823 C 113.28699,326.3325 172.86327,353.31237 166.64052,407.33053 L 137.27964,407.33053 C 137.80551,395.84181 138.30216,384.49186 126.76232,378.40788 C 119.83111,374.63917 108.97051,375.47179 103.53655,381.47543 C 95.005832,389.48029 96.722202,402.21794 97.401446,412.58919 C 100.57855,431.22093 126.70389,431.27936 138.59431,439.32073 C 156.5395,448.71329 166.00509,463.83195 166.64052,484.01937 C 167.75798,511.78073 167.67034,531.12823 142.97653,547.99978 C 104.12085,568.80802 60.598105,541.45566 66.287687,494.97492 z M 212.2156,553.25844 L 212.2156,376.21677 L 177.59607,376.21677 L 177.59607,348.60878 L 276.19601,348.60878 L 276.19601,376.21677 L 241.57647,376.21677 L 241.57647,553.25844 L 212.2156,553.25844 z M 291.09555,505.93047 L 291.09555,392.8692 L 291.53378,386.7341 L 293.28666,381.03721 L 295.47777,375.34032 L 298.54533,369.64344 C 305.35968,357.87718 320.74857,348.36776 334.04131,347.29412 C 363.81849,343.54002 388.87748,366.10845 389.6955,395.93676 L 389.6955,505.93047 L 389.25727,508.99802 L 388.81905,515.13313 L 387.06616,521.26824 L 384.87506,526.96512 L 381.8075,532.22379 C 375.0954,543.78554 359.53122,553.7624 346.31152,554.57311 C 318.01699,558.84577 289.74437,534.87503 291.09555,505.93047 z M 320.0182,505.93047 L 320.0182,395.06031 L 320.45643,392.43098 L 320.89465,389.80165 L 322.20931,387.61054 L 323.08576,385.41943 C 327.85507,379.445 329.90741,377.77246 337.54708,376.21677 C 349.59819,374.79255 360.29811,383.66654 360.33463,395.93676 L 360.33463,507.24514 L 359.8964,509.43625 L 359.45818,512.06558 L 358.58174,514.25669 L 357.26707,516.4478 C 353.14778,522.40031 349.91225,524.16781 342.80575,525.65046 C 331.03949,527.49829 320.10585,517.68943 320.0182,505.93047 z M 418.61815,553.25844 L 418.61815,348.60878 C 459.17559,344.70131 510.79814,343.47428 513.71231,395.93676 C 519.51145,446.9604 502.65451,477.53369 447.97902,473.06382 L 447.97902,553.25844 L 418.61815,553.25844 z M 447.97902,376.21677 C 465.52981,374.66108 484.4683,374.27398 486.54255,395.93676 C 488.88704,433.11259 488.62411,449.56782 447.97902,445.45584 L 447.97902,376.21677"
         style="fill:#fffefe;fill-rule:evenodd;stroke:none"
         id="path38" />
    </g>
  </g>
</svg>
