/* XPM */
static const char *XPM_switch_axis[]={
"32 32 4 1",
". c None",
"b c #000000",
"a c #0000ff",
"# c #ff0000",
"................................",
"..#.............................",
".###............................",
"#.#.#.............a.............",
"..#...............a.............",
"..#...............a.............",
"..#...............a.............",
"..#...............a.............",
"..#..a............a.............",
"..#..a............a.............",
"..#..a............a.............",
"..#..a............a...b.........",
"..#..a............a....b........",
"..bbbbbbbbbbbbbbbbbbbbbbb.......",
".......................b........",
"......................b.........",
"................................",
"..b.............................",
".bbb............................",
"b.b.b...........................",
"..b.............................",
"..baaaaaaaaaaaaaaaa.............",
"..b.............................",
"..b.............................",
"..b.............................",
"..b.............................",
"..b.............................",
"..baaaaaaaaaa.........#.........",
"..b....................#........",
"..#######################.......",
".......................#........",
"......................#........."};
