/* XPM */
static char *XPM_tile_v[]={
"32 32 4 1",
"-     c #0000FF",
"0     c #FFFFFF",
"1     c #FF0000",
"      c None",
"--------------------------------",
"--------------------------------",
"--------------------------------",
"-000000000000000000000000000000-",
"-000000000000000010000000000000-",
"-000000000000000010000000000000-",
"-000010000000000010000000000000-",
"-000010000000000010000000000000-",
"-000010000000000010000001000000-",
"-000010000000000010000001000000-",
"-000010000100000010001001000000-",
"-000010000100000010001001000000-",
"-000010000100000010001001000000-",
"-000010000100000010001001000000-",
"--------------------------------",
"                                ",
"                                ",
"--------------------------------",
"--------------------------------",
"--------------------------------",
"-000000000000000000000000000000-",
"-000000000001000000010000000000-",
"-000010000001000000010000000000-",
"-000010000001000000010000000000-",
"-000010000001000000010000000000-",
"-000010010001000000010000000000-",
"-000010010001000000010000000000-",
"-000010010001000100010000000000-",
"-000010010001000100010000000000-",
"-000010010001000100010000010000-",
"-000010010001000100010000010000-",
"--------------------------------"};
