/* XPM */
static char *XPM_tile_h[]={
"32 32 4 1",
"-     c #0000FF",
"      c None",
"1     c #FFFFFF",
"2     c #FF0000",
"---------------  ---------------",
"---------------  ---------------",
"---------------  ---------------",
"-1111111111111-  -1111111111111-",
"-1111111111111-  -1111111111111-",
"-1111111111111-  -1111111111111-",
"-1121111111111-  -1111111111111-",
"-1121111111111-  -1111111111111-",
"-1121111111111-  -1111111111111-",
"-1121111111111-  -1111111111111-",
"-1121111111111-  -1111111111111-",
"-1121111111111-  -1111111111111-",
"-1121111111111-  -1111111112111-",
"-1121111111111-  -1111111112111-",
"-1121111111111-  -1111111112111-",
"-1121111121111-  -1111111112111-",
"-1121111121111-  -1111111112111-",
"-1121111121111-  -1111111112111-",
"-1121111121111-  -1111111112111-",
"-1121111121121-  -1111111112111-",
"-1121111121121-  -1111111112111-",
"-1121111121121-  -1111111112111-",
"-1121111121121-  -1111111112111-",
"-1121111121121-  -1111111112111-",
"-1121111121121-  -1111112112111-",
"-1121121121121-  -1111112112111-",
"-1121121121121-  -1111112112111-",
"-1121121121121-  -1112112112111-",
"-1121121121121-  -1112112112111-",
"-1121121121121-  -1112112112111-",
"-1121121121121-  -1112112112111-",
"---------------  ---------------"};
