/* XPM */
static const char *toppview[] = {
/* columns rows colors chars-per-pixel */
"64 64 206 2",
"   c #000000",
".  c #03040B",
"X  c #0B0B0B",
"o  c #040612",
"O  c #070915",
"+  c #06091D",
"@  c #080B1E",
"#  c #0F1013",
"$  c gray9",
"%  c #12141A",
"&  c #191A1D",
"*  c #080C24",
"=  c #090E2B",
"-  c #0B1133",
";  c #0C133A",
":  c #101324",
">  c #161927",
",  c #121837",
"<  c #151B39",
"1  c #1C203C",
"2  c #24252C",
"3  c #2C2C2C",
"4  c #292B32",
"5  c #2A2D3F",
"6  c #3C3C3C",
"7  c #0E1643",
"8  c #111843",
"9  c #10184A",
"0  c #121C54",
"q  c #141E5A",
"w  c #15205E",
"e  c #192259",
"r  c #162163",
"t  c #172368",
"y  c #192363",
"u  c #18246C",
"i  c #1F2862",
"p  c #1D296B",
"a  c #192673",
"s  c #1B2876",
"d  c #1B297B",
"f  c #292F52",
"g  c #2F3242",
"h  c #3A3C47",
"j  c #353A58",
"k  c #222C6B",
"l  c #232E73",
"z  c #202E7D",
"x  c #26306C",
"c  c #26327B",
"v  c #2B3575",
"b  c #293478",
"n  c #2E3874",
"m  c #2D397F",
"M  c #333E7E",
"N  c #3E404B",
"B  c #36407E",
"V  c #394172",
"C  c #494949",
"Z  c #4C4F5D",
"A  c #4F515F",
"S  c #454963",
"D  c #4A4E65",
"F  c #545766",
"G  c #575A6B",
"H  c #585B6B",
"J  c #64666E",
"K  c #676A7C",
"L  c #6B6E7F",
"P  c #1D2B83",
"I  c #1E2E8A",
"U  c #202E82",
"Y  c #202F8B",
"T  c #243183",
"R  c #20308F",
"E  c #283583",
"W  c #28368B",
"Q  c #2E3B86",
"!  c #2A388C",
"~  c #213193",
"^  c #223399",
"/  c #27389A",
"(  c #293893",
")  c #2B3B9C",
"_  c #384384",
"`  c #3C4789",
"'  c #3C488B",
"]  c #314097",
"[  c #31419E",
"{  c #384696",
"}  c #3E4B97",
"|  c #39489E",
" . c #3343A1",
".. c #3847A3",
"X. c #3B4AA4",
"o. c #424C8A",
"O. c #414D93",
"+. c #434F99",
"@. c #47518F",
"#. c #485082",
"$. c #43509D",
"%. c #4A5490",
"&. c #4F5994",
"*. c #555C88",
"=. c #545F9B",
"-. c #404FA6",
";. c #4250A4",
":. c #4553A9",
">. c #4A57A4",
",. c #4856AA",
"<. c #4C59AC",
"1. c #515EAE",
"2. c #59629D",
"3. c #5662A6",
"4. c #5360AE",
"5. c #5C66A5",
"6. c #5863AA",
"7. c #5F68A0",
"8. c #5461B0",
"9. c #5865B2",
"0. c #5D69B4",
"q. c #606584",
"w. c #646985",
"e. c #6F7387",
"r. c #71758A",
"t. c #74788E",
"y. c #797D92",
"u. c #6069A4",
"i. c #656EAA",
"p. c #616DB5",
"a. c #6872AE",
"s. c #6470B6",
"d. c #6571B8",
"f. c #6974B3",
"g. c #6A75BA",
"h. c #6D79BC",
"j. c #727AAE",
"k. c #797EA1",
"l. c #737CB0",
"z. c #727CBD",
"x. c #7C8095",
"c. c #7E8299",
"v. c #7A81A1",
"b. c #7780B7",
"n. c #7580BD",
"m. c #7C84B4",
"M. c #7E87BA",
"N. c #7681C0",
"B. c #7A84C1",
"V. c #7E88C3",
"C. c #868686",
"Z. c #8B8B8B",
"A. c #81859D",
"S. c #949494",
"D. c #878CA7",
"F. c #8189BA",
"G. c #8E94B8",
"H. c #979CBC",
"J. c #989DBA",
"K. c #A4A4A4",
"L. c #A4A6AD",
"P. c #838CC5",
"I. c #8790C7",
"U. c #8791C8",
"Y. c #8D94C1",
"T. c #8B93C9",
"R. c #8F98CB",
"E. c #969DC6",
"W. c #939BCD",
"Q. c #97A0CF",
"!. c #9AA1CD",
"~. c #9CA3D1",
"^. c #A2A8CB",
"/. c #A8AECE",
"(. c #A0A6D3",
"). c #A4AAD4",
"_. c #A8AFD7",
"`. c #ABB0CF",
"'. c #AAB0D5",
"]. c #ACB3D8",
"[. c #B0B6DB",
"{. c #B4BADC",
"}. c #B8BDDE",
"|. c #BBC0DE",
" X c #BCC1E0",
".X c gray76",
"XX c LightGray",
"oX c gray87",
"OX c #C0C5E2",
"+X c #C5C9E4",
"@X c #CACEE6",
"#X c #CED1E3",
"$X c #CDD1E8",
"%X c #D1D5EA",
"&X c #D6D9EC",
"*X c #D9DCED",
"=X c #DDE0EF",
"-X c #DEE1F0",
";X c #E2E4F1",
":X c #E6E8F3",
">X c #EBECF5",
",X c gray95",
"<X c #F3F4F9",
"1X c #F7F8FB",
"2X c #FEFEFE",
"3X c None",
/* pixels */
"3X3X3X3X3X3X3X3X3X3X3X3X3X3X3X3X3X3X3X3X3X3X3X3X3X3X3X3X3X3X3X3X3X3X3X3X3X3X3X3X3X3X3X3X3X3X3X3X3X3X3X3X3X3X3X3X3X3X3X3X3X3X3X3X",
"3X3X3X3X3X3X3X3X3X3X3X3X3X3X3X3X3X3X3X3X3X3X3X3X3X3X3X3X3X3X3X3X3X3X3X3X3X3X3X3X3X3X3X3X3X3X3X3X3X3X3X3X3X3X3X3X3X3X3X3X3X3X3X3X",
"3X3X3X3X3X3X3X3X3X3X3X3X3X3X3X3X3X3X3X3X3X3X3X3X                                3X3X3X3X3X3X3X3X3X3X3X3X3X3X3X3X3X3X3X3X3X3X3X3X",
"3X3X3X3X3X3X3X3X3X3X3X3X3X3X3X3X3X3X3X3X3X                                            3X3X3X3X3X3X3X3X3X3X3X3X3X3X3X3X3X3X3X3X3X",
"3X3X3X3X3X3X3X3X3X3X3X3X3X3X3X3X3X3X              & h G t.D.H.^.!.G.k.q.S 5 %               3X3X3X3X3X3X3X3X3X3X3X3X3X3X3X3X3X3X",
"3X3X3X3X3X3X3X3X3X3X3X3X3X3X3X3X3X          2 F c./.[.[.].].'._.'.~.~.W.U.V.a.#.f :           3X3X3X3X3X3X3X3X3X3X3X3X3X3X3X3X3X",
"3X3X3X3X3X3X3X3X3X3X3X3X3X3X3X        . C r.).{.[.].].].'._._.).~.!.W.T.P.n.d.0.8.+.x ,           3X3X3X3X3X3X3X3X3X3X3X3X3X3X3X",
"3X3X3X3X3X3X3X3X3X3X3X3X3X    .     N c.{.[.[.].].'._._.).).~.~.Q.W.T.V.n.g.p.9.,.;.X.[ p ;           3X3X3X3X3X3X3X3X3X3X3X3X3X",
"3X3X3X3X3X3X3X3X3X3X3X3X        4 r.{.{.[.].]._.).(.~.~.!.W.W.R.T.P.V.z.h.p.8.<.,.X. .[ ) ^ r *         3X3X3X3X3X3X3X3X3X3X3X3X",
"3X3X3X3X3X3X3X3X3X3X3X        A J.}.{.{.[.]._.).~.~.~.W.W.R.U.I.V.V.N.h.d.p.8.<.,.-.X. .[ [ ) U 8         3X3X3X3X3X3X3X3X3X3X3X",
"3X3X3X3X3X3X3X3X3X3X  #   & e.}.|. X}.{.[.].'._.(.~.Q.W.W.R.U.U.P.V.B.z.h.d.p.9.9.<.<.,.:.X...[ ) e O   .   3X3X3X3X3X3X3X3X3X3X",
"3X3X3X3X3X3X3X3X3X  #   2 y.|.|. X|.|.}.}.{.{.].].).).(.!.Q.~.W.W.R.T.T.P.V.V.B.N.z.g.d.0.9.<.-...) u @   .   3X3X3X3X3X3X3X3X3X",
"3X3X3X3X3X3X3X3X      2 A.|. X|. X+X+X+X+X@X+XOX X X}.}.{.{.[.[.].].].'._.).).(.).~.~.R.P.n.d.4.;.../ u +       3X3X3X3X3X3X3X3X",
"3X3X3X3X3X3X3X      % y.|.|.|. XOX$X&X*X;X;X:X;X;X;X;X;X;X;X;X*X-X-X=X=X=X=X=X*X*X*X%X@X}.).U.d.8.X.[ / r .       3X3X3X3X3X3X3X",
"3X3X3X3X3X3X3X      K }.}. X X+X@X*X>X1X2X2X2X2X2X2X2X2X2X2X2X2X2X2X2X2X2X2X2X2X2X2X2X2X<X&X[.U.s.<.[ / ~ 0       3X3X3X3X3X3X3X",
"3X3X3X3X3X3X  .   Z }.{.}.}.|.+X&X>X        X X X X X X X X X X X X X X X X X X X X X X 2   *X(.n.4.X./ ~ ~ ;       3X3X3X3X3X3X",
"3X3X3X3X3X3X    4 H.{.{.{.{.|.+X=X1X          X X .   X   X     X X X X X . X . . X X X &   <X}.I.0.-.) ~ R a +     3X3X3X3X3X3X",
"3X3X3X3X3X      r.}.{.[.].[.}.+X;X2X                          . X . X                       2X+XR.d.;.) ~ ~ I 0       3X3X3X3X3X",
"3X3X3X3X      N {.{.[.[.].].{.+X;X2X                          X                             2X%X~.d.:.( ~ Y I d =       3X3X3X3X",
"3X3X3X3X    . c.{.[.[._.).).[. X;X2X        S.,X2X2X2X2X2XX X X X X X C.2X2X2X2X2X1X        2X*X!.g.>.) Y I I P 0       3X3X3X3X",
"3X3X3X3X    N }.{.[.].).~.~._. X;X2X        oX1X2X2X2X2X2XX X X X X X C.2X2X2X2X2X2X        2X&X!.g.,.) ~ Y I P s =     3X3X3X3X",
"3X3X3X      t.}.[.].).~.Q.Q.~.{.*X2X      Z.,X2X2X2X2X2X2XX X X X X X C.2X2X2X2X2X2XXX      2X%X~.g.:.( Y Y P P s 9       3X3X3X",
"3X3X3X    2 /.{.[.].(.Q.T.T.Q.].%X2X      ,X2X;X$X%X;X2X2XX X X X X X C.2X<X*X%X*X1X2X      2X+XR.s.-.) Y I I P s t O     3X3X3X",
"3X3X3X    F {.[.].).~.T.P.P.T.~. X>X      2X*X}._.].+X<X2XX X X X X X C.2X*X}.'.[.@X>XS.    ;X{.P.0.-./ ~ I P d a u =     3X3X3X",
"3X3X      A.[.]._.~.W.P.B.N.V.R.].$X    L.%X].W.U.W.[.-X2XX X X X X X C.2X@X).T.R.). X@X    +X~.B.4.X.( R I I d s u 9       3X3X",
"3X3X    & /.[.].).W.T.V.h.h.h.B.W.'.|. X X~.V.z.h.V.).-X2XX X X X X X C.2X XW.B.z.V.Q.].}.{.).V.d.,.[ ~ R I d d a u q .     3X3X",
"3X3X    h {.]._.~.W.P.z.p.0.0.p.z.P.W.R.U.N.0.9.0.N.~.-X2XX X X X X X C.2X|.T.h.0.p.h.V.T.U.B.d.1.X.) ( R I P d u t r *     3X3X",
"3X3X    G [.].).W.T.B.d.0.1.1.1.9.d.d.g.d.9.<.:.8.z.~.*X2XX X X X X X Z.2X XU.d.1.<.8.0.p.p.0.1.:.[ / ~ I P d s a t r =     3X3X",
"3X3X    t.]._.~.W.P.z.p.8.,.:.:.:.,.<.<.:.X...X.1.h.~.*X2XO X X X X X C.2X XP.0.,.X.X.:.,.,.:.X.[ ) ~ R I P d a u t r ;     3X3X",
"3X3X    D.].).W.U.B.d.9.<.;.X... . ... . . .)  .,.h.~.*X2XX X X X X X C.2X}.P.0.X.[ [ [  . .[ ) ) ( ( R I P P a u t q 7     3X3X",
"3X3X    H._.~.W.P.z.p.1.:.X. .) ) ) / / / / ^ [ :.h.~.*X2XX X X X X X C.2X|.P.9.X.) / / / / / ^ ^ ~ Y R I d d a u r q 0     3X3X",
"3X3X    ^.).~.T.B.g.0.<.X...[ / / ^ ^ ^ ^ ^ ^ ) :.h.~.*X2XX X X X X X C.2X|.P.9.../ ^ ^ ^ ^ ~ ^ ^ ~ ~ I I d s u t r q 0     3X3X",
"3X3X    !.~.W.P.z.d.8.,... .) / ^ ^ ^ ^ ^ ^ ^  .,.d.~.*X2XX X X X X X C.2X|.P.9.../ ^ ^ ^ ^ ^ ^ ~ ~ R I P d a u t r q 0     3X3X",
"3X3X    G.~.R.V.h.0.1.X. . ./ / ^ ^ ^ ^ ^ ^ ^ ) ,.h.~.*X2XX X X X X X C.2X|.P.9.X./ ^ ^ ^ ^ ~ ^ ~ R I I P d u t t q q 9     3X3X",
"3X3X    v.Q.U.B.d.9.<.X...) / / ^ ^ ^ ^ ^ ^ ^ ) ,.g.~.*X2XX X X X X # C.2X|.P.9.X./ ^ ^ ^ ^ ^ ~ ~ R I I P a u t r q q 7     3X3X",
"3X3X    w.W.P.z.p.1.X... .) / ^ ^ ^ ^ ^ ^ ^ ^ [ ,.h.~.*X2XX X X X X X C.2X|.P.9.../ ^ ^ ^ ^ ^ ~ R I I P P d u t q q q 7     3X3X",
"3X3X    A R.V.g.0.<.X... ./ ^ / ^ ^ ^ ^ ^ ^ ^ ) :.h.~.*X2XX X X X X X C.2X}.P.9.X./ ^ ^ ^ ^ ~ R ~ I P P d t t r q q 0 =     3X3X",
"3X3X    5 P.N.d.8.,.X. .) / ^ ^ ^ ^ ^ ^ ^ ^ ^ / ,.d.~.*X2XX X X X X X C.2X}.P.9.X./ ^ ^ ^ ~ ~ ~ R I P P d u t t w q 0 @     3X3X",
"3X3X    : z.h.p.1.,... .) ^ / ^ ^ ^ ^ ^ ^ ^ ~ [ ,.g.~.*X2XX X X X X X C.2X|.P.9.../ ~ ^ ^ ~ ~ R I I P d u t t q q 0 0 .     3X3X",
"3X3X    . >.g.9.<.X...) ) / ^ ^ ^ ^ ^ ^ ^ ^ ^ ) :.h.~.*X2XX X X X X X C.2X|.P.9...^ ^ ^ ~ ~ ~ ~ I P P a a t r q q q ;       3X3X",
"3X3X3X    j d.8.:.X. .) ) ^ ^ ^ ^ ^ ^ ^ ^ ^ ^ ^ ,.d.~.*X2XX X X X X X Z.2X|.P.9.X./ ^ ~ ~ ~ I I I P d a t t r q q 0 *     3X3X3X",
"3X3X3X    > 6.1.:.X. .) ) ^ ^ ^ ^ ^ ^ ^ ^ ^ ^ ^ ,.g.~.=X2XX X X X X X C.2X XP.9.X./ ^ ~ ~ ~ I I P d a u t t q q 0 0 o     3X3X3X",
"3X3X3X      n 1.X... .) / / ^ ^ ^ ^ ^ ^ ^ ^ ^ ) <.z.~.;X2XX X X X X X C.2X XT.0.;.) ^ ~ ~ Y I P P s a t r w q q q ;       3X3X3X",
"3X3X3X3X    < >.X. .) / ^ ^ ^ ^ ^ ^ ^ ~ ^ ^ /  .4.B.[.:X2XX X X X X X C.2X$X!.h.<.[ ) ~ ~ R P P d a u t t q q 0 0 *     3X3X3X3X",
"3X3X3X3X    . n ..[ ) / ^ ^ ^ ^ ^ ^ ^ ^ / /  .X.p.T. X2X2XX X X X X X C.2X;X].P.0.;.[ ( W I P d a a t r q q q q ;       3X3X3X3X",
"3X3X3X3X      <  .[ ) / ^ ^ ^ ^ ^ ^ ^ ^ /  .X.9.B.).*X2X2XX X X X X X C.2X2X$X!.n.4.+.) ! P d d a u t w q q q 0 @       3X3X3X3X",
"3X3X3X3X3X      u ) / / ^ ^ ^ ^ ^ ^ ^ ^ ) ..X.g.T.|.,X2X.XX X X X X X C 2X2X;X}.T.a.>.{ ! U s a u t w q q q 0 ;       3X3X3X3X3X",
"3X3X3X3X3X3X    = ^ / / ^ ^ ^ ^ ^ ^ ^ / ) X.1.z.!.$X1X,X6 X X X X X # X K.2X2X$X/.n.3.} ! d s u t r w q q 0 9 o     3X3X3X3X3X3X",
"3X3X3X3X3X3X      8 / / / ^ ^ ^ ~ ^ ^ ^ [ X.9.B._.J h $ X X X X X X X X X 3 6   '.F.5.O.Q l u t r w q q q 0 *       3X3X3X3X3X3X",
"3X3X3X3X3X3X3X      0 ^ ^ ^ ^ ^ ^ ^ ^ ^  .X.9.B.).O X X . X X . X X       X .   '.M.5.} m a t t w q q 0 0 =       3X3X3X3X3X3X3X",
"3X3X3X3X3X3X3X      o t ^ ^ ^ ^ ^ ^ ^ / [ X.8.N.W.|.&X<X2X2X2X2X2X2X2X2X2X,X*X|.!.j.2.` b p t q q q 0 q ; .       3X3X3X3X3X3X3X",
"3X3X3X3X3X3X3X3X      @ t ^ ^ ~ ^ ^ ^ / ) X.,.0.V.W.'.|.@X%X*X*X&X%X&X%X@XOX'.E.F.2.@.M k u r q q 0 0 7 o       3X3X3X3X3X3X3X3X",
"3X3X3X3X3X3X3X3X3X  .   + r ^ ~ ^ ~ ~ ^ ) [ X.1.p.z.P.T.E.!.~.!.!.!.!.!.E.Y.F.j.7.%.B v p y q q 0 q ; o   .   3X3X3X3X3X3X3X3X3X",
"3X3X3X3X3X3X3X3X3X3X  .   o 0 ~ ^ ~ ~ ^ ( ) [ | ,.3.0.d.f.f.f.f.a.f.a.a.i.7.2.&.#.B v k i w q q 0 - .       3X3X3X3X3X3X3X3X3X3X",
"3X3X3X3X3X3X3X3X3X3X3X        7 d ~ ~ ~ ~ ( / ) [ [ | $.;.;.$.$.$.$.%.O.O.` _ B v x p w w q q 9 *         3X3X3X3X3X3X3X3X3X3X3X",
"3X3X3X3X3X3X3X3X3X3X3X3X        * q ~ Y ~ ~ Y ( W ( ( ( ( ! ! ! E E E E c z l p p y y e q 0 - o         3X3X3X3X3X3X3X3X3X3X3X3X",
"3X3X3X3X3X3X3X3X3X3X3X3X3X          - r I I I P I I I I I d P d s s a a u t t r w q q q ; @           3X3X3X3X3X3X3X3X3X3X3X3X3X",
"3X3X3X3X3X3X3X3X3X3X3X3X3X3X3X          - 0 d P d P d d d d s s s a u t t r r q q 0 ; @           3X3X3X3X3X3X3X3X3X3X3X3X3X3X3X",
"3X3X3X3X3X3X3X3X3X3X3X3X3X3X3X3X3X          + ; 0 a s s a a a u u t t t r w 0 ; = o           3X3X3X3X3X3X3X3X3X3X3X3X3X3X3X3X3X",
"3X3X3X3X3X3X3X3X3X3X3X3X3X3X3X3X3X3X              o * - 7 0 q r w 0 9 ; = @ .               3X3X3X3X3X3X3X3X3X3X3X3X3X3X3X3X3X3X",
"3X3X3X3X3X3X3X3X3X3X3X3X3X3X3X3X3X3X3X3X3X                                            3X3X3X3X3X3X3X3X3X3X3X3X3X3X3X3X3X3X3X3X3X",
"3X3X3X3X3X3X3X3X3X3X3X3X3X3X3X3X3X3X3X3X3X3X3X3X                                3X3X3X3X3X3X3X3X3X3X3X3X3X3X3X3X3X3X3X3X3X3X3X3X",
"3X3X3X3X3X3X3X3X3X3X3X3X3X3X3X3X3X3X3X3X3X3X3X3X3X3X3X3X3X3X3X3X3X3X3X3X3X3X3X3X3X3X3X3X3X3X3X3X3X3X3X3X3X3X3X3X3X3X3X3X3X3X3X3X",
"3X3X3X3X3X3X3X3X3X3X3X3X3X3X3X3X3X3X3X3X3X3X3X3X3X3X3X3X3X3X3X3X3X3X3X3X3X3X3X3X3X3X3X3X3X3X3X3X3X3X3X3X3X3X3X3X3X3X3X3X3X3X3X3X"
};
