/* XPM */
static char *toppview[] = {
/* columns rows colors chars-per-pixel */
"64 64 198 2",
"   c black",
".  c #000001",
"X  c #000102",
"o  c #010104",
"O  c #010206",
"+  c #060606",
"@  c #03040D",
"#  c #0C0C0C",
"$  c gray6",
"%  c #040612",
"&  c #050715",
"*  c #060A1D",
"=  c #0D0E15",
"-  c #0F111E",
";  c #161616",
":  c #141418",
">  c #1B1B1B",
",  c #070A20",
"<  c #070B20",
"1  c #080C22",
"2  c #080C23",
"3  c #0B1031",
"4  c #0C1134",
"5  c #0C1235",
"6  c #101327",
"7  c #12162F",
"8  c #171922",
"9  c #1C1D24",
"0  c #1D1E29",
"q  c #181C32",
"w  c #1D2034",
"e  c #22242F",
"r  c #24242C",
"t  c gray19",
"y  c gray20",
"u  c #353535",
"i  c #32333B",
"p  c #35363D",
"a  c gray24",
"s  c #0E1540",
"d  c #101847",
"f  c #11194A",
"g  c #161D4A",
"h  c #131D56",
"j  c #151F5E",
"k  c #172053",
"l  c #1D2555",
"z  c #162061",
"x  c #162162",
"c  c #162265",
"v  c #17236A",
"b  c #18246C",
"n  c #1A2774",
"m  c #1C2976",
"M  c #1C2A7F",
"N  c #1E2C7E",
"B  c #252A49",
"V  c #282C42",
"C  c #212A5F",
"Z  c #363841",
"A  c #3A3B42",
"S  c #3E3F44",
"D  c #393F62",
"F  c #3D4264",
"G  c #39437A",
"H  c #4A4D5A",
"J  c #434B77",
"K  c #424A78",
"L  c #50546D",
"P  c #5F6274",
"I  c #656565",
"U  c gray43",
"Y  c #636676",
"T  c #6D6F7B",
"R  c #70717C",
"E  c #1D2C84",
"W  c #1F2E87",
"Q  c #20308F",
"!  c #213190",
"~  c #233392",
"^  c #223297",
"/  c #223399",
"(  c #233499",
")  c #24359A",
"_  c #25359A",
"`  c #25369B",
"'  c #26379B",
"]  c #27389B",
"[  c #28399C",
"{  c #29399C",
"}  c #2B3B9D",
"|  c #2C3C9D",
" . c #2E3E9F",
".. c #3E4880",
"X. c #30409F",
"o. c #3241A0",
"O. c #3242A1",
"+. c #3343A1",
"@. c #3444A1",
"#. c #3746A3",
"$. c #3948A3",
"%. c #3E4DA6",
"&. c #3F4EA7",
"*. c #454E84",
"=. c #47539A",
"-. c #545E98",
";. c #4251A8",
":. c #4351A8",
">. c #4452A9",
",. c #4553A9",
"<. c #4655AA",
"1. c #4A57A3",
"2. c #4A58AB",
"3. c #4C59AC",
"4. c #4C5AAD",
"5. c #4D5BAD",
"6. c #4E5CAD",
"7. c #505DAE",
"8. c #515EAF",
"9. c #5360AF",
"0. c #5A64A2",
"q. c #5764B1",
"w. c #5865B2",
"e. c #5C69B4",
"r. c #5E6AB5",
"t. c #5F6BB5",
"y. c #656B8F",
"u. c #7D7F89",
"i. c #7A7D90",
"p. c #626EB7",
"a. c #6470B7",
"s. c #6571B8",
"d. c #6671B8",
"f. c #6975BA",
"g. c #6B76BB",
"h. c #6E79BC",
"j. c #727DBE",
"k. c #747FBF",
"l. c #7681C0",
"z. c #7A84C1",
"x. c #7A85C2",
"c. c #7B85C2",
"v. c #7D87C3",
"b. c #96979F",
"n. c gray60",
"m. c #9A9B9E",
"M. c gray61",
"N. c #8085A3",
"B. c #9B9DA5",
"V. c #8891C8",
"C. c #8A93C9",
"Z. c #8D96CB",
"A. c #8F98CB",
"S. c #9099CC",
"D. c #9199CC",
"F. c #979FCF",
"G. c #9AA1D0",
"H. c #9BA3D1",
"J. c #9DA5D2",
"K. c #9EA5D2",
"L. c #9FA6D3",
"P. c #A0A5C2",
"I. c #A2A7C1",
"U. c #A3A7C4",
"Y. c #A8ADCE",
"T. c #A0A7D3",
"R. c #A1A8D3",
"E. c #A1A9D4",
"W. c #A2A9D4",
"Q. c #A4ABD5",
"!. c #A6ADD6",
"~. c #A7ADD6",
"^. c #A7AED7",
"/. c #A8AFD7",
"(. c #ACB2D9",
"). c #AEB4D9",
"_. c #AFB5DA",
"`. c #B0B6DB",
"'. c #B2B8DB",
"]. c #B4BADD",
"[. c #B5BBDD",
"{. c #BABFDF",
"}. c #BCC1E0",
"|. c #C8C8C8",
" X c #CBCBCB",
".X c #C2C7E3",
"XX c #C3C8E3",
"oX c #C7CBE5",
"OX c #C8CCE5",
"+X c #C9CDE6",
"@X c #CCD0E7",
"#X c #CED1E8",
"$X c #D0D4E9",
"%X c #D1D5EA",
"&X c #D3D6EB",
"*X c gray93",
"=X c gray100",
"-X c None",
/* pixels */
"-X-X-X-X-X-X-X-X-X-X-X-X-X-X-X-X-X-X-X-X-X-X-X-X-X-X-X-X-X-X-X-X-X-X-X-X-X-X-X-X-X-X-X-X-X-X-X-X-X-X-X-X-X-X-X-X-X-X-X-X-X-X-X-X",
"-X-X-X-X-X-X-X-X-X-X-X-X-X-X-X-X-X-X-X-X-X-X-X-X-X-X-X-X-X-X-X-X-X-X-X-X-X-X-X-X-X-X-X-X-X-X-X-X-X-X-X-X-X-X-X-X-X-X-X-X-X-X-X-X",
"-X-X-X-X-X-X-X-X-X-X-X-X-X-X-X-X-X-X-X-X-X-X-X-X                                -X-X-X-X-X-X-X-X-X-X-X-X-X-X-X-X-X-X-X-X-X-X-X-X",
"-X-X-X-X-X-X-X-X-X-X-X-X-X-X-X-X-X-X-X-X-X                                            -X-X-X-X-X-X-X-X-X-X-X-X-X-X-X-X-X-X-X-X-X",
"-X-X-X-X-X-X-X-X-X-X-X-X-X-X-X-X-X-X              & 3 f x n E Q Q E n x f 3 &               -X-X-X-X-X-X-X-X-X-X-X-X-X-X-X-X-X-X",
"-X-X-X-X-X-X-X-X-X-X-X-X-X-X-X-X-X          < d b Q / / / / / / / / / / / / Q b f *           -X-X-X-X-X-X-X-X-X-X-X-X-X-X-X-X-X",
"-X-X-X-X-X-X-X-X-X-X-X-X-X-X-X        O 5 x Q / / / / / / / / / / / / / / / / / / Q x 4 O         -X-X-X-X-X-X-X-X-X-X-X-X-X-X-X",
"-X-X-X-X-X-X-X-X-X-X-X-X-X    O     5 v / / / / / / / / / / / / / / / / / / / / / / / / v 5     O     -X-X-X-X-X-X-X-X-X-X-X-X-X",
"-X-X-X-X-X-X-X-X-X-X-X-X        1 j ^ / / / / / / / / / / / / / / / / / / / / / / / / / / ^ j 1         -X-X-X-X-X-X-X-X-X-X-X-X",
"-X-X-X-X-X-X-X-X-X-X-X        s M / / / / / / / / / / / / / / / / / / / / / / / / / / / / / / M s         -X-X-X-X-X-X-X-X-X-X-X",
"-X-X-X-X-X-X-X-X-X-X  @   % h / / / / / / / / / / / / / / / / / / / / / / / / / / / / / / / / / / h %   @   -X-X-X-X-X-X-X-X-X-X",
"-X-X-X-X-X-X-X-X-X  @   * c / / / / / / / / / / / / / / / / / / / / / / / / / / / / / / / / / / / / c *   @   -X-X-X-X-X-X-X-X-X",
"-X-X-X-X-X-X-X-X      * b / / / / / / / / / / / / / / / / / / / / / / / / / / / / / / / / / / / / / / b *       -X-X-X-X-X-X-X-X",
"-X-X-X-X-X-X-X      % c / / / / / / / / / / / / / / / / / ( / / / / / / / / / / / / / / / / / / / / / / c %       -X-X-X-X-X-X-X",
"-X-X-X-X-X-X-X      h / / / / / / / / / m m m m m m m m m m m m m m m m m m m m m m m m W ^ / / / / / / / h       -X-X-X-X-X-X-X",
"-X-X-X-X-X-X  O   s / / / / / / / / / / # # # # # # # # # # # # # # # # # # # # # # # # h _ / / / / / / / / s   O   -X-X-X-X-X-X",
"-X-X-X-X-X-X    2 M / / / / / / / / / / # # # # # # # # # # # # # # # # # # # # # # # # l { [ ` / / / / / / M 2     -X-X-X-X-X-X",
"-X-X-X-X-X      j / / / / / / / / / / / # # # 8 J 0.a.a.a.# # # # # # F d.d.d.-.V # # # F r.;.{ / / / / / / / j       -X-X-X-X-X",
"-X-X-X-X      5 ^ / / / / / / / / / / / # # 9 Y.`.'.`.`.[.# # # # # # P `.`.`.`.`.H # # P J.g.@./ / / / / / / / 5       -X-X-X-X",
"-X-X-X-X    O v / / / / / / / / / / / / # # N.&X&XOX}.)./.# # # # # # R &X}.(.^./.`.A # R }.x.$./ / / / / / / / v O     -X-X-X-X",
"-X-X-X-X    5 / / / / / / / / / / / / / # q /.&XXXL.l.r.8.# # # # # # R .XA.t.6.9.d.y.# T }.x.$./ / / / / / / / / 5     -X-X-X-X",
"-X-X-X      x / / / / / / / / / / / / / # G /.OXG.r.#.{ _ # # # # # # R }.x.$.( _ X.6.: Y {.x.$./ / / / / / / / / x       -X-X-X",
"-X-X-X    < Q / / / / / / / / / / / / / # 1.Q.`.g.O.( / / # # # # # # R }.x.$./ / / { B L ).x.$./ / / / / / / / / Q <     -X-X-X",
"-X-X-X    d / / / / / / / / / / / / / / : 6.G.Z.<._ / / / # # # # # # R }.x.$./ / / / C F J.x.$./ / / / / / / / / / d     -X-X-X",
"-X-X      b / / / / / / / / / / / / / / E 6.C.h.X./ / / / # # # # # # R {.x.$.( / / / Q =.C.k.$./ / / / / / / / / / b       -X-X",
"-X-X    & Q / / / / / / / / / / / / / / / 5.v.q.] / / / / # # # # # # R {.x.$.( / / / / %.j.g.$./ / / / / / / / / / Q &     -X-X",
"-X-X    3 / / / / / / / / / / / / / / / / ;.a.>.( / / / / # # # # # # R {.x.$.( / / / / @.q.w.#./ / / / / / / / / / / 3     -X-X",
"-X-X    f / / / / / / / / / / / / / / / / X.%.X./ / / / / # # # # # # R {.x.$./ / / / / { #.$.{ / / / / / / / / / / / f     -X-X",
"-X-X    x / / / / / / / / / / / / / / / / ) ` ) / / / / / # # # # # # R }.x.$.( / / / / ( _ ` ( / / / / / / / / / / / j     -X-X",
"-X-X    n / / / / / / / / / / / / / / / / / / / / / / / / # # # # # # R }.x.$.( / / / / / / / / / / / / / / / / / / / n     -X-X",
"-X-X    E / / / / / / / / / / / / / / / / / / / / / / / / # # # # # # R {.x.$.( / / / / / / / / / / / / / / / / / / / W     -X-X",
"-X-X    Q / / / / / / / / / / / / / / / / / / / / / / / / # # # # # # R {.x.$.( / / / / / / / / / / / / / / / / / / / Q     -X-X",
"-X-X    Q / / / / / / / / / / / / / / / / / / / / / / / / # # # # # # R }.x.$.( / / / / / / / / / / / / / / / / / / / Q     -X-X",
"-X-X    E / / / / / / / / / / / / / / / / / / / / / / / / # # # # # # R }.x.$.( / / / / / / / / / / / / / / / / / / / E     -X-X",
"-X-X    n / / / / / / / / / / / / / / / / / / / / / / / / # # # # # # R {.x.$.( / / / / / / / / / / / / / / / / / / / n     -X-X",
"-X-X    z / / / / / / / / / / / / / / / / / / / / / / / / # # # # # # R {.x.$.( / / / / / / / / / / / / / / / / / / / x     -X-X",
"-X-X    f / / / / / / / / / / / / / / / / / / / / / / / / # # # # # # R }.x.$.( / / / / / / / / / / / / / / / / / / / f     -X-X",
"-X-X    3 / / / / / / / / / / / / / / / / / / / / / / / / # # # # # # R }.x.$.( / / / / / / / / / / / / / / / / / / / 3     -X-X",
"-X-X    & Q / / / / / / / / / / / / / / / / / / / / / / / # # # # # # R {.x.$.( / / / / / / / / / / / / / / / / / / Q &     -X-X",
"-X-X      b / / / / / / / / / / / / / / / / / / / / / / / # # # # # # R {.x.$.( / / / / / / / / / / / / / / / / / / b       -X-X",
"-X-X-X    d / / / / / / / / / / / / / / / / / / / / / / / # # # # # # R }.x.$.) / / / / / / / / / / / / / / / / / / f     -X-X-X",
"-X-X-X    < Q / / / / / / / / / / / / / / / / / / / / / / # # # # # # R }.x.$.) / / / / / / / / / / / / / / / / / Q <     -X-X-X",
"-X-X-X      x / / / / / / / / / / / / / / / / / / / / / / # # # # # # R {.x.$./ / / / / / / / / / / / / / / / / / x       -X-X-X",
"-X-X-X-X    5 / / / / / / / / / / / / / / / / / / / / / / # # # # # # R {.x.$./ / / / / / / / / / / / / / / / / / 5     -X-X-X-X",
"-X-X-X-X    O v / / / / / / / / / / / / / / / / / / / / ( # # # # # # R }.x.$./ / / / / / / / / / / / / / / / / v O     -X-X-X-X",
"-X-X-X-X      5 ^ / / / / / / / / / / / / / / / / / / / ( # # # # # # R }.x.$.( / / / / / / / / / / / / / / / ^ 5       -X-X-X-X",
"-X-X-X-X-X      j / / / / / / / / / / / / / / / / / / ( m # # # # # # S }.x.$.( / / / / / / / / / / / / / / / j       -X-X-X-X-X",
"-X-X-X-X-X-X    2 M / / / / / / / / / / / / / / / / / ! 6 # # # # # # # i.x.$.) / / / / / / / / / / / / / ^ E 1     -X-X-X-X-X-X",
"  -X-X-X-X-X  O                                   g 7 = # # # # # # # # # e q                               <   O   -X-X-X-X-X-X",
"  -X-X-X-X-X-X                                    # # # # # # # # # # # # # #                             1       -X-X-X-X-X-X-X",
"-X=X=X=X-X-X-X    + 0 ..6.6.6.6.6.6.6.6.6.6.6.6.6.6.2.;.,.p.F.oX&X&X&X&X&X'.v.8.<.6.6.6.6.6.6.6.6.6.6.6.*.Z u u *X=X-X-X-X-X-X-X",
"-X=X=X=X-X-X-X-X  # a u.I./././.~.~.~.~././.Q./././.J.Z.A./.XX$X&X&X&X&X&X+X[.G.F.L.Q.^.^./.~.~.^.^.^.U.B.n.M.|.=X=X=X-X-X-X-X-X",
"-X=X=X=X-X-X-X-X-X; i U b.I.Q./.Q./.~.~.!.!.!.!.Q./.L.G.G.Q./././././.~.~.~.Q.L.L.Q././.^.^.Q./.^.Q.I.B.n.m.|.=X=X=X-X-X-X-X-X-X",
"-X=X=X=X-X-X-X-X-X=X> r t Z K 6.6.6.6.6.6.6.6.4.6.6.6.6.6.6.6.6.6.6.6.6.6.6.6.6.6.6.6.6.6.6.6.6.6.J Z u p I =X=X=X-X-X-X-X-X-X-X",
"-X-X-X-X-X-X-X-X-X-X-X        s E / / / / / / / / / / / / / / / / / / / / / / / / / / / / / / E 5         -X-X-X-X-X-X-X-X-X-X-X",
"-X-X-X-X-X-X-X-X-X-X-X-X        , j / / / / / ) / / / / / / / / / / / / / / / / / / / / / ^ j 1 O       -X-X-X-X-X-X-X-X-X-X-X-X",
"-X-X-X-X-X-X-X-X-X-X-X-X-X    O     5 v / / ) ) / / / / / / / / / / / / / / / / / / / / v 5     O     -X-X-X-X-X-X-X-X-X-X-X-X-X",
"-X-X-X-X-X-X-X-X-X-X-X-X-X-X-X        O 4 x W / / / / / / / / / / / / / / / / / / Q x 5 O         -X-X-X-X-X-X-X-X-X-X-X-X-X-X-X",
"-X-X-X-X-X-X-X-X-X-X-X-X-X-X-X-X-X          < f b W / / / / / / / / / / / / Q b f *           -X-X-X-X-X-X-X-X-X-X-X-X-X-X-X-X-X",
"-X-X-X-X-X-X-X-X-X-X-X-X-X-X-X-X-X-X            O & 3 f j n W Q Q E n j f 3 &               -X-X-X-X-X-X-X-X-X-X-X-X-X-X-X-X-X-X",
"-X-X-X-X-X-X-X-X-X-X-X-X-X-X-X-X-X-X-X-X-X                                            -X-X-X-X-X-X-X-X-X-X-X-X-X-X-X-X-X-X-X-X-X",
"-X-X-X-X-X-X-X-X-X-X-X-X-X-X-X-X-X-X-X-X-X-X-X-X                                -X-X-X-X-X-X-X-X-X-X-X-X-X-X-X-X-X-X-X-X-X-X-X-X",
"-X-X-X-X-X-X-X-X-X-X-X-X-X-X-X-X-X-X-X-X-X-X-X-X-X-X-X-X-X-X-X-X-X-X-X-X-X-X-X-X-X-X-X-X-X-X-X-X-X-X-X-X-X-X-X-X-X-X-X-X-X-X-X-X",
"-X-X-X-X-X-X-X-X-X-X-X-X-X-X-X-X-X-X-X-X-X-X-X-X-X-X-X-X-X-X-X-X-X-X-X-X-X-X-X-X-X-X-X-X-X-X-X-X-X-X-X-X-X-X-X-X-X-X-X-X-X-X-X-X"
};
