/* XPM */
static char *XPM_toppview[] = {
/* columns rows colors chars-per-pixel */
"32 32 137 2",
"   c #223399",
".  c #233499",
"X  c #25359A",
"o  c #25369B",
"O  c #26379B",
"+  c #27389B",
"@  c #28399C",
"#  c #29399C",
"$  c #2A3A9D",
"%  c #2B3B9D",
"&  c #2C3D9E",
"*  c #2D3D9E",
"=  c #2F3F9F",
"-  c #30409F",
";  c #3141A0",
":  c #3241A0",
">  c #3242A1",
",  c #3545A2",
"<  c #3645A2",
"1  c #3847A3",
"2  c #3948A3",
"3  c #3949A4",
"4  c #3A49A4",
"5  c #3C4BA5",
"6  c #3D4CA5",
"7  c #3E4DA6",
"8  c #3F4DA6",
"9  c #3F4EA7",
"0  c #404FA7",
"q  c #4150A7",
"w  c #4251A8",
"e  c #4351A8",
"r  c #4452A9",
"t  c #4654A9",
"y  c #4655AA",
"u  c #4856AB",
"i  c #4957AB",
"p  c #4B59AC",
"a  c #4C5AAD",
"s  c #4D5BAD",
"d  c #4F5DAE",
"f  c #505DAE",
"g  c #525FAF",
"h  c #5360AF",
"j  c #5361B0",
"k  c #5461B0",
"l  c #5663B1",
"z  c #5764B1",
"x  c #5966B3",
"c  c #5A67B3",
"v  c #5B68B3",
"b  c #5C69B4",
"n  c #5D69B4",
"m  c #5E6AB5",
"M  c #606CB5",
"N  c #606DB6",
"B  c #616DB6",
"V  c #6470B7",
"C  c #6672B9",
"Z  c #6874B9",
"A  c #6A75BA",
"S  c #6B76BB",
"D  c #6C77BB",
"F  c #6D78BB",
"G  c #6E79BC",
"H  c #6F7ABD",
"J  c #707BBD",
"K  c #727DBE",
"L  c #7781C0",
"P  c #7983C1",
"I  c #7B85C2",
"U  c #7D87C3",
"Y  c #818BC5",
"T  c #848DC6",
"R  c #8790C7",
"E  c #8791C8",
"W  c #8992C9",
"Q  c #8A93C9",
"!  c #8B94C9",
"~  c #8C95CA",
"^  c #8D96CB",
"/  c #929ACD",
"(  c #939BCD",
")  c #959DCE",
"_  c #979FCF",
"`  c #9AA1D0",
"'  c #A1A8D3",
"]  c #A2A9D4",
"[  c #A4ABD5",
"{  c #A5ACD5",
"}  c #A7ADD6",
"|  c #A7AED7",
" . c #ABB1D8",
".. c #B0B6DB",
"X. c #B4B9DC",
"o. c #B8BDDE",
"O. c #BABFDF",
"+. c #BBC1E0",
"@. c #BCC1E0",
"#. c #BEC3E1",
"$. c #C1C6E3",
"%. c #C5C9E4",
"&. c #C7CBE5",
"*. c #CACEE7",
"=. c #CDD1E8",
"-. c #CFD3E9",
";. c #D0D4E9",
":. c #D1D5EA",
">. c #D5D9EC",
",. c #D6D9EC",
"<. c #D8DBED",
"1. c #DBDDEE",
"2. c #E2E4F1",
"3. c #E2E5F2",
"4. c #E5E7F3",
"5. c #E7E9F4",
"6. c #E8E9F4",
"7. c #E9EBF5",
"8. c #EBEDF6",
"9. c #EDEEF7",
"0. c #EEEFF7",
"q. c #EFF0F7",
"w. c #F1F2F9",
"e. c #F2F3F9",
"r. c #F4F5FA",
"t. c #F5F5FA",
"y. c #F5F6FB",
"u. c #F6F7FB",
"i. c #F7F8FB",
"p. c #F9F9FC",
"a. c #FAFAFD",
"s. c #FBFBFD",
"d. c #FCFCFD",
"f. c #FCFDFE",
"g. c #FDFDFE",
"h. c #FEFEFF",
"j. c gray100",
/* pixels */
"j.j.j.j.j.j.j.j.j.j.j.j.j.j.j.j.j.j.j.j.j.j.j.j.j.j.o.0.j.j.j.j.",
"u.0.0.0.0.0.8.8.0.0.0.0.8.8.8.8.8.8.8.8.0.j.j.j.j.j.B _ j.j.j.j.",
"( : = = = = = = = = = = = = = = = = : = y u.j.j.j.4.o   J e.j.j.",
"T                                       9 j.j.j.j.]       q =.j.",
"L                                       y j.j.j.j.l         R j.",
"E p g l M M V S :         a D D B B b l H j.j.j.2.O         -.j.",
"j.j.j.j.j.j.j.j.i         o.j.j.j.j.j.j.j.j.j.j.|         q j.j.",
"j.j.j.j.j.j.j.j.q         *.( 1 0 q 4 x j.j.j.j.x         ~ j.j.",
"j.j.j.j.j.j.j.u.4         1.(         q j.j.j.4.@       O 2.j.j.",
"j.j.j.j.j.j.j.u.1         2.[         r j.j.j.!         A j.j.j.",
"j.j.j.j.j.j.j.e.-       o 6.X.        9 p.j.u.4         $.j.j.j.",
"j.j.j.j.j.j.j.q.=       o q.%.        9 p.j.@.        r j.j.j.j.",
"j.j.j.j.j.j.j.5.O       O u.-..       1 u.j.A         Q j.j.j.j.",
"j.j.j.j.j.j.j.2.o       - p.<.o     . : u.q.=         :.j.j.j.j.",
"j.j.j.j.j.j.j.<..       < p.2.o       O s. .        f j.j.j.j.j.",
"j.j.j.j.j.j.j.-.        5 j.5.O   . . % q.b         | j.j.j.j.j.",
"j.j.j.j.j.j.j.*.        0 j.e.%       O O.O o     = 0.j.j.j.j.j.",
"j.j.j.j.j.j.j.@.        i j.u.<     . = b         H j.j.j.j.j.j.",
"j.j.j.j.j.j.j. .        s j.p.9     . .           &.j.j.j.j.j.j.",
"j.j.j.j.j.j.j.|         z j.j.y                 9 p.j.j.j.j.j.j.",
"j.j.j.j.j.j.j.`         b j.j.p                 Y j.j.j.j.j.j.j.",
"j.j.j.j.j.j.j.Q         B j.j.h               . ,.j.j.j.j.j.j.j.",
"j.j.j.j.j.j.j.P         C j.j.h               f j.j.j.j.j.j.j.j.",
"j.j.j.j.j.j.j.A         F j.j.H               ' j.j.j.j.j.j.j.j.",
"j.j.j.j.j.j.j.f         C j.j.U             % 0.j.j.j.j.j.j.j.j.",
"j.j.j.j.j.j.j.K f b x h ~ j.j.I             A j.j.j.j.j.j.j.j.j.",
"j.j.j.j.j.j.j.j.j.j.j.j.j.j.j.I             O.j.j.j.j.j.j.j.j.j.",
"j.j.j.j.j.j.j.j.j.j.j.j.j.j.j.I           4 u.j.j.j.j.j.j.j.j.j.",
"j.j.j.j.j.j.j.j.j.j.j.j.j.j.j.I           L j.j.j.j.j.j.j.j.j.j.",
"j.j.j.j.j.j.j.j.j.j.j.j.j.j.j.L           O.j.j.j.j.j.j.j.j.j.j.",
"j.j.j.j.j.j.j.j.j.j.j.j.j.j.j._ a a a s x u.j.j.j.j.j.j.j.j.j.j.",
"j.j.j.j.j.j.j.j.j.j.j.j.j.j.j.j.j.j.j.j.j.j.j.j.j.j.j.j.j.j.j.j."
};
