/* XPM */
static char *toppview[] = {
/* columns rows colors chars-per-pixel */
"32 32 94 2",
"   c black",
".  c #AE2121",
"X  c #B02222",
"o  c #B42323",
"O  c #B62323",
"+  c #B82323",
"@  c #BA2424",
"#  c #BB2424",
"$  c #BC2424",
"%  c #BF2525",
"&  c #C12525",
"*  c #C32525",
"=  c #CB2727",
"-  c #CD2727",
";  c #CE2828",
":  c #CF2828",
">  c #D12828",
",  c #D22828",
"<  c #D42929",
"1  c #D72929",
"2  c #D82A2A",
"3  c #DA2A2A",
"4  c #DB2A2A",
"5  c #DC2A2A",
"6  c #DF2B2B",
"7  c #E02B2B",
"8  c #E12B2B",
"9  c #E22B2B",
"0  c #E32C2C",
"q  c #E52C2C",
"w  c #E72C2C",
"e  c #E82D2D",
"r  c #EA2D2D",
"t  c #EC2D2D",
"y  c #EE2E2E",
"u  c #EF2E2E",
"i  c #F12E2E",
"p  c #F32F2F",
"a  c #F42F2F",
"s  c #F52F2F",
"d  c #F62F2F",
"f  c #F72F2F",
"g  c #FA3030",
"h  c #FB3030",
"j  c #FC3030",
"k  c #FD3131",
"l  c #FE3131",
"z  c #FF3131",
"x  c #AEAEAE",
"c  c gray69",
"v  c #B4B4B4",
"b  c #B6B6B6",
"n  c gray72",
"m  c gray73",
"M  c #BBBBBB",
"N  c #BCBCBC",
"B  c #C1C1C1",
"V  c #C5C5C5",
"C  c #CBCBCB",
"Z  c gray80",
"A  c #CDCDCD",
"S  c #CECECE",
"D  c gray81",
"F  c gray82",
"G  c #D2D2D2",
"H  c gray83",
"J  c gray86",
"K  c #DFDFDF",
"L  c #FFD6D6",
"P  c gray88",
"I  c #E1E1E1",
"U  c #E2E2E2",
"Y  c gray89",
"T  c gray90",
"R  c gray91",
"E  c #EAEAEA",
"W  c #ECECEC",
"Q  c #EEEEEE",
"!  c #EFEFEF",
"~  c #F1F1F1",
"^  c gray95",
"/  c #F3F3F3",
"(  c #F4F4F4",
")  c gray96",
"_  c #F6F6F6",
"`  c gray97",
"'  c #F8F8F8",
"]  c #F9F9F9",
"[  c gray98",
"{  c #FBFBFB",
"}  c gray99",
"|  c #FDFDFD",
" . c #FEFEFE",
".. c gray100",
/* pixels */
"                                                                ",
"  ............................................................  ",
"  ......................                ......................  ",
"  ..................                        ..................  ",
"  ..............          . o o o # =           ..............  ",
"  ............        . + # ; - ; 3 3 1 =         ............  ",
"  ..........      . + # ; , 6 q q w 9 9 3 1 =       ..........  ",
"  ........      X # ; - 6 e p k k k p e 9 9 9 6       ....] ..  ",
"  ......      . # , 6 e p k k k k k k k p t u e 6       ( _ [   ",
"  ......    # * , 6 p k k k k k k k k k l l p p p k     Q [ _   ",
"  ....      * 1 9 p k                     k l k k k       ( _   ",
"  ....    # * 1 u k k                     k k k k p k     Q [   ",
"  ..      * 1 9 p k k   L L L     L L L   L k k k k k       W   ",
"  ..    # * 3 u k k k k L L L     L L L L L k k k k p k     D   ",
"  ..    ; 3 9 p k k k k L k k     L k k k L k k k k k k     D   ",
"  ..    ; 6 u k k k k k k k k     L k k k k k k k k k k     D   ",
"  ..    - 9 p k k k k k k k k     L k k k k k k k k k k     D   ",
"  ..    1 p f k k k k k k k k     L k k k k k k k k k k     D   ",
"  ..    u f f k k k k k k k k     L k k k k k k k k k k     D   ",
"  ..      p p k k k k k k k k     L k k k k k k k k k       V   ",
"  ( ..    u g p k k k k k k k     L k k k k k k k k k     N B   ",
"                      k k             k k                       ",
"                      k k             k k                       ",
"  ......C A A L L L L L k k L L L L L L k k L L L A Z A ( _ ] A ",
"  ......] A C A L L L L k k L L L L L L k k L L A Z A W ( ] ..C ",
"  ..( ^ T T       k k k k k k k k k k k k k k       c N G P (   ",
"  ....( ^ T P         k k k k k k k k k k         c N G K ^ ..  ",
"  ....] ( ^ E T           k k k k k k           c N G P ^ ....  ",
"  ........( ^ P H Z                         x m m G K ^ ......  ",
"  ........] ( T P J H Z                 x m m A G K ^ ........  ",
"  ..........] ( E Y P J A v v v v v v b m A G J E ( ..........  ",
"                                                                "
};
