/* XPM */
static const char *toppview[] = {
/* columns rows colors chars-per-pixel */
"64 64 175 2",
"   c #000000",
".  c #03040B",
"X  c #0B0B0B",
"o  c #040612",
"O  c #050814",
"+  c #060A1D",
"@  c #0B0C14",
"#  c #080B1F",
"$  c #101114",
"%  c #11121C",
"&  c #17181C",
"*  c #191A1E",
"=  c #080C23",
"-  c #090E2A",
";  c #0D1127",
":  c #0B102F",
">  c #0B1133",
",  c #0D143B",
"<  c #121523",
"1  c #161927",
"2  c #1A1C2C",
"3  c #111738",
"4  c #141A38",
"5  c #1C203C",
"6  c #25262D",
"7  c #222537",
"8  c #2B2D34",
"9  c #2A2D3F",
"0  c #0E1643",
"q  c #121944",
"w  c #10184A",
"e  c #131C55",
"r  c #141E5A",
"t  c #16205D",
"y  c #18225D",
"u  c #162162",
"i  c #172368",
"p  c #192463",
"a  c #19246B",
"s  c #1E2864",
"d  c #1D296B",
"f  c #192673",
"g  c #1C2874",
"h  c #1B297B",
"j  c #282E52",
"k  c #2F3242",
"l  c #3A3C47",
"z  c #353A58",
"x  c #212C6E",
"c  c #222E74",
"v  c #212E79",
"b  c #28326B",
"n  c #253074",
"m  c #26327B",
"M  c #28347B",
"N  c #2E3874",
"B  c #363D62",
"V  c #383E62",
"C  c #3E404B",
"Z  c #3A4065",
"A  c #394172",
"S  c #3C457D",
"D  c #41434E",
"F  c #4D505E",
"G  c #555555",
"H  c #454963",
"J  c #41486F",
"K  c #4A4E65",
"L  c #414875",
"P  c #535564",
"I  c #575A6B",
"U  c #585B6B",
"Y  c #696C7E",
"T  c #1D2C83",
"R  c #1E2E8A",
"E  c #202D82",
"W  c #202F8A",
"Q  c #253283",
"!  c #22318C",
"~  c #293684",
"^  c #2D3A82",
"/  c #2C398B",
"(  c #223394",
")  c #233499",
"_  c #27389A",
"`  c #283795",
"'  c #2A3994",
"]  c #2B3B9C",
"[  c #313D86",
"{  c #303D89",
"}  c #313E93",
"|  c #303F99",
" . c #34408B",
".. c #354293",
"X. c #32419D",
"o. c #394692",
"O. c #38469C",
"+. c #3C4995",
"@. c #3E4C9C",
"#. c #3343A1",
"$. c #3846A2",
"%. c #3B4AA4",
"&. c #404E9B",
"*. c #485082",
"=. c #4C558C",
"-. c #46529E",
";. c #555C88",
":. c #515B97",
">. c #404FA6",
",. c #404FA8",
"<. c #4251A5",
"1. c #4452A8",
"2. c #4956A4",
"3. c #4856AA",
"4. c #4C59A5",
"5. c #4C5AAC",
"6. c #505DAE",
"7. c #5360AE",
"8. c #5A63A1",
"9. c #5965AB",
"0. c #5562B0",
"q. c #5865B2",
"w. c #5C69B3",
"e. c #606584",
"r. c #646985",
"t. c #6B6E80",
"y. c #6F7387",
"u. c #72768B",
"i. c #75798E",
"p. c #606CAD",
"a. c #616DB6",
"s. c #6470B7",
"d. c #6571B8",
"f. c #6974B0",
"g. c #6A75BA",
"h. c #6E79BC",
"j. c #797EA1",
"k. c #727CBD",
"l. c #7C8094",
"z. c #7E829A",
"x. c #7A81A1",
"c. c #7780B7",
"v. c #7580BF",
"b. c #7580C0",
"n. c #7A84C1",
"m. c #7E88C3",
"M. c #80849B",
"N. c #85889F",
"B. c #878CA7",
"V. c #8E94B8",
"C. c #979CBC",
"Z. c #989DBB",
"A. c #9BA0BB",
"S. c #838CC5",
"D. c #868FC8",
"F. c #8790C8",
"G. c #8B94C9",
"H. c #939BCD",
"J. c #97A0CF",
"K. c #9CA3CB",
"L. c #9CA3D1",
"P. c #A2A8CB",
"I. c #A9AECE",
"U. c #A0A7D3",
"Y. c #A4ABD5",
"T. c #A8AED7",
"R. c #ABB0CF",
"E. c #A9B0D7",
"W. c #ACB2D8",
"Q. c #B0B6DA",
"!. c #B4BADC",
"~. c #B8BEDE",
"^. c #BAC0DF",
"/. c gray100",
"(. c None",
/* pixels */
"(.(.(.(.(.(.(.(.(.(.(.(.(.(.(.(.(.(.(.(.(.(.(.(.(.(.(.(.(.(.(.(.(.(.(.(.(.(.(.(.(.(.(.(.(.(.(.(.(.(.(.(.(.(.(.(.(.(.(.(.(.(.(.(.",
"(.(.(.(.(.(.(.(.(.(.(.(.(.(.(.(.(.(.(.(.(.(.(.(.(.(.(.(.(.(.(.(.(.(.(.(.(.(.(.(.(.(.(.(.(.(.(.(.(.(.(.(.(.(.(.(.(.(.(.(.(.(.(.(.",
"(.(.(.(.(.(.(.(.(.(.(.(.(.(.(.(.(.(.(.(.(.(.(.(.                                (.(.(.(.(.(.(.(.(.(.(.(.(.(.(.(.(.(.(.(.(.(.(.(.",
"(.(.(.(.(.(.(.(.(.(.(.(.(.(.(.(.(.(.(.(.(.                                            (.(.(.(.(.(.(.(.(.(.(.(.(.(.(.(.(.(.(.(.(.",
"(.(.(.(.(.(.(.(.(.(.(.(.(.(.(.(.(.(.              * l I u.B.Z.P.K.V.j.e.H 9 %               (.(.(.(.(.(.(.(.(.(.(.(.(.(.(.(.(.(.",
"(.(.(.(.(.(.(.(.(.(.(.(.(.(.(.(.(.          6 P z.I.!.Q.Q.W.W.W.Y.U.L.H.F.m.f.*.j ;           (.(.(.(.(.(.(.(.(.(.(.(.(.(.(.(.(.",
"(.(.(.(.(.(.(.(.(.(.(.(.(.(.(.    . .   D i.T.!.Q.Q.W.W.T.W.T.Y.U.L.H.G.S.v.g.w.0.-.b 3 .         (.(.(.(.(.(.(.(.(.(.(.(.(.(.(.",
"(.(.(.(.(.(.(.(.(.(.(.(./.G   X     D M.!.!.!.Q.W.W.T.E.Y.Y.L.L.K.H.G.S.n.h.d.q.5.1.%.$.x 3 .   .   G /.(.(.(.(.(.(.(.(.(.(.(.(.",
"(.(.(.(.(.(.(.(.(.(.(./.    X   8 i.!.!.!.Q.Q.T.E.Y.Y.U.L.L.H.H.G.G.S.n.k.g.w.0.3.1.$.$.#.] i ;         /.(.(.(.(.(.(.(.(.(.(.(.",
"(.(.(.(.(.(.(.(.(.(./.        P A.~.~.!.!.W.T.Y.U.L.L.H.H.H.G.F.D.m.v.k.g.a.q.6.3.1.%.$.#.#.] Q q X       /.(.(.(.(.(.(.(.(.(.(.",
"(.(.(.(.(.(.(.(.(.(.  $   * y.^.~.!.!.Q.W.T.Y.U.L.H.H.G.F.S.S.S.m.v.k.g.d.w.0.6.3.1.1.$.$.#.X.X.X.y O . o   (.(.(.(.(.(.(.(.(.(.",
"(.(.(.(.(.(.(.(.(.  $   6 l.^.~.~.!.Q.W.Y.U.L.J.H.G.F.S.m.m.n.n.k.h.h.d.a.w.0.6.6.3.1.1.%.$.#.#.X.] s # . X   (.(.(.(.(.(.(.(.(.",
"(.(.(.(.(.(.(.(.      6 B.^.~.~.!.Q.T.T.L.L.J.H.G.S.S.m.n.n.k.v.h.h.g.d.a.w.w.q.7.6.5.3.1.%.$.$.X.] _ g #       (.(.(.(.(.(.(.(.",
"(.(.(.(.(.(.(.      * i.^.~.~.!.Q.W.T.U.L.J.G.G.S.S.m.n.n.v.k.k.k.h.g.g.d.s.a.w.w.0.q.5.5.3.1.$.$.X.] _ p O       (.(.(.(.(.(.(.",
"(.(.(.(.(.(.(.      Y ~.~.~.!.Q.W.T.U.L.J.H.G.F.S.S.m.v.v.v.k.k.k.h.h.g.g.g.d.d.d.w.w.w.q.5.3.%.$.$.| _ ` e       (.(.(.(.(.(.(.",
"(.(.(.(.(.(.  X   F ~.~.~.!.Q.W.E.U.    .   X X X X X X X X X $ X X X X X X X X X X @ X %   5.3.%.$.X.] ` ( ,   .   (.(.(.(.(.(.",
"(.(.(.(.(.(.    8 C.!.~.Q.Q.W.Y.Y.L.          X X     X X       X X X X   X X .   X X X @   7.3.<.%.X.] ` ` f #     (.(.(.(.(.(.",
"(.(.(.(.(.      y.~.!.!.Q.W.Y.U.H.J.                            X   X                       q.5.1.%.O.] _ ! W w       (.(.(.(.(.",
"(.(.(.(.      C !.!.!.Q.T.T.U.H.H.G.                  .       X             .               q.6.3.%.$.] ` ` W T -       (.(.(.(.",
"(.(.(.(.      z.~.!.Q.W.Y.L.H.H.G.D.        J a.d.s.a.s.d.X X X X X X V a.d.a.a.a.a.        w.6.3.%.O.] ` ! R T e       (.(.(.(.",
"(.(.(.(.    C !.!.Q.W.Y.L.H.G.D.S.m.        8.a.s.s.s.a.s.X X X X X X V a.a.a.a.a.a.        q.5.3.%.$.] ' ! R h h -     (.(.(.(.",
"(.(.(.  .   i.!.!.W.T.U.J.G.D.m.k.k.      V p.d.s.s.a.a.s.X X X X X X V a.a.a.a.d.a.:.      0.5.1.%.O.| ` ! W T g 0   .   (.(.(.",
"(.(.(.    6 R.!.Q.W.L.L.G.D.n.k.h.g.      p.d.a.s.a.a.a.a.X @ X X X X V a.a.a.a.a.a.a.      0.3.<.%.X.] ` ! R h h u O     (.(.(.",
"(.(.(.    P !.!.W.Y.L.G.D.n.k.d.a.a.      w.w.w.w.a.s.a.a.X X X X X X B a.a.a.a.w.q.q.B   . 3.3.%.%.X.] ` ! T h h a -     (.(.(.",
"(.(.      z.!.Q.T.L.H.D.n.k.a.w.q.q.     .0.0.0.q.w.w.d.s.X X X X X X V d.a.w.q.0.0.5.6..   3.%.%.$.X.' ` W T h f a w       (.(.",
"(.(.    * I.Q.T.U.L.G.m.k.d.w.0.5.5.3.3.5.5.3.3.0.0.w.w.a.X X X X X X V a.a.q.0.6.0.3.%.1.1.%.%.$.X.] ` ( R T h f i r .     (.(.",
"(.(.    l !.W.T.L.H.S.v.d.q.0.3.1.3.1.%.%.%.%.3.3.6.q.a.s.X X X X X X V a.w.0.5.5.%.%.%.%.%.$.#.X.] ` ` ! W T h f i u =     (.(.",
"(.(.    U Q.W.Y.H.G.n.g.w.0.3.3.%.%.$.%.%.%.%.%.3.3.q.w.d.X X X X X X V a.q.6.3.%.%.%.$.$.#.#.X.] ] ` ` ! W T g f u u -     (.(.",
"(.(.    u.W.Y.L.H.S.h.s.7.3.%.$.$.#.$.#.#.#.$.%.%.3.6.w.w.@ X X X X X B a.q.5.1.%.%.#.#.#.X.X.] ] ` ` ( W R h g f i u ,     (.(.",
"(.(.    B.W.U.L.F.n.h.w.5.1.$.#.X.X.] ] ] ] #.$.%.3.6.w.s.@ X X X X X B a.0.3.1.%.#.#.] ] ] ] _ ` ` ( ( R T h f i u r 0     (.(.",
"(.(.    Z.T.L.H.S.k.a.7.3.%.$.X._ ] _ _ ] ] #.$.%.3.6.w.a.X X X X X X B a.0.5.1.%.#.] ] _ _ _ _ ) ( ( ! R T h f a u r e     (.(.",
"(.(.    P.Y.L.G.n.h.q.5.%.$.X.] _ _ _ _ _ _ ] #.%.3.6.q.a.X X X X X @ B a.q.3.%.$.#.] _ _ ) ` ) ( ( ( ! R h g f i u r e     (.(.",
"(.(.    K.U.H.F.b.d.0.3.$.#.] _ ) ) ) ) ) _ _ #.$.1.5.w.d.X X X X X X V a.0.3.%.$.#._ _ ) ) ) ( ( ) R R T T f i i u r r .   (.(.",
"(.(.    V.L.G.m.h.a.5.%.$.#._ _ ) ) ) ) ) _ ] #.$.1.5.q.d.X X X X X X V a.0.5.%.#.] ] ) ) ) ) ( ( R R R T f f i i r r w     (.(.",
"(.(.    z.H.F.v.d.0.5.%.#.] _ ) ) ) ) ) ) _ ] #.%.1.6.w.a.@ X X X X X V a.0.3.%.#.#.] _ ) ) ) ) ) R R R T f f i u u r 0     (.(.",
"(.(.    r.H.S.k.a.6.%.$.#.] _ ) ) ) ) ) ) _ _ #.$.1.5.q.a.X X X X X @ Z a.0.3.1.#.#._ ) ) ) ) ) ( R R R T f i i r r r >     (.(.",
"(.(.    K G.m.h.q.5.%.$.] _ _ ) ) ) ) ) _ _ ] #.$.1.5.w.a.X X X X X X B a.0.3.%.$.] ] ) ) ( ( ( R R T T f f i i r r r -     (.(.",
"(.(.    k S.k.g.q.3.%.#.#._ _ ) ) ) ) ) ) _ ] #.$.3.3.w.d.X X X X X X V a.0.5.%.$.] ] ) ) ( ( ( R R T T f i i u r r r O     (.(.",
"(.(.    ; k.k.a.q.%.$.#._ _ ) ) ) ) ) ) ) _ ] X.$.1.5.w.a.X X X X X X V a.0.3.%.$.] ) ) ( ( ( ( R R R T f i i u r r e .     (.(.",
"(.(.    . :.g.q.5.%.$.] _ ) ) ) ) ) ) ) ) _ ] #.$.1.6.w.d.X X X X X X V a.0.5.%.$._ ) ) ) ( ( R R R T f f i u r r r ,       (.(.",
"(.(.(.    z s.0.3.%.$.] _ ) ) ) ) ) ) ) ) ) ) ] $.3.6.q.a.X X X X X X V a.0.5.1.$.| ] ) ( ( R R T T h f a u r r r r -     (.(.(.",
"(.(.(.    1 9.6.%.%.#.] ] ) ) ) ) ) ) ) ) ) ] #.%.3.0.w.a.X X @ X X X V a.9.5.%.$.#.] _ ( ( ! R T h f f i i r r e e o     (.(.(.",
"(.(.(.      N 6.%.$.#.] _ ) ) ) ) R ) ) ) ] ] $.%.5.7.a.a.X X X X X X V a.w.6.1.%.X.] ` ( ! R T T h f i i r r r r ,       (.(.(.",
"(.(.(.(.    5 2.%.$.] _ _ ) ) ) ) ) ) ) ) _ #.$.%.3.0.a.a.X X X X X @ V a.w.6.3.%.$.] ` ` ! R R h f f i i r r r e +     (.(.(.(.",
"(.(.(.(.    . N $.#.] _ ) ) ) ) ) ) ) ) ] ] #.$.1.5.q.a.a.X X X X X X V a.w.7.3.%.O.] ' ! Q Q h f f i u r r r r ,       (.(.(.(.",
"(.(.(.(.      4 $.] _ _ ) ) ) ) ) ) ) ) ] ] #.$.%.5.0.a.a.X X X X X X V a.a.7.3.1.O.| ' ! W h h f i u u r r r r #       (.(.(.(.",
"(.(.(.(.(.      a _ ) ) ) ) ) ) ) ) _ _ _ ] #.$.1.5.q.a.=.X X X X X X 7 a.a.6.4.>.O.| ' ! T h g f i r r r e r >       (.(.(.(.(.",
"(.(.(.(.(.(.    - ) _ ) ) ) ) ) ) ) ) _ _ #.$.$.1.5.9.9.2 X X X X X X X L a.6.4.-.O.{ / ~ v g d i u r u r e w O     (.(.(.(.(.(.",
"(.(.(.(.(.(.  .   3 _ ) ) ) ) ( ( ) ) _ ] ] #.$.3.j 4 $ X   X X X X X X X & 2   &.+.} ~ m v g i u u r r r e =   .   (.(.(.(.(.(.",
"(.(.(.(.(.(.(.    . e _ ) ) ) ) ) ) ) ) ] #.#.$.%.X X X X X X X   X       X .   @.../ ~ v g s p r r r e e -       (.(.(.(.(.(.(.",
"(.(.(.(.(.(.(.      o u ) ) ) ) ) ) ) _ ] ] #.$.%.3.4.6.7.w.a.a.s.p.w.9.9.4.-.&.o. .^ m c d i u r r r e , .       (.(.(.(.(.(.(.",
"(.(.(.(.(.(.(.(.      # i ( ( ) ) ) ) ) _ ] X.#.%.%.1.3.4.6.6.7.7.7.9.4.2.-.&.o. .^ ~ c d i p y r e e 0 o       (.(.(.(.(.(.(.(.",
"(.(.(.(.(.(.(.(.(.  .   = u ) ) ( ) ) ) ` ] ] X.X.%.%.<.<.3.2.3.4.2.1.-.&.+. . .[ M c x s p y r r r , o   .   (.(.(.(.(.(.(.(.(.",
"(.(.(.(.(.(.(.(.(.(.  .   o e ) ( ( ) ) _ ` _ X.| X.O.O.%.O.&.>.&.&.+.+.o. .[ [ M c x s p y r r e > .   .   (.(.(.(.(.(.(.(.(.(.",
"(.(.(.(.(.(.(.(.(.(.(.        0 h ( ( ( ( ` ` ` ' ] | X.O.O....... ...{ { ^ M N x x s i y y r w =         (.(.(.(.(.(.(.(.(.(.(.",
"(.(.(.(.(.(.(.(.(.(.(.(.        = r ( ! ( ( ! ` ' ' ' / / ' ' / / / ~ ~ M m c x x s p y y e , O         (.(.(.(.(.(.(.(.(.(.(.(.",
"(.(.(.(.(.(.(.(.(.(.(.(.(.    .     > r ! ! ! ! ! Q ! Q ! Q Q Q Q m v v c c s s p y y y , #           (.(.(.(.(.(.(.(.(.(.(.(.(.",
"(.(.(.(.(.(.(.(.(.(.(.(.(.(.(.        . - r h T W W Q h v T v h v g d d i p p u y e , #           (.(.(.(.(.(.(.(.(.(.(.(.(.(.(.",
"(.(.(.(.(.(.(.(.(.(.(.(.(.(.(.(.(.          # , e f h g h g f d d a a u u r r 0 - o           (.(.(.(.(.(.(.(.(.(.(.(.(.(.(.(.(.",
"(.(.(.(.(.(.(.(.(.(.(.(.(.(.(.(.(.(.              X # , 0 e r u r r w , - # .               (.(.(.(.(.(.(.(.(.(.(.(.(.(.(.(.(.(.",
"(.(.(.(.(.(.(.(.(.(.(.(.(.(.(.(.(.(.(.(.(.                                            (.(.(.(.(.(.(.(.(.(.(.(.(.(.(.(.(.(.(.(.(.",
"(.(.(.(.(.(.(.(.(.(.(.(.(.(.(.(.(.(.(.(.(.(.(.(.                                (.(.(.(.(.(.(.(.(.(.(.(.(.(.(.(.(.(.(.(.(.(.(.(.",
"(.(.(.(.(.(.(.(.(.(.(.(.(.(.(.(.(.(.(.(.(.(.(.(.(.(.(.(.(.(.(.(.(.(.(.(.(.(.(.(.(.(.(.(.(.(.(.(.(.(.(.(.(.(.(.(.(.(.(.(.(.(.(.(.",
"(.(.(.(.(.(.(.(.(.(.(.(.(.(.(.(.(.(.(.(.(.(.(.(.(.(.(.(.(.(.(.(.(.(.(.(.(.(.(.(.(.(.(.(.(.(.(.(.(.(.(.(.(.(.(.(.(.(.(.(.(.(.(.(."
};
