/* XPM */
static char *toppview[] = {
/* columns rows colors chars-per-pixel */
"64 64 160 2",
"   c #000000",
".  c #03040B",
"X  c #0C0C0C",
"o  c #040612",
"O  c #060A1D",
"+  c #0F1013",
"@  c #101115",
"#  c #14151B",
"$  c #191A1E",
"%  c #090C24",
"&  c #090E2B",
"*  c #101324",
"=  c #161924",
"-  c #1A1C25",
";  c #1C1E2C",
":  c #0C1133",
">  c #0D143B",
",  c #121837",
"<  c #151B39",
"1  c #1E2130",
"2  c #1C203C",
"3  c #24252C",
"4  c #252730",
"5  c #2A2B32",
"6  c #2C2E3E",
"7  c #0F1643",
"8  c #111844",
"9  c #10194A",
"0  c #131C55",
"q  c #141E5A",
"w  c #15205F",
"e  c #2F3242",
"r  c #3A3C47",
"t  c #292F52",
"y  c #2B3154",
"u  c #353A58",
"i  c #162163",
"p  c #182365",
"a  c #1F2862",
"s  c #172369",
"d  c #18246D",
"f  c #1E2A6D",
"g  c #1A2673",
"h  c #1C2976",
"j  c #1C297C",
"k  c #27316A",
"l  c #222F7D",
"z  c #2E3874",
"x  c #24317E",
"c  c #3F404C",
"v  c #394172",
"b  c #4C4F5D",
"n  c #454963",
"m  c #4A4E65",
"M  c #41476D",
"N  c #4E536C",
"B  c #545766",
"V  c #575A6B",
"C  c #585B6B",
"Z  c #525671",
"A  c #5B5F7B",
"S  c #676A7C",
"D  c #1D2C83",
"F  c #1F2E8B",
"G  c #202E84",
"H  c #202F8E",
"J  c #253284",
"K  c #2A3787",
"L  c #2C3A86",
"P  c #21318E",
"I  c #28368C",
"U  c #303E8D",
"Y  c #213294",
"T  c #283793",
"R  c #2A3995",
"E  c #233499",
"W  c #27389B",
"Q  c #2B3B9D",
"!  c #313F93",
"~  c #354391",
"^  c #384493",
"/  c #31409E",
"(  c #39479A",
")  c #3C4A9D",
"_  c #3443A1",
"`  c #3847A3",
"'  c #3C4BA5",
"]  c #464E82",
"[  c #485082",
"{  c #555C88",
"}  c #404D99",
"|  c #45519E",
" . c #5D6282",
".. c #606584",
"X. c #646985",
"o. c #6F7387",
"O. c #71758B",
"+. c #74788E",
"@. c #797D92",
"#. c #70769C",
"$. c #404FA7",
"%. c #4250A7",
"&. c #4A57A6",
"*. c #4E5AA4",
"=. c #4553A9",
"-. c #4856AB",
";. c #4B59AC",
":. c #515DA6",
">. c #515EAE",
",. c #525FB0",
"<. c #5461AE",
"1. c #5A65AB",
"2. c #5663B1",
"3. c #5966B3",
"4. c #5D69B4",
"5. c #7077A5",
"6. c #797EA1",
"7. c #616DB6",
"8. c #6470B6",
"9. c #6974B0",
"0. c #6672B8",
"q. c #6975BA",
"w. c #6E79BC",
"e. c #757EB7",
"r. c #727DBD",
"t. c #7E829A",
"y. c #7A81A1",
"u. c #7780B7",
"i. c #7580BF",
"p. c #7A84BE",
"a. c #7681C0",
"s. c #7A85C2",
"d. c #7E88C3",
"f. c #81859D",
"g. c #878CA7",
"h. c #8188B3",
"j. c #8F95B8",
"k. c #979CBC",
"l. c #989DBA",
"z. c #828CC5",
"x. c #8790C7",
"c. c #8F96C6",
"v. c #8791C8",
"b. c #8B94C9",
"n. c #8F98CB",
"m. c #939BCD",
"M. c #9AA2CD",
"N. c #9CA4D1",
"B. c #A2A8CB",
"V. c #A9AECE",
"C. c #ABB0CF",
"Z. c #A0A7D3",
"A. c #A4ABD5",
"S. c #A8AED7",
"D. c #A9B0D7",
"F. c #ADB3D9",
"G. c #B0B6DB",
"H. c #B4BADC",
"J. c #B8BDDE",
"K. c None",
/* pixels */
"K.K.K.K.K.K.K.K.K.K.K.K.K.K.K.K.K.K.K.K.K.K.K.K.K.K.K.K.K.K.K.K.K.K.K.K.K.K.K.K.K.K.K.K.K.K.K.K.K.K.K.K.K.K.K.K.K.K.K.K.K.K.K.K.",
"K.K.K.K.K.K.K.K.K.K.K.K.K.K.K.K.K.K.K.K.K.K.K.K.K.K.K.K.K.K.K.K.K.K.K.K.K.K.K.K.K.K.K.K.K.K.K.K.K.K.K.K.K.K.K.K.K.K.K.K.K.K.K.K.",
"K.K.K.K.K.K.K.K.K.K.K.K.K.K.K.K.K.K.K.K.K.K.K.K.K.                            K.K.K.K.K.K.K.K.K.K.K.K.K.K.K.K.K.K.K.K.K.K.K.K.K.",
"K.K.K.K.K.K.K.K.K.K.K.K.K.K.K.K.K.K.K.K.K.K.                                        K.K.K.K.K.K.K.K.K.K.K.K.K.K.K.K.K.K.K.K.K.K.",
"K.K.K.K.K.K.K.K.K.K.K.K.K.K.K.K.K.K.K.            $ r V O.g.k.B.M.j.6...n 6 #             K.K.K.K.K.K.K.K.K.K.K.K.K.K.K.K.K.K.K.",
"K.K.K.K.K.K.K.K.K.K.K.K.K.K.K.K.K.          3 B t.V.G.G.G.F.F.D.A.Z.N.m.v.d.9.[ t *           K.K.K.K.K.K.K.K.K.K.K.K.K.K.K.K.K.",
"K.K.K.K.K.K.K.K.K.K.K.K.K.K.K.K.      . c +.V.H.G.F.F.F.D.D.A.A.N.N.m.b.z.i.q.4.>.| k ,         K.K.K.K.K.K.K.K.K.K.K.K.K.K.K.K.",
"K.K.K.K.K.K.K.K.K.K.K.K.K.K.  .     c t.H.H.G.F.F.D.S.A.A.Z.N.N.m.m.v.z.a.w.7.2.;.%.` _ f :     .   K.K.K.K.K.K.K.K.K.K.K.K.K.K.",
"K.K.K.K.K.K.K.K.K.K.K.K.K.      5 O.H.H.G.F.F.S.A.Z.N.N.M.m.m.n.v.z.d.r.w.7.2.;.=.' _ Q Q W w %       K.K.K.K.K.K.K.K.K.K.K.K.K.",
"K.K.K.K.K.K.K.K.K.K.K.K.      b l.H.H.G.F.S.A.N.N.m.m.n.b.v.z.z.s.i.w.0.4.2.;.=.' ` / Q W W E j 7       K.K.K.K.K.K.K.K.K.K.K.K.",
"K.K.K.K.K.K.K.K.K.K.K.+   # S J.H.H.F.D.A.N.N.m.b.v.z.d.s.a.r.r.w.0.7.3.>.;.%.' _ / Q W W E E E E 0 o   . K.K.K.K.K.K.K.K.K.K.K.",
"K.K.K.K.K.K.K.K.K.K.+   3 @.J.H.H.F.D.A.N.M.m.b.z.d.s.r.r.w.q.0.7.4.3.2.;.=.%.' ` _ _ Q Q Q W W E E i O   . K.K.K.K.K.K.K.K.K.K.",
"K.K.K.K.K.K.K.K.K.    3 f.J.H.H.G.D.A.Z.N.m.n.x.z.s.i.r.w.q.q.0.7.4.3.2.,.;.;.-.=.%.$.' ` _ Q Q E E E d O     K.K.K.K.K.K.K.K.K.",
"K.K.K.K.K.K.K.K.    # @.J.J.H.F.F.S.A.Z.N.m.m.b.z.z.d.s.a.r.r.r.w.q.q.0.7.7.4.4.4.3.2.>.;.%.` Q W E E Y i o     K.K.K.K.K.K.K.K.",
"K.K.K.K.K.K.K.      S J.J.H.F.F.S.A.S.A.A.A.Z.N.m.m.m.n.b.b.v.v.v.z.z.z.z.z.d.d.s.s.a.r.8.2.=.` Q W Y Y Y 0       K.K.K.K.K.K.K.",
"K.K.K.K.K.K.K..   b J.J.H.F.D.S.A.A.        X X X X X X X X X X X X X X X X X X X X X X =   2.%./ W Y Y Y Y >     K.K.K.K.K.K.K.",
"K.K.K.K.K.K.    5 l.J.H.G.D.A.N.Z.A.          X X . . . . .     X X X X X X X X X X X X @   8.-._ W E Y Y P g O     K.K.K.K.K.K.",
"K.K.K.K.K.      o.J.H.G.D.A.N.N.N.A.                          . X X X                       w.>.` Q Y Y Y P F 0       K.K.K.K.K.",
"K.K.K.K.K.    c H.J.H.F.A.N.m.m.m.Z.                          X                             i.2.' Q Y Y Y P F D &     K.K.K.K.K.",
"K.K.K.K.    . t.J.H.F.S.N.m.b.x.n.N.        A c.n.v.b.m.m.X X X X X X N m.m.v.v.m.c.        a.2.' Q Y Y Y F F D 0       K.K.K.K.",
"K.K.K.K.    c J.H.G.F.Z.M.b.z.d.z.m.        h.p.q.0.w.d.m.X X X X X X N b.i.0.0.r.b.        i.2.' Q Y Y Y F F D h %     K.K.K.K.",
"K.K.K.K.    +.J.H.F.A.N.n.z.a.i.s.b.      Z e.7.;.;.2.q.b.X X X X X X N s.7.;.;.3.r.5.      w.2.' Q Y Y Y F F D h 9     K.K.K.K.",
"K.K.K.    3 C.H.G.D.Z.m.x.a.w.q.r.d.      e.8.;.` ` =.4.z.X X X X X X N w.>.' ` =.3.r.      0.;.` Q Y Y Y F D j h s o     K.K.K.",
"K.K.K.    B H.G.F.A.N.b.d.w.8.7.0.w.      0.>.' Q Q ' 2.s.X X X X X X N q.;._ Q _ -.4.M     4.-._ W Y Y Y F D j g d :     K.K.K.",
"K.K.K.    f.H.F.S.N.m.z.i.8.3.2.3.4.    ] <.%._ W Q ' 2.s.X X X X X X N q.;._ Q Q ' ;.:.    ;.' / W Y Y P F D j g d 8     K.K.K.",
"K.K.    $ V.G.D.Z.m.b.s.q.4.<.;.;.;.>.>.;.' _ Q E Q ' 2.s.X X X X X X N q.;._ W W _ ' %.-.-.' _ Q E Y Y P F D j g d q .     K.K.",
"K.K.    r H.F.S.N.m.z.r.7.2.-.$.' ' ' ' ` _ Q W E Q ' 2.s.X X X X X X N q.;._ W W Q / _ ` ` _ Q W E Y Y F F D j g s i O     K.K.",
"K.K.    C G.D.Z.m.b.s.q.3.;.%.' _ _ _ _ Q Q W E E Q ' 2.s.X X X X X X N q.;._ W E W W Q Q Q Q W W Y Y Y F D j h g s i &     K.K.",
"K.K.    O.F.S.N.m.z.r.7.>.=.' _ Q W W W E E E E E Q ' 2.s.X X X X X X N q.;._ W E E E E W W E E E Y Y Y F D j g d s i >     K.K.",
"K.K.    g.F.A.M.b.s.q.3.;.' ` Q W W E E E E E E E Q ' 2.s.X X X X X X N q.;._ W E E E E E E E E Y Y Y P F D j g d p i 7     K.K.",
"K.K.    k.S.N.m.z.r.7.<.=.' _ Q W W E E E E E E E Q ' 2.s.X X X X X X N q.;._ W E E E E E E E Y Y Y Y F F D j g d i q 9     K.K.",
"K.K.    B.A.N.b.s.w.4.;.' ` Q Q W E E E E E E E E Q ' 2.s.X X X X X X N q.;._ W E E E E E E E E Y Y Y F D j h g s i q 0     K.K.",
"K.K.    M.Z.m.z.r.0.2.=.` _ Q W E E E E E E E E E Q ' 2.s.X X X X X X N q.;._ W E E E E E E E Y Y Y P F D j g d s i q 0     K.K.",
"K.K.    j.N.n.d.w.4.;.$.` Q W W E E E E E E E E E Q ' 2.s.X X X X X X N q.;._ W E E E E E E Y Y Y Y F F D j g d i q q 9     K.K.",
"K.K.    y.m.v.a.0.2.-.' _ Q W W E E E E E E E E E Q ' 2.s.X X X X X X N q.;._ W E E E E E E Y Y Y P F D D h g s i q q 7     K.K.",
"K.K.    X.m.z.r.7.>.=.` _ Q W E E E E E E E E E E Q ' 2.s.X X X X X X N q.;._ W E E E E E E Y Y Y H F D j g d p i q q >     K.K.",
"K.K.    m b.s.w.4.;.' ` Q Q W E E E E E E E E E E Q ' 2.s.X X X X X X N q.;._ W E E E E E Y Y Y Y F D D j g d i q q q &     K.K.",
"K.K.    e z.a.0.2.-.' _ Q W E E E E E E E E E E E Q ' 2.s.X X X X X X N q.;._ W E E E E Y Y Y Y P F D j g d s i q q q O     K.K.",
"K.K.    # u.w.7.>.=.` / Q W E E E E E E E E E E E Q ' 2.s.X X X X X X N q.;._ W E E E E Y Y Y Y F F D j g d p w q q 0 .     K.K.",
"K.K.K.    { q.3.;.' ` Q W W E E E E E E E E E E E Q ' 2.s.X X X X X X N q.;._ W E E E E Y Y Y P F D j h g s i q q q >     K.K.K.",
"K.K.K.    u 8.2.-.' _ Q W W E E E E E E E E E E E Q ' 2.s.X X X X X X N q.;._ W E E E Y Y Y P F D D j g d p i q q q &     K.K.K.",
"K.K.K.    = 1.>.%.` _ Q W E E E E E E E E E E E E Q ' 2.s.X X X X X X N q.;._ W E E E Y Y Y F F D j g d s i q q q 0 o     K.K.K.",
"K.K.K.K.    v ;.' ` Q Q W E E E E E E E E E E E E Q ' 2.s.X X X X X X N q.;._ W E Y Y Y Y P F D D h g d p i q q q >     K.K.K.K.",
"K.K.K.K.    2 -.' _ Q W W E E E E E E E E E E E E Q ' 3.s.X X X X X X N q.;._ W E Y Y Y P F D D j g d s i q q q q O     K.K.K.K.",
"K.K.K.K.      z ` _ Q W W E E E E E E E E E E E W _ =.7.z.X X X X X X N r.>.' Q E E Y Y F F D j g g s i w q q q >       K.K.K.K.",
"K.K.K.K.K.    < _ Q Q W E E E E E E E E E E E W Q ' ;.q.n.X X X X X X N d.7.-._ Q T Y P F D j h g d p i q q q 0 O     K.K.K.K.K.",
"K.K.K.K.K.      a Q W W E E E E E E E E E E W Q _ %.3.i.#.X X X X X X 6 x.q.<.' / R Y P D j h g d s i q q q q :       K.K.K.K.K.",
"K.K.K.K.K.K.    % J W E E E E E E E E E E E W Q ` ;.7.e.4 X X X X X X X  .r.4.&.( R I G D j g d s i q q q 0 9 o     K.K.K.K.K.K.",
"K.K.K.K.K.K.K..   8 W E E E E E E E E E E E Q _ ' y 1 @ X X X X X X X X X - ;   ) ! I G j g d s i w q q q 0 %     K.K.K.K.K.K.K.",
"K.K.K.K.K.K.K.      0 E E E E E E E E E E E Q _ ' X X X X X X X X . . . . . .   ) U J j g d s i w q q q 0 :       K.K.K.K.K.K.K.",
"K.K.K.K.K.K.K.K.    o p E E E E E E E E E E W Q ` =.<.4.q.r.r.i.a.i.r.w.8.1.:.| ~ K x h d s i i q q q 0 > .     K.K.K.K.K.K.K.K.",
"K.K.K.K.K.K.K.K.K.    O d E E E E E E E E E W Q _ ' %.;.>.<.<.<.<.<.<.:.*.| } ^ L x h d s i i q q q 0 > o     K.K.K.K.K.K.K.K.K.",
"K.K.K.K.K.K.K.K.K.K..   O i E E E E E E Y E E W Q / _ ` ` ' ` ) ) ) ( ( ^ ~ U L x h f s i i q q q q > o   . K.K.K.K.K.K.K.K.K.K.",
"K.K.K.K.K.K.K.K.K.K.K..   o 0 Y Y Y Y Y Y Y Y E E T T R R R R T T T I I J J l h g d s i w q q q q : .   . K.K.K.K.K.K.K.K.K.K.K.",
"K.K.K.K.K.K.K.K.K.K.K.K.      > j Y Y Y Y Y Y Y Y Y Y Y P F F F F D D j j h g d s p i q q q q 9 %       K.K.K.K.K.K.K.K.K.K.K.K.",
"K.K.K.K.K.K.K.K.K.K.K.K.K.      % q Y Y Y Y P P F F F F F F F D D j j h g g d s i i q q q 0 : o       K.K.K.K.K.K.K.K.K.K.K.K.K.",
"K.K.K.K.K.K.K.K.K.K.K.K.K.K.  .     : i F F F F F F D D D D D j j h g g d s p i w q q q > O         K.K.K.K.K.K.K.K.K.K.K.K.K.K.",
"K.K.K.K.K.K.K.K.K.K.K.K.K.K.K.K.        & 0 j D D D D j j j h h g g d s s i i q q 0 > O         K.K.K.K.K.K.K.K.K.K.K.K.K.K.K.K.",
"K.K.K.K.K.K.K.K.K.K.K.K.K.K.K.K.K.          O > 0 g h g g g g d d s s i i q 0 7 & o           K.K.K.K.K.K.K.K.K.K.K.K.K.K.K.K.K.",
"K.K.K.K.K.K.K.K.K.K.K.K.K.K.K.K.K.K.K.            o % : 7 0 q i w 0 9 > & O .             K.K.K.K.K.K.K.K.K.K.K.K.K.K.K.K.K.K.K.",
"K.K.K.K.K.K.K.K.K.K.K.K.K.K.K.K.K.K.K.K.K.K.                                        K.K.K.K.K.K.K.K.K.K.K.K.K.K.K.K.K.K.K.K.K.K.",
"K.K.K.K.K.K.K.K.K.K.K.K.K.K.K.K.K.K.K.K.K.K.K.K.K.                            K.K.K.K.K.K.K.K.K.K.K.K.K.K.K.K.K.K.K.K.K.K.K.K.K.",
"K.K.K.K.K.K.K.K.K.K.K.K.K.K.K.K.K.K.K.K.K.K.K.K.K.K.K.K.K.K.K.K.K.K.K.K.K.K.K.K.K.K.K.K.K.K.K.K.K.K.K.K.K.K.K.K.K.K.K.K.K.K.K.K.",
"K.K.K.K.K.K.K.K.K.K.K.K.K.K.K.K.K.K.K.K.K.K.K.K.K.K.K.K.K.K.K.K.K.K.K.K.K.K.K.K.K.K.K.K.K.K.K.K.K.K.K.K.K.K.K.K.K.K.K.K.K.K.K.K."
};
