/* XPM */ 
static char * XPM_translate[] = {
"32 32 14 1",
"!	c gray100",
" 	c None",
"#	c black",
"$	c #292929",
"%	c white",
"&	c #6B6B6B",
"'	c #FEFEFE",
"(	c #FDFDFD",
")	c #D8D8D8",
"*	c #FAFAFA",
"+	c #F9F9F9",
",	c #F5F5F5",
"-	c #F8F8F8",
".	c #FCFCFC",
"                                ",
"                                ",
"                                ",
"              ####              ",
"         ### ##$$#              ",
"        ##%$##&'(# ###          ",
"        #&%)##&%%$##&##         ",
"        #)%*&#&%%&#&%%##        ",
"        #))+&#&%%&#&%%$####     ",
"        #)*%&#&%%&#&%%&#$)##    ",
"        #)%%)#&%%&#&%%&#)%&#    ",
"        #&%%)#&%%&#&%%&#)%(#    ",
"     #####)))&)%%)#&%%&#)%)#    ",
"    ###$##&)%'%%%%(%%%&#)%&#    ",
"    #&))&#&)%%%%%%%%%%)&)%&#    ",
"   #&%%,)##)%%%%%%%%%%%%%)#     ",
"   #&%%%))#)%%%%%%%%%%%%%&#     ",
"    #&)%%)&)%%%%%%%%%%%%%&#     ",
"    ##&'%%%%%%%%%%%%%%%%%&#     ",
"     ##&)%%%%%%%%%%%%%%%%##     ",
"      ##)%%%%%%%%%%%%%%-)#      ",
"       #)%%%%%%%%%%%%%%)##      ",
"       ##&%%%%%%%%%%%%%&#       ",
"        ##)%%%%%%%%%%%)##       ",
"         ###%'%%%%%%%%&#        ",
"           #).%%%%%%%%$#        ",
"           ##.%%%%%%%%##        ",
"            #)))))))))#         ",
"            ###########         ",
"                                ",
"                                ",
"                                "};
