/* XPM */
static char *XPM_zoom[]={
"32 32 7 1",
". c None",
"a c #000000",
"e c #008000",
"d c #00ff00",
"# c #808080",
"b c #c0c0c0",
"c c #ffffff",
"................................",
"................................",
"........#aaaa#..................",
"......aabcccccaa................",
".....abbbaaaaccca...............",
"....abbaaccccaacca..............",
"...abbaccccccccacca.............",
"...a#acccaccccccaca.............",
"..###accacacccccacca............",
"..a#accaccaccccccaba............",
"..a#acaccacccccccaba............",
"..a#acacaccccccccaba............",
"..a#accacccccccccaba............",
"..a#accccccccccccaba............",
"..###accccccccccabba............",
"...a#acccccccccca#a.............",
"...a##acccccccca##a.............",
"....a##aaccccaa##aa.............",
".....a###aaaa###a#ba#...........",
"......aa######aaa##bd#..........",
"........#aaaa#...aeedd#.........",
".................aeeedd#........",
"..................aeeedd#.......",
"...................aeeedd#......",
"....................aeeedd#.....",
".....................aeeedd#....",
"......................aeeedd....",
".......................aeeea....",
"........................aaa.....",
"................................",
"................................",
"................................"};
