/* XPM */
static const char *XPM_zoom[] = {
/* columns rows colors chars-per-pixel */
"32 32 6 1",
"  c black",
". c #008000",
"X c green",
"o c #808080",
"O c #C0C0C0",
"+ c gray100",
/* pixels */
"++++++++++++++++++++++++++++++++",
"++++++++++++++++++++++++++++++++",
"++++++++o    o++++++++++++++++++",
"++++++  O+++++  ++++++++++++++++",
"+++++ OOO    +++ +++++++++++++++",
"++++ OO  ++++  ++ ++++++++++++++",
"+++ OO ++++++++ ++ +++++++++++++",
"+++ o +++ ++++++ + +++++++++++++",
"++ooo ++ + +++++ ++ ++++++++++++",
"++ o ++ ++ ++++++ O ++++++++++++",
"++ o + ++ +++++++ O ++++++++++++",
"++ o + + ++++++++ O ++++++++++++",
"++ o ++ +++++++++ O ++++++++++++",
"++ o ++++++++++++ O ++++++++++++",
"++ooo ++++++++++ OO ++++++++++++",
"+++ o ++++++++++ o +++++++++++++",
"+++ oo ++++++++ oo +++++++++++++",
"++++ oo  ++++  oo  +++++++++++++",
"+++++ ooo    ooo oO o+++++++++++",
"++++++  oooooo   ooOXo++++++++++",
"++++++++o    o+++ ..XXo+++++++++",
"+++++++++++++++++ ...XXo++++++++",
"++++++++++++++++++ ...XXo+++++++",
"+++++++++++++++++++ ...XXo++++++",
"++++++++++++++++++++ ...XXo+++++",
"+++++++++++++++++++++ ...XXo++++",
"++++++++++++++++++++++ ...XX++++",
"+++++++++++++++++++++++ ... ++++",
"++++++++++++++++++++++++   +++++",
"++++++++++++++++++++++++++++++++",
"++++++++++++++++++++++++++++++++",
"++++++++++++++++++++++++++++++++"
};

