<?xml version="1.0" encoding="UTF-8" standalone="no"?>
<!DOCTYPE svg PUBLIC "-//W3C//DTD SVG 1.0//EN" "http://www.w3.org/TR/2001/REC-SVG-20010904/DTD/svg10.dtd">
<svg xmlns:svg="http://www.w3.org/2000/svg" xmlns="http://www.w3.org/2000/svg" version="1.0" width="500" height="484.6713" id="svg11458">
  <g transform="translate(-2.5, 339.398)" style="opacity: 1;" id="layer1">
    <path d="M 264.62704,45.67985 L 320.93856,-55.341684 L 321.20626,-18.39565 L 439.71917,-18.663321 C 460.89567,-20.907926 479.46189,-29.515917 492.90718,-45.703612 C 449.99593,42.074998 437.6363,104.18491 348.60347,104.22236 L 321.20626,104.22236 L 320.93856,145.2735 L 264.62704,45.67985 z M 128.9798,105.11479 C 65.618201,85.84639 36.055796,7.7860213 7.07577,-47.220709 C 20.358449,-35.144225 45.215543,-17.857687 59.652937,-17.856242 C 87.342919,-17.791686 115.033,-17.739925 142.72302,-17.68168 L 226.61014,-17.68168 L 226.34238,104.75781 L 226.07467,105.11479 L 128.9798,105.11479 z M 2.5,-79.206629 L 42.995596,-161.8012 L 3.5060915,-183.49253 L 121.84047,-183.49253 L 179.04437,-79.615369 L 140.25008,-102.84417 C 127.80713,-76.56873 115.36419,-50.293292 102.92124,-24.017854 C 88.601045,-24.268303 74.280847,-24.518751 59.960649,-24.769199 C 32.037317,-31.279427 12.61125,-53.254123 2.5,-79.206629 z M 397.95406,-25.267233 L 345.65845,-121.64816 L 451.3206,-185.63434 L 502.45591,-83.185088 C 504.00423,-58.667382 464.41897,-24.549247 439.84931,-24.814661 L 397.95406,-25.267233 z M 88.64259,-250.78088 L 142.62664,-331.68677 C 194.98621,-351.18756 225.31619,-309.08831 244.45844,-282.5509 L 193.59076,-184.92061 L 88.64259,-250.78088 z M 293.18437,-207.23101 C 282.32654,-232.82854 267.81922,-262.10865 249.67783,-287.56701 C 233.43607,-310.35951 213.81186,-330.24553 198.94523,-339.13011 L 335.48497,-339.39778 C 360.00585,-337.19641 371.92036,-322.9011 384.92473,-303.3442 L 404.5578,-268.80769 L 434.90004,-288.17309 L 377.78547,-186.43755 L 254.632,-186.16987 L 293.18437,-207.23101 z " style="opacity: 1; fill: rgb(47, 116, 59); fill-opacity: 1;" id="path11522"/>
  </g>
</svg>